<?xml version="1.0" standalone="no"?>
<!DOCTYPE svg PUBLIC "-//W3C//DTD SVG 1.1//EN" "http://www.w3.org/Graphics/SVG/1.1/DTD/svg11.dtd" >
<svg xmlns="http://www.w3.org/2000/svg" xmlns:xlink="http://www.w3.org/1999/xlink" version="1.1">
<metadata>
Created by FontForge 20201107 at Sat Jul 31 04:32:51 2021
 By Unknown
</metadata>
<defs>
<font id="jkiticon" horiz-adv-x="1024" >
  <font-face 
    font-family="jkiticon"
    font-weight="400"
    font-stretch="normal"
    units-per-em="1024"
    panose-1="2 0 5 3 0 0 0 0 0 0"
    ascent="960"
    descent="-64"
    bbox="-0.4 -67 1024 928"
    underline-thickness="0"
    underline-position="0"
    unicode-range="U+EB56-EC80"
  />
<missing-glyph 
 />
    <glyph glyph-name=".notdef" 
 />
    <glyph glyph-name="github-square" unicode="&#xeb56;" 
d="M160 800v-704h704v704h-704zM224 736h576v-576h-576v576zM509 672q-94 0 -157.5 -63t-63.5 -157q0 -50 19.5 -94t54 -76t79.5 -47q16 -2 16 11v23v33q-3 -1 -7.5 -1.5t-16 -0.5t-21 2t-19 9t-13.5 18q-10 26 -25 33l-9 8q-2 6 10 6q23 -2 35 -24q22 -38 66 -19
q3 21 15 31q-20 2 -31 4t-26.5 8.5t-24 16t-14.5 28t-6 43.5q0 29 21 53q-11 28 3 61q4 2 9 1t11 -3t12 -5t11.5 -6t9.5 -5.5t7 -3.5l2 -2q28 8 56.5 8t57.5 -8q2 1 5 3t11.5 7t16 8.5t16 5.5t13.5 0q6 -14 6.5 -28.5t-1 -21t-3.5 -11.5q24 -26 24 -53q0 -22 -4 -38
t-12.5 -26t-16.5 -16.5t-22 -10.5t-23.5 -5.5t-25.5 -3.5q16 -13 16 -42q0 -13 -0.5 -30.5t-0.5 -30v-15.5q0 -13 16 -11q68 23 109.5 82.5t41.5 134.5q0 93 -66 156.5t-161 63.5zM370 368q-3 1 -4 -0.5t2 -3.5q3 -1 4 1t-2 3zM378 361q-1 0 -2 -1q-2 -1 0 -4q3 -3 5 -1
q2 1 0 5q-2 1 -3 1zM387.5 349.5q-1.5 0.5 -2.5 -0.5q-3 -2 0 -5q3 -4 5 -2q3 1 0 5q-1 2 -2.5 2.5zM398 336.5q-2 0.5 -3 -1.5q-2 -2 2 -5q3 -4 5 -1q3 2 -1 6q-1 1 -3 1.5zM415 326q-4 1 -5 -2t4 -4q4 -2 5 2q2 3 -4 4zM450 326q-5 -1 -4.5 -4.5t5.5 -2.5t4 4q0 3 -5 3z
M433 324q-5 0 -5 -4t5 -3q5 0 5 3q0 4 -5 4z" />
    <glyph glyph-name="github" unicode="&#xeb57;" 
d="M512 832q-159 0 -271.5 -112.5t-112.5 -271.5q0 -126 73.5 -226t189.5 -138q13 -3 19.5 3t6.5 15q0 3 -0.5 25t-0.5 40q-47 -10 -79.5 3t-40.5 31l-9 18q-8 20 -18.5 34t-17.5 18l-7 4q-9 7 -12.5 11.5t-1.5 7t6 3.5t7 1h4q17 -1 31.5 -11t21.5 -19l6 -9q12 -21 28 -31.5
t32.5 -10.5t28.5 2.5t23 7.5q4 34 24 51q-36 4 -64 13.5t-55 29.5t-41.5 57t-14.5 90q0 60 39 103q-18 46 4 102q2 0 4.5 0.5t12 -0.5t20.5 -4t29.5 -12.5t39.5 -23.5q46 13 96 13t96 -13q21 14 39.5 23.5t30 12.5t20 4t12.5 1l4 -1q22 -57 4 -102q39 -43 39 -103
q0 -36 -7 -64.5t-20 -48t-28.5 -33.5t-36.5 -23t-40.5 -13.5t-42.5 -7.5q26 -22 26 -70q0 -31 -0.5 -67.5t-0.5 -38.5q0 -9 6.5 -15t20.5 -3q115 38 188.5 138t73.5 226q0 159 -112.5 271.5t-271.5 112.5z" />
    <glyph glyph-name="gitkraken" unicode="&#xeb58;" 
d="M676 800q-12 1 -17 -9q-2 -5 -1.5 -9t2.5 -7.5t6 -6.5q75 -42 120 -117.5t45 -164.5q0 -102 -56 -183.5t-146 -117.5v135q15 5 25.5 18.5t10.5 30.5q0 30 -25 45q2 23 7 41t11 27.5t12 16.5t12 10.5t11 6.5t8 8t3 12v22q0 12 -7 31t-19.5 40.5t-28 45t-33.5 45.5
t-35.5 39.5t-34 28t-28.5 11.5h-11q-28 -2 -73.5 -50.5t-79.5 -106t-34 -84.5v-22q0 -10 5.5 -15.5t14 -10.5t17 -13.5t16.5 -29.5t11 -54q-25 -14 -25 -44q0 -17 10.5 -30.5t25.5 -18.5v-135q-90 36 -146 117.5t-56 182.5q0 90 45 165.5t120 117.5q14 8 7 22q-3 7 -10 9
t-13 -1q-41 -23 -74.5 -56t-57.5 -73t-37 -87t-13 -97q0 -124 76 -220.5t192 -125.5v152q18 -6 34 -9v-181q-142 19 -237.5 128.5t-95.5 255.5q0 24 3 47.5t8.5 46t13.5 43.5q5 15 -9 21q-7 3 -13.5 0.5t-9.5 -9.5q-5 -14 -9 -28.5t-7 -29t-5.5 -29.5t-3.5 -30.5t-1 -31.5
q0 -83 31.5 -159.5t84.5 -132.5t127 -91t156 -38v214q17 -1 34 0v-214q109 5 201 62t145 152.5t53 206.5q0 39 -6.5 76.5t-19.5 72.5q-2 4 -5.5 7t-8 3.5t-9.5 -0.5q-6 -3 -8.5 -9.5t-0.5 -12.5q5 -13 9 -26t7 -26.5t5 -27.5t3 -28t1 -28q0 -147 -95.5 -256.5t-237.5 -128.5
v181q17 3 33 9v-152q117 29 193 125.5t76 221.5q0 99 -49.5 182t-132.5 130q-3 2 -6 2zM411 404q14 0 24 -10.5t10 -25t-10 -24.5t-24 -10t-24 10.5t-10 24.5t10 24.5t24 10.5zM613 403q5 0 10.5 -1.5t9.5 -4.5t7.5 -7.5t5 -10t1.5 -10.5q0 -10 -4.5 -18t-12.5 -12.5
t-17 -4.5q-14 0 -24 10t-10 24.5t10 24.5t24 10z" />
    <glyph glyph-name="gitlab" unicode="&#xeb59;" 
d="M268 897l-138 -367l-7 -21l-65 -174l454 -331l454 331l-210 562l-120 -367h-248zM264 703l56 -173h-121zM760 703l65 -173h-121zM175 466h166l110 -338l-317 230zM408 466h208l-104 -319zM683 466h166l41 -108l-317 -230z" />
    <glyph glyph-name="gitter" unicode="&#xeb5a;" 
d="M192 896v-544h64v544h-64zM384 768v-768h64v768h-64zM576 768v-768h64v768h-64zM768 768v-416h64v416h-64z" />
    <glyph glyph-name="glass-cheers-solid" unicode="&#xeb5b;" 
d="M795 830l-31 -9l-246 -70l-30 -9l6 -22l-262 76l-9 -31l-90 -306q-21 -72 -5 -127q17 -60 75 -90l-29 -105l-92 27l-18 -62l246 -71l18 62l-92 27l29 104q64 -5 111 37q44 40 64 109l79 264l65 -232q20 -69 64 -109q46 -42 111 -36l29 -105l-92 -27l18 -62l246 71l-18 62
l-92 -27l-30 105q58 30 75 90q16 57 -4 127l-87 308zM752 751l40 -143h-200l-25 90zM276 716l184 -52l-26 -88h-200zM610 544h200l20 -71q15 -52 4 -92q-12 -43 -61 -57t-82 16q-31 28 -46 80zM215 512h200l-37 -124q-16 -54 -45 -80q-33 -30 -82 -16t-61 57q-11 40 4 92z
" />
    <glyph glyph-name="glass-martini-alt-solid" unicode="&#xeb5c;" 
d="M272 832q-73 0 -124.5 -51.5t-51.5 -124.5t51.5 -124.5t124.5 -51.5q37 0 73 17l167 -220v-181h-128v-64h320v64h-128v181l282 372l6 9v46h-424q-15 56 -62 92t-106 36zM272 768q33 0 60 -18t40 -46h-148v-46l6 -9l75 -99q-17 -6 -33 -6q-47 0 -79.5 32.5t-32.5 79.5
t32.5 79.5t79.5 32.5zM318 640h452l-48 -64h-290l48 -64h193l-129 -171z" />
    <glyph glyph-name="glass-martini-solid" unicode="&#xeb5d;" 
d="M160 800v-43l320 -416v-213h-160v-64h384v64h-160v213l320 416v43h-704zM257 736h510l-49 -64h-337l50 -64h238l-157 -204z" />
    <glyph glyph-name="glass-whiskey-solid" unicode="&#xeb5e;" 
d="M154 736l107 -640h502l107 640h-716zM230 672h564l-53 -320h-400l11 -64h378l-21 -128h-394z" />
    <glyph glyph-name="glasses-solid" unicode="&#xeb5f;" 
d="M162 768l-8 -21l-112 -299h-42v-64h32v-64q0 -79 56.5 -135.5t135.5 -56.5h64q79 0 135.5 56.5t56.5 135.5v96q0 14 9 23t23 9t23 -9t9 -23v-96q0 -79 56.5 -135.5t135.5 -56.5h64q79 0 135.5 56.5t56.5 135.5v64h32v64h-42l-112 299l-8 21h-62l-9 -12l-80 -96l50 -40
l61 74l92 -246h-312q-10 28 -34.5 46t-55.5 18t-55.5 -18t-34.5 -46h-312l92 246l61 -74l50 40l-80 96l-9 12h-62zM96 384h320v-64q0 -53 -37.5 -90.5t-90.5 -37.5h-64q-53 0 -90.5 37.5t-37.5 90.5v64zM608 384h320v-64q0 -53 -37.5 -90.5t-90.5 -37.5h-64
q-53 0 -90.5 37.5t-37.5 90.5v64z" />
    <glyph glyph-name="glide-g" unicode="&#xeb60;" 
d="M513 864q-45 0 -86 -14.5t-72 -38.5t-56.5 -56.5t-41.5 -68.5t-24.5 -73t-8.5 -71q0 -53 16.5 -95t46.5 -70t73 -42.5t97 -14.5h8q7 0 8.5 -0.5t1.5 -4.5q-1 -1 -1 -2q-17 -133 -79 -176q-36 -24 -58 -3q-10 9 -10 26q0 18 9 32.5t22 23t26 14.5t22.5 9t9.5 4
q-1 14 -39.5 29.5t-56.5 15.5q-20 0 -38 -11.5t-30.5 -28t-20 -36.5t-7.5 -37q0 -65 36 -104t99 -39q60 0 113 37t85.5 89t47.5 110q9 37 17 76q4 21 6.5 26t8.5 8q15 8 29 12.5t31 6t27 2t32.5 0t32.5 -0.5q11 0 22 -1.5t19.5 -3t25 -4.5t29.5 -5q11 0 11 9q0 7 -13.5 33.5
t-29 52t-21.5 27.5q-16 6 -25 6q-18 0 -34.5 -1.5t-31.5 -4.5t-29.5 -8t-29 -11.5t-29.5 -15.5l-2 1q4 29 28.5 111t24.5 127q0 42 -13.5 72.5t-39.5 48t-59.5 25.5t-78.5 8zM521 774q47 0 47 -38q0 -26 -9 -69q-7 -36 -29.5 -113.5t-29.5 -113.5q-2 -5 -4 -8t-6.5 -4
t-7.5 -1.5t-9.5 0t-8.5 0.5q-29 0 -48 20t-25.5 45t-6.5 54q0 64 25.5 126.5t75.5 90.5q18 11 36 11z" />
    <glyph glyph-name="glide" unicode="&#xeb61;" 
d="M160 800v-704h704v704h-704zM224 736h576v-576h-576v576zM510 672q-36 0 -66 -16.5t-48 -42.5t-28 -55.5t-10 -58.5q0 -57 32 -88t89 -31h5q5 0 5 -3q-11 -81 -50 -99q-21 -9 -28 8q-1 4 -1 8q0 10 4 18.5t9.5 14.5t11.5 10.5t10 7l4 2.5q0 8 -20.5 16t-30.5 8
q-14 0 -25 -12.5t-16 -28.5t-5 -29q0 -35 20 -56t55 -21q47 0 83 39.5t49 88.5q2 9 3.5 16.5l2.5 12.5t2 9.5t1.5 7t1.5 5t1.5 3.5t1 2.5t1.5 2t2 0.5q5 3 12.5 7t11.5 6t10 4.5t11 3.5t11.5 2t14.5 1q7 0 13 -1t18.5 -3t19.5 -3q6 -1 6 5q0 3 -7.5 16t-16.5 25.5t-12 13.5
q-8 3 -13 3q-12 0 -21.5 -3t-15.5 -6t-16.5 -10t-17.5 -10q1 9 10.5 53t9.5 69q0 31 -11 50.5t-31.5 28.5t-51.5 9zM514 624q11 0 14 -6.5t3 -19.5q0 -4 -0.5 -8.5t-1 -9.5t-1.5 -9t-2 -9l-12 -58t-12 -60q0 -2 -1.5 -3.5t-4 -2t-4 -1t-5 0t-4.5 0.5q-23 0 -33 19t-10 44
q0 35 14 68.5t40 48.5q10 6 20 6z" />
    <glyph glyph-name="globe-africa-solid" unicode="&#xeb62;" 
d="M512 864q-172 0 -294 -122t-122 -294t122 -294t294 -122t294 122t122 294t-122 294t-294 122zM512 800q14 0 32 -2v-62h-64l-32 -96h-32v-32h160l32 -32h32v-32l-32 -32l-128 32l-128 -96v-96l64 -64h96v-80l32 -80h32l96 128v32l32 64v32h-32l-32 64l32 32l48 -32l80 32
v32h58q6 -33 6 -64q0 -146 -103 -249t-249 -103t-249 103t-103 249t103 249t249 103z" />
    <glyph glyph-name="globe-americas-solid" unicode="&#xeb63;" 
d="M512 864q-172 0 -294 -122t-122 -294t122 -294t294 -122t294 122t122 294t-122 294t-294 122zM512 800q14 0 32 -2v-30h64v18q120 -34 192 -136v-106l32 -64v-32h32q0 -17 -2 -35q0 -1 -0.5 -4.5t-0.5 -4.5q-2 -16 -4 -25q0 -1 -0.5 -2.5t-1 -3.5t-0.5 -3q-3 -14 -6 -24
q-1 -2 -2 -5q-1 -2 -1 -3q-5 -14 -9 -24q0 -2 -1 -4t-2 -3q-6 -14 -11 -24l-3 -6q-7 -12 -15 -23q-1 -2 -3 -5q-8 -11 -17 -22q0 -1 -1 -2l-2 -2q-3 -4 -6 -7.5t-6.5 -7t-6.5 -7.5q-1 0 -2 -1t-1 -2q-11 -10 -22 -19q0 -1 -1 -2t-2 -1q-5 -4 -11 -8.5t-12 -8.5l-2 -2t-2 -1
q-9 -6 -24 -14q-19 -11 -38.5 -19.5t-41 -14t-43.5 -8.5l128 97l35 35l44 88v32l-64 32h-32l-64 64h-64l-32 -32v-32l-32 -32v-64l64 -51l-63 -139q-135 12 -228 112.5t-93 237.5q0 80 34 151t94 120v-15l-32 -32v-70l32 -122l160 -64h32v32l-96 32v64h96l32 80l64 48v32
l-96 64l-46 23q40 9 78 9zM480 512v-32h64v32h-64z" />
    <glyph glyph-name="globe-asia-solid" unicode="&#xeb64;" 
d="M512 832q-159 0 -271.5 -112.5t-112.5 -271.5t112.5 -271.5t271.5 -112.5t271.5 112.5t112.5 271.5t-112.5 271.5t-271.5 112.5zM525 767q49 -2 88 -15l-15 -21l12 -25l-16 -32l68 -9l25 -116l55 -75l49 -31l-19 53l18 22l37 -10q5 -27 5 -60q0 -3 -0.5 -8t-0.5 -6l-3 6
l-31 -13l-8 -20l-17 -6l6 -52l13 -19l-9 -25l-48 -76l-4 -15q-92 -86 -218 -86q-148 0 -244 113l-45 111l26 44l-39 22l44 21l2 24l-13 34l25 -3l25 -38l23 -11l-7 26l24 24l39 -28l21 17l-9 44l31 44l-4 44l38 23l-26 64l72 4l40 51zM480 461l-85 -64l6 -80l22 -19l49 26
l25 -7l43 -46l26 7l27 64l-17 44l-34 66l-25 -40zM640 326l-6 -2l-2 -41l-14 -19l16 -15l20 23zM605 248l-41 -47l11 -12l48 46z" />
    <glyph glyph-name="globe-europe-solid" unicode="&#xeb65;" 
d="M512 864q-172 0 -294 -122t-122 -294t122 -294t294 -122t294 122t122 294t-122 294t-294 122zM512 800q99 0 184 -52l-8 -18l38 -38l-36 -35l-50 47h-64l-64 -80l32 -70l32 22v32h32l35 -29l-35 -35l-128 -64h-32v-64h32l64 32l32 -32h64v32l26 38l70 26v-64h-64v-32h64
l64 -96l32 32v32h-32v32h32l31 7q-7 -97 -63 -177v10h-35l-77 128l-80 -32l-96 32l-96 -32l-32 -96l32 -64h64l32 32l32 -32v-94q-18 -2 -32 -2q-146 0 -249 103t-103 249q0 42 11 86l18 10h35v106q10 14 17 22h28l14 43q16 13 32 24t34 21l-29 -88h64l64 64v32h-32l-32 -32
v40q62 24 128 24zM448 608v-64h32v64h-32z" />
    <glyph glyph-name="globe-solid" unicode="&#xeb66;" 
d="M512 832q-159 0 -271.5 -112.5t-112.5 -271.5t112.5 -271.5t271.5 -112.5t271.5 112.5t112.5 271.5t-112.5 271.5t-271.5 112.5zM512 768q92 0 171 -50l-26 -3l6 -64l-34 15l-28 -24l5 -66l69 22l86 -28l-22 -40l-52 32l-56 -8l-55 -41l-31 -96l62 -51q64 11 67 11
l27 -58l-51 -160q-65 -31 -138 -31q-7 0 -30 2l-35 61l34 128l-129 97h-119l-31 63l86 68l128 61l-19 85l55 12l26 -36l96 18l-17 74l-71 5q1 0 11 1t15 1zM476 766l-50 -21l-24 4q35 13 74 17zM194 423l31 -36v-66l60 -66h37l91 -112q-91 30 -151 106t-68 174z" />
    <glyph glyph-name="gofore" unicode="&#xeb67;" 
d="M544 832q-159 0 -271.5 -112.5t-112.5 -271.5t112.5 -271.5t271.5 -112.5q34 0 67 6t63.5 17t58.5 27t52.5 36.5t45.5 44.5q-2 30 -16.5 57.5t-43.5 47t-67 20.5v-28q-66 -68 -160 -68q-93 0 -158.5 65.5t-65.5 158.5t65.5 158.5t158.5 65.5q27 0 52.5 -6t48 -17.5
t42.5 -27.5l112 114q-110 97 -255 97zM512 544v-160h192q97 0 128 -64q0 30 -0.5 47t-4 48t-11.5 49.5t-21.5 39t-36.5 30.5t-54 10h-192z" />
    <glyph glyph-name="golf-ball-solid" unicode="&#xeb68;" 
d="M512 864q-132 0 -226 -94t-94 -226q0 -87 43.5 -160.5t116.5 -115.5v-44q30 0 63 -20q56 -34 64 -108h-255v-64h576v64h-255q8 74 64 108q33 20 64 20l-1 32v12q73 42 116.5 115.5t43.5 160.5q0 132 -94 226t-226 94zM512 800q106 0 181 -75t75 -181t-75 -181t-181 -75
t-181 75t-75 181t75 181t181 75zM608 608q-13 0 -22.5 -9.5t-9.5 -22.5t9.5 -22.5t22.5 -9.5t22.5 9.5t9.5 22.5t-9.5 22.5t-22.5 9.5zM544 544q-13 0 -22.5 -9.5t-9.5 -22.5t9.5 -22.5t22.5 -9.5t22.5 9.5t9.5 22.5t-9.5 22.5t-22.5 9.5zM640 512q-13 0 -22.5 -9.5
t-9.5 -22.5t9.5 -22.5t22.5 -9.5t22.5 9.5t9.5 22.5t-9.5 22.5t-22.5 9.5zM480 480q-13 0 -22.5 -9.5t-9.5 -22.5t9.5 -22.5t22.5 -9.5t22.5 9.5t9.5 22.5t-9.5 22.5t-22.5 9.5zM576 448q-13 0 -22.5 -9.5t-9.5 -22.5t9.5 -22.5t22.5 -9.5t22.5 9.5t9.5 22.5t-9.5 22.5
t-22.5 9.5zM489 224h46q-13 -15 -23 -32q-10 17 -23 32z" />
    <glyph glyph-name="goodreads-g" unicode="&#xeb69;" 
d="M512 864q-106 0 -181 -89t-75 -215t75 -215t181 -89q56 0 106 27.5t86 76.5v-104q0 -66 -56.5 -113t-135.5 -47q-23 0 -45.5 4.5t-42 13t-36.5 20.5t-30 26.5t-22 31.5h-69q24 -70 91.5 -115t153.5 -45q106 0 181 65.5t75 158.5v576h-64v-72q-18 24 -39.5 43t-45.5 32.5
t-51.5 21t-55.5 7.5zM512 800q79 0 135.5 -70.5t56.5 -169.5t-56.5 -169.5t-135.5 -70.5t-135.5 70.5t-56.5 169.5t56.5 169.5t135.5 70.5z" />
    <glyph glyph-name="goodreads" unicode="&#xeb6a;" 
d="M160 800v-704h704v704h-704zM224 736h576v-576h-576v576zM496 672q-60 0 -102 -47t-42 -113t42 -113t102 -47q68 0 112 61v-45q0 -46 -33 -79t-79 -33q-33 0 -60 17.5t-41 46.5h-34q15 -42 52 -69t83 -27q60 0 102 42t42 102v272h-32v-29q-20 29 -49.5 45t-62.5 16z
M496 640q46 0 79 -37.5t33 -90.5t-33 -90.5t-79 -37.5t-79 37.5t-33 90.5t33 90.5t79 37.5z" />
    <glyph glyph-name="google-drive" unicode="&#xeb6b;" 
d="M366 800l-9 -15l-266 -432l9 -17l128 -224l9 -16h550l9 16l128 224l9 17l-10 16l-256 416l-9 15h-292zM441 736h181l217 -352h-181zM384 707l95 -155l-222 -361l-92 161zM517 491l66 -107h-132zM412 320h429l-92 -160h-436z" />
    <glyph glyph-name="google-play" unicode="&#xeb6c;" 
d="M248 864q-1 0 -3.5 -0.5t-3.5 -0.5h-3h-3h-4q-5 -1 -10 -4t-9 -7q-20 -17 -20 -42v-729q0 -31 24 -44q1 0 2 -0.5t2 -0.5q2 -1 3 -1q22 -7 44 5l301 184l153 92q130 79 147 89q28 17 28 46q0 27 -28 43q-13 7 -78 47q-15 9 -30.5 18.5t-25.5 15.5l-10 6q-1 1 -3 2
l-153 93q-278 169 -295 179q-13 8 -25 9zM256 765l302 -315l-302 -315v630zM410 697l125 -76l118 -72l-51 -53zM709 515q6 -4 21 -12.5t27 -16.5q15 -9 35.5 -21t25.5 -15q-16 -10 -57.5 -35t-50.5 -31l-63 66zM602 403l51 -53l-118 -72q-70 -42 -126 -76z" />
    <glyph glyph-name="google-plus-g" unicode="&#xeb6d;" 
d="M352 736q-119 0 -203.5 -84.5t-84.5 -203.5t84.5 -203.5t203.5 -84.5t203.5 84.5t84.5 203.5q0 29 -6 58l-2 6h-280v-96h192q-11 -68 -66 -114t-126 -46q-80 0 -136 56t-56 136t56 136t136 56q71 0 126 -47l68 67q-82 76 -194 76zM800 608v-96h-96v-64h96v-96h64v96h96
v64h-96v96h-64z" />
    <glyph glyph-name="google-plus-square" unicode="&#xeb6e;" 
d="M160 800v-704h704v704h-704zM224 736h576v-576h-576v576zM435 608q-40 0 -74 -19.5t-53.5 -53.5t-19.5 -74q0 -61 43 -104t104 -43q42 0 74 18.5t49.5 51t17.5 74.5q0 10 -3 22h-138v-49h83q-3 -22 -23.5 -42.5t-59.5 -20.5q-38 0 -64.5 27t-26.5 65.5t26.5 66t64.5 27.5
q35 0 58 -23l40 38q-20 19 -44.5 29t-53.5 10zM651 512v-43h-43v-42h43v-43h42v43h43v42h-43v43h-42z" />
    <glyph glyph-name="google-plus" unicode="&#xeb6f;" 
d="M352 736q-119 0 -203.5 -84.5t-84.5 -203.5t84.5 -203.5t203.5 -84.5t203.5 84.5t84.5 203.5q0 29 -6 58l-2 6h-280v-96h192q-11 -68 -66 -114t-126 -46q-80 0 -136 56t-56 136t56 136t136 56q71 0 126 -47l68 67q-82 76 -194 76zM800 608v-96h-96v-64h96v-96h64v96h96
v64h-96v96h-64z" />
    <glyph glyph-name="google-wallet" unicode="&#xeb70;" 
d="M704 848q-27 0 -53 -14q-41 -22 -54 -66t9 -86q1 -1 2 -3.5t2.5 -5.5t3 -7t3.5 -9t4 -11t4 -12.5t4.5 -14t4.5 -15.5q-30 44 -67 82.5t-53 51t-25 18.5l-1 1q-1 1 -3 2q-31 25 -69 25q-34 0 -63 -20q-38 -26 -46.5 -71.5t17.5 -83.5q8 -14 17 -35q-18 14 -34 24
q-68 42 -115 42q-39 0 -67.5 -28.5t-28.5 -67.5q0 -41 41 -75q8 -7 72 -50q44 -29 74 -61.5t48 -81.5q-11 -27 -13 -30q-22 -40 -9.5 -84t52.5 -67q26 -15 55 -15q30 0 56 15.5t41 41.5q34 60 57 147q26 -77 22 -154q-2 -10 2 -19v-2q10 -59 64 -83q22 -10 46 -10
q33 0 61 18t41 48q11 25 23.5 60t31.5 126t19 177q0 88 -19.5 174t-33.5 118.5t-25 52.5q-32 58 -98 58zM704 784q28 0 42 -25q9 -16 21 -43.5t30.5 -108t18.5 -162.5q0 -81 -18.5 -168t-29.5 -118t-20 -51q-13 -28 -44 -28q-11 0 -20 4q-18 8 -25 27t1 37q52 120 59 267
q3 8 1 17v13q0 70 -16 139.5t-26 93.5t-16 35q-9 17 -3.5 36.5t22.5 28.5q11 6 23 6zM416 720q17 0 31 -12l1 -1q5 -4 7 -8q9 -13 21.5 -35.5t32 -88.5t19.5 -133q0 -66 -18.5 -136.5t-31 -97t-20.5 -40.5q-14 -24 -42 -24q-13 0 -24 6q-17 10 -22.5 29.5t4.5 36.5
q6 10 16.5 32.5t26 81t15.5 112.5q0 107 -55 203q-11 16 -7.5 35.5t19.5 30.5q13 9 27 9zM575 577q53 -73 80 -154q-2 -69 -19 -139q-19 68 -46 110q2 23 2 48q0 67 -17 135zM192 576q3 0 14 -3t30.5 -11.5t36.5 -18.5q63 -39 95 -96v-5q0 -38 -9 -80q-39 60 -114 110
q-61 41 -67 46q-18 15 -18 26q0 14 9 23t23 9z" />
    <glyph glyph-name="google" unicode="&#xeb71;" 
d="M598 467q0 17 10.5 32t25.5 28t30 29t26 42.5t11 60.5q0 19 -3.5 36t-9 30t-13 24.5t-14 19t-13.5 14t-10.5 9t-5.5 4.5h62l62 36h-201q-58 0 -103 -15.5t-69 -37.5t-40 -50t-20.5 -49t-4.5 -38q0 -60 44.5 -109.5t121.5 -49.5q16 0 33 2q-10 -28 -10 -39.5t3.5 -23.5
t7.5 -18.5t10.5 -15.5t7.5 -11q-47 0 -93.5 -10t-86 -30t-64 -53.5t-24.5 -75.5q0 -15 5 -32t19.5 -37.5t36.5 -36.5t61 -27t88 -11q57 0 102.5 13.5t74 34t47.5 46.5t26.5 50t7.5 46q0 37 -14.5 66.5t-34.5 48.5t-40.5 34.5t-34.5 31.5t-14 32zM531 511q-26 0 -49.5 15
t-40.5 39.5t-27.5 57.5t-10.5 68q0 13 3.5 28.5t12.5 35t28 31.5t46 12q34 0 60 -22.5t38.5 -55.5t18.5 -60.5t6 -46.5q0 -102 -85 -102zM526 106q-27 0 -54.5 6t-55.5 19t-45.5 38.5t-17.5 59.5q0 10 2.5 20.5t9 25.5t20 27t33 23.5t51.5 17.5t72 6q12 0 22 -1q4 -2 24 -16
t30 -22.5t25 -24t22 -33t7 -37.5q0 -11 -3 -23.5t-12 -28.5t-24 -28t-42.5 -20.5t-63.5 -8.5z" />
    <glyph glyph-name="gopuram-solid" unicode="&#xeb72;" 
d="M288 800v-160h-32v-128h-64v-192h-64v-224h160v224h32v192h32v128h64v-128h-32v-192h-32v-224h64v64q0 40 28 68t68 28t68 -28t28 -68v-64h64v224h-32v192h-32v128h64v-128h32v-192h32v-224h160v224h-64v192h-64v128h-32v160h-64v-64h-64v64h-64v-64h-64v64h-64v-64h-64
v64h-64zM512 608q13 0 22.5 -9.5t9.5 -22.5v-64h-64v64q0 13 9.5 22.5t22.5 9.5zM512 448q27 0 45.5 -18.5t18.5 -45.5v-64h-128v64q0 27 18.5 45.5t45.5 18.5z" />
    <glyph glyph-name="graduation-cap-solid" unicode="&#xeb73;" 
d="M512 804l-15 -8l-432 -224l-55 -28l54 -27v-270q-32 -19 -32 -55q0 -27 18.5 -45.5t45.5 -18.5t45.5 18.5t18.5 45.5q0 36 -32 55v237l64 -33v-163q0 -20 14 -35q8 -8 26 -18q26 -13 69 -23q90 -20 211 -20t211 20q43 10 69 23q18 10 26 18q14 15 14 35v163l182 93
l-55 28l-432 224zM512 732l362 -188l-57 -29q-9 10 -25 18q-25 13 -69 23q-89 20 -211 20t-211 -20q-44 -10 -69 -23q-16 -8 -25 -18l-57 29zM512 512q117 0 197 -18q37 -8 54 -17l5 -4v-122q-21 8 -45 13q-90 20 -211 20t-211 -20q-24 -5 -45 -13v122l1 1q2 2 4 3
q17 9 54 17q80 18 197 18zM512 320q116 0 197 -18q24 -5 44 -14q-20 -9 -44 -14q-81 -18 -197 -18t-197 18q-24 5 -44 14q20 9 44 14q81 18 197 18z" />
    <glyph glyph-name="gratipay" unicode="&#xeb74;" 
d="M512 832q-159 0 -271.5 -112.5t-112.5 -271.5t112.5 -271.5t271.5 -112.5t271.5 112.5t112.5 271.5t-112.5 271.5t-271.5 112.5zM512 768q133 0 226.5 -93.5t93.5 -226.5t-93.5 -226.5t-226.5 -93.5t-226.5 93.5t-93.5 226.5t93.5 226.5t226.5 93.5zM400 576
q-33 0 -56.5 -23.5t-23.5 -56.5q0 -26 15 -46l177 -202l177 202l1 1q14 20 14 45q0 33 -23.5 56.5t-56.5 23.5q-30 0 -61.5 -27t-50.5 -27t-50.5 27t-61.5 27z" />
    <glyph glyph-name="grav" unicode="&#xeb75;" 
d="M512 864q-172 0 -294 -122t-122 -294t122 -294t294 -122t294 122t122 294t-122 294t-294 122zM512 800q146 0 249 -103t103 -249t-103 -249t-249 -103t-249 103t-103 249t103 249t249 103zM508 735q-15 -1 -22 -14q-5 -13 4.5 -52.5t26.5 -69.5q-4 -3 -10 -9
q-13 -6 -32 -26.5t-32 -37.5l-12 -18q-12 -4 -25.5 -11.5t-27.5 -17.5t-24.5 -21t-15.5 -23.5t-3 -23.5q1 -6 4 -10q-5 -4 -11 -11q-13 -15 -5.5 -29.5t29.5 -3.5q31 14 49 41q-1 0 -2.5 1.5t-7.5 3t-12 1.5q13 3 23.5 4t15.5 0.5t13 -1.5t10 -2q5 -2 8 9.5t3 24.5v13
q0 38 -15 56q40 -39 38 -82q0 -11 -5.5 -19t-10.5 -10l-4 -2q-2 -3 -7.5 -12.5t-9.5 -17t-10 -19.5t-9.5 -23t-6.5 -23.5t-2.5 -25t3.5 -23.5q-13 20 -13 30q-13 -14 -20.5 -23t-16 -23.5t-8 -24.5t10.5 -16q13 -7 39 11.5t52 49.5t48.5 68t31.5 63q22 14 40.5 30.5t29 30.5
t17.5 27q21 -42 74 -73q52 -30 66 -6q1 3 2 8q2 12 -15 21.5t-19 13.5q-26 45 -80 32q7 5 15 7t13 2h4q1 16 -12 33q5 17 0 31q35 19 39 58q3 21 -5.5 39.5t-24.5 31t-37 14.5q-15 2 -29 -2t-25.5 -12.5t-19.5 -20.5q-16 -26 -12 -49t15.5 -38t27.5 -23q-17 2 -33 14t-22 33
q-9 36 9 75l-22 19h-5.5t-12.5 -2t-16 -5q8 9 16.5 14t13.5 5h5q0 8 -1.5 16t-3.5 14q-6 12 -21 11zM623 663q10 -1 19.5 -7t19.5 -16q1 0 5.5 -4t5.5 -5t4.5 -5t4.5 -6t4 -6t3.5 -6.5t1.5 -7t0 -8t-2 -8t-4 -9.5q-12 -24 -39.5 -32t-48.5 6q-10 8 -17.5 18.5t-11.5 22.5
t-0.5 25.5t13.5 25.5q21 24 42 22zM652 614q-8 -2 -12.5 -10.5t1.5 -15.5q5 -6 15 -5.5t13 7.5t-7 20q-4 4 -10 4zM549.5 531q6.5 0 11.5 -5l14 -14q5 -5 5 -11.5t-5 -10.5l-13 -13q-4 -5 -10.5 -5t-11.5 5l-14 14q-11 11 0 22l13 13q4 5 10.5 5z" />
    <glyph glyph-name="greater-than-equal-solid" unicode="&#xeb76;" 
d="M192 800v-69l529 -219l-529 -219v-69l640 263v50zM192 160v-64h640v64h-640z" />
    <glyph glyph-name="greater-than-solid" unicode="&#xeb77;" 
d="M192 768v-69l529 -251l-529 -251v-69l640 295v50z" />
    <glyph glyph-name="grimace-solid" unicode="&#xeb78;" 
d="M512 864q-172 0 -294 -122t-122 -294t122 -294t294 -122t294 122t122 294t-122 294t-294 122zM512 800q146 0 249 -103t103 -249t-103 -249t-249 -103t-249 103t-103 249t103 249t249 103zM368 576q-20 0 -34 -14t-14 -34t14 -34t34 -14t34 14t14 34t-14 34t-34 14z
M656 576q-20 0 -34 -14t-14 -34t14 -34t34 -14t34 14t14 34t-14 34t-34 14zM384 416q-40 0 -68 -28t-28 -68t28 -68t68 -28h256q40 0 68 28t28 68t-28 68t-68 28h-256zM384 352h32v-64h-32q-13 0 -22.5 9.5t-9.5 22.5t9.5 22.5t22.5 9.5zM480 352h64v-64h-64v64zM608 352h32
q13 0 22.5 -9.5t9.5 -22.5t-9.5 -22.5t-22.5 -9.5h-32v64z" />
    <glyph glyph-name="grimace" unicode="&#xeb79;" 
d="M512 864q-172 0 -294 -122t-122 -294t122 -294t294 -122t294 122t122 294t-122 294t-294 122zM512 800q146 0 249 -103t103 -249t-103 -249t-249 -103t-249 103t-103 249t103 249t249 103zM368 576q-20 0 -34 -14t-14 -34t14 -34t34 -14t34 14t14 34t-14 34t-34 14z
M656 576q-20 0 -34 -14t-14 -34t14 -34t34 -14t34 14t14 34t-14 34t-34 14zM384 416q-40 0 -68 -28t-28 -68t28 -68t68 -28h256q40 0 68 28t28 68t-28 68t-68 28h-256zM384 352h32v-64h-32q-13 0 -22.5 9.5t-9.5 22.5t9.5 22.5t22.5 9.5zM480 352h64v-64h-64v64zM608 352h32
q13 0 22.5 -9.5t9.5 -22.5t-9.5 -22.5t-22.5 -9.5h-32v64z" />
    <glyph glyph-name="grin-alt-solid" unicode="&#xeb7a;" 
d="M512 864q-172 0 -294 -122t-122 -294t122 -294t294 -122t294 122t122 294t-122 294t-294 122zM512 800q146 0 249 -103t103 -249t-103 -249t-249 -103t-249 103t-103 249t103 249t249 103zM368 608q-20 0 -34 -28t-14 -68t14 -68t34 -28t34 28t14 68t-14 68t-34 28z
M656 608q-20 0 -34 -28t-14 -68t14 -68t34 -28t34 28t14 68t-14 68t-34 28zM288 352q2 -7 6.5 -17.5t22.5 -38t41 -48.5t64.5 -38.5t89.5 -17.5t89 16.5t65 40t40.5 47t23.5 40.5l6 16h-448z" />
    <glyph glyph-name="grin-alt" unicode="&#xeb7b;" 
d="M512 864q-172 0 -294 -122t-122 -294t122 -294t294 -122t294 122t122 294t-122 294t-294 122zM512 800q146 0 249 -103t103 -249t-103 -249t-249 -103t-249 103t-103 249t103 249t249 103zM368 608q-20 0 -34 -28t-14 -68t14 -68t34 -28t34 28t14 68t-14 68t-34 28z
M656 608q-20 0 -34 -28t-14 -68t14 -68t34 -28t34 28t14 68t-14 68t-34 28zM288 352q2 -7 6.5 -17.5t22.5 -38t41 -48.5t64.5 -38.5t89.5 -17.5t89 16.5t65 40t40.5 47t23.5 40.5l6 16h-448z" />
    <glyph glyph-name="grin-beam-solid" unicode="&#xeb7c;" 
d="M512 864q-172 0 -294 -122t-122 -294t122 -294t294 -122t294 122t122 294t-122 294t-294 122zM512 800q146 0 249 -103t103 -249t-103 -249t-249 -103t-249 103t-103 249t103 249t249 103zM352 576q-30 0 -59 -9.5t-43 -19.5l-14 -10l40 -50q34 25 76 25q19 0 38 -6.5
t29 -12.5l10 -6l38 50q-3 3 -7 5.5t-16 9t-24.5 11.5t-31 9t-36.5 4zM672 576q-30 0 -59 -9.5t-43 -19.5l-14 -10l40 -50q34 25 76 25q9 0 17.5 -1.5t16 -3.5t14.5 -5t12 -5.5t9 -5t6 -3.5l2 -1l38 50q-6 6 -16.5 12.5t-40 16.5t-58.5 10zM288 352q2 -7 6.5 -17.5t22.5 -38
t41 -48.5t64.5 -38.5t89.5 -17.5t89 16.5t65 40t40.5 47t23.5 40.5l6 16h-448z" />
    <glyph glyph-name="grin-beam-sweat-solid" unicode="&#xeb7d;" 
d="M512 864q-172 0 -294 -122t-122 -294t122 -294t294 -122t294 122t122 294q0 96 -43 183q-7 -17 -18.5 -31t-26.5 -26q24 -61 24 -126q0 -95 -47 -176.5t-128.5 -128.5t-176.5 -47t-176.5 47t-128.5 128.5t-47 176.5t47 176.5t128.5 128.5t176.5 47q21 0 42.5 -2.5
t41 -7.5t39.5 -13q6 14 13 28.5t15 29.5q-74 29 -151 29zM752 864q-2 -3 -4.5 -8t-11 -20t-16 -29.5t-17 -33.5t-16 -34.5t-11 -30.5t-4.5 -23q0 -16 6.5 -30t17 -24.5t25.5 -16.5t31 -6q33 0 56.5 22.5t23.5 54.5q0 19 -20 63.5t-40 80.5zM288 512v-64h160v64h-160z
M576 512v-64h160v64h-160z" />
    <glyph glyph-name="grin-beam-sweat" unicode="&#xeb7e;" 
d="M512 864q-172 0 -294 -122t-122 -294t122 -294t294 -122t294 122t122 294q0 96 -43 183q-7 -17 -18.5 -31t-26.5 -26q24 -61 24 -126q0 -95 -47 -176.5t-128.5 -128.5t-176.5 -47t-176.5 47t-128.5 128.5t-47 176.5t47 176.5t128.5 128.5t176.5 47q21 0 42.5 -2.5
t41 -7.5t39.5 -13q6 14 13 28.5t15 29.5q-74 29 -151 29zM752 864q-2 -3 -4.5 -8t-11 -20t-16 -29.5t-17 -33.5t-16 -34.5t-11 -30.5t-4.5 -23q0 -16 6.5 -30t17 -24.5t25.5 -16.5t31 -6q33 0 56.5 22.5t23.5 54.5q0 19 -20 63.5t-40 80.5zM288 512v-64h160v64h-160z
M576 512v-64h160v64h-160z" />
    <glyph glyph-name="grin-beam" unicode="&#xeb7f;" 
d="M512 864q-172 0 -294 -122t-122 -294t122 -294t294 -122t294 122t122 294t-122 294t-294 122zM512 800q146 0 249 -103t103 -249t-103 -249t-249 -103t-249 103t-103 249t103 249t249 103zM352 576q-30 0 -59 -9.5t-43 -19.5l-14 -10l40 -50q34 25 76 25q19 0 38 -6.5
t29 -12.5l10 -6l38 50q-3 3 -7 5.5t-16 9t-24.5 11.5t-31 9t-36.5 4zM672 576q-30 0 -59 -9.5t-43 -19.5l-14 -10l40 -50q34 25 76 25q9 0 17.5 -1.5t16 -3.5t14.5 -5t12 -5.5t9 -5t6 -3.5l2 -1l38 50q-6 6 -16.5 12.5t-40 16.5t-58.5 10zM288 352q2 -7 6.5 -17.5t22.5 -38
t41 -48.5t64.5 -38.5t89.5 -17.5t89 16.5t65 40t40.5 47t23.5 40.5l6 16h-448z" />
    <glyph glyph-name="grin-hearts-solid" unicode="&#xeb80;" 
d="M512 832q-159 0 -271.5 -112.5t-112.5 -271.5t112.5 -271.5t271.5 -112.5t271.5 112.5t112.5 271.5t-112.5 271.5t-271.5 112.5zM512 768q133 0 226.5 -93.5t93.5 -226.5t-93.5 -226.5t-226.5 -93.5t-226.5 93.5t-93.5 226.5t93.5 226.5t226.5 93.5zM336 608
q-20 0 -34 -14t-14 -34q0 -5 1 -9q2 -11 9 -20q11 -18 32.5 -39t37.5 -32l16 -12q11 7 27 18.5t42.5 41t26.5 52.5q0 20 -14 34t-34 14t-34 -14t-14 -34q0 20 -14 34t-34 14zM592 608q-20 0 -34 -14t-14 -34q0 -5 1 -9q2 -11 9 -20q11 -18 32.5 -39t37.5 -32l16 -12
q64 41 87 84q9 17 9 28q0 20 -14 34t-34 14t-34 -14t-14 -34q0 20 -14 34t-34 14zM346 352l-55 -32q34 -58 92.5 -93t128.5 -35t128.5 35t92.5 93l-55 32q-25 -44 -69.5 -70t-96.5 -26t-96.5 26t-69.5 70z" />
    <glyph glyph-name="grin-hearts" unicode="&#xeb81;" 
d="M512 832q-159 0 -271.5 -112.5t-112.5 -271.5t112.5 -271.5t271.5 -112.5t271.5 112.5t112.5 271.5t-112.5 271.5t-271.5 112.5zM512 768q133 0 226.5 -93.5t93.5 -226.5t-93.5 -226.5t-226.5 -93.5t-226.5 93.5t-93.5 226.5t93.5 226.5t226.5 93.5zM336 608
q-20 0 -34 -14t-14 -34q0 -5 1 -9q2 -11 9 -20q11 -18 32.5 -39t37.5 -32l16 -12q11 7 27 18.5t42.5 41t26.5 52.5q0 20 -14 34t-34 14t-34 -14t-14 -34q0 20 -14 34t-34 14zM592 608q-20 0 -34 -14t-14 -34q0 -5 1 -9q2 -11 9 -20q11 -18 32.5 -39t37.5 -32l16 -12
q64 41 87 84q9 17 9 28q0 20 -14 34t-34 14t-34 -14t-14 -34q0 20 -14 34t-34 14zM346 352l-55 -32q34 -58 92.5 -93t128.5 -35t128.5 35t92.5 93l-55 32q-25 -44 -69.5 -70t-96.5 -26t-96.5 26t-69.5 70z" />
    <glyph glyph-name="grin-solid" unicode="&#xeb82;" 
d="M512 864q-172 0 -294 -122t-122 -294t122 -294t294 -122t294 122t122 294t-122 294t-294 122zM512 800q146 0 249 -103t103 -249t-103 -249t-249 -103t-249 103t-103 249t103 249t249 103zM368 576q-20 0 -34 -14t-14 -34t14 -34t34 -14t34 14t14 34t-14 34t-34 14z
M656 576q-20 0 -34 -14t-14 -34t14 -34t34 -14t34 14t14 34t-14 34t-34 14zM288 352q2 -7 6.5 -17.5t22.5 -38t41 -48.5t64.5 -38.5t89.5 -17.5t89 16.5t65 40t40.5 47t23.5 40.5l6 16h-448z" />
    <glyph glyph-name="grin-squint-solid" unicode="&#xeb83;" 
d="M512 864q-172 0 -294 -122t-122 -294t122 -294t294 -122t294 122t122 294t-122 294t-294 122zM512 800q146 0 249 -103t103 -249t-103 -249t-249 -103t-249 103t-103 249t103 249t249 103zM322 603l-36 -54l56 -37l-56 -37l36 -54l136 91zM702 603l-136 -91l136 -91
l36 54l-56 37l56 37zM288 352q2 -7 6.5 -17.5t22.5 -38t41 -48.5t64.5 -38.5t89.5 -17.5t89 16.5t65 40t40.5 47t23.5 40.5l6 16h-448z" />
    <glyph glyph-name="grin-squint-tears-solid" unicode="&#xeb84;" 
d="M512 864q-172 0 -294 -122t-122 -294q0 -91 37.5 -172t104.5 -140q9 26 28 61q-50 49 -78 114t-28 137q0 146 103 249t249 103q72 0 137 -28t114 -78q36 19 61 28q-59 67 -140 104.5t-172 37.5zM880 672q-12 0 -40 -12t-50 -24l-22 -12q86 -48 112 -48q20 0 34 14t14 34
t-14 34t-34 14zM617 663l-128 -128l46 -46l128 128zM754 530l-324 -324q40 -14 82 -14q106 0 181 75t75 181q0 42 -14 82zM921 520q-20 -8 -41 -8q-10 0 -22 3q6 -34 6 -67q0 -146 -103 -249t-249 -103q-33 0 -67 6q3 -12 3 -22q0 -21 -8 -41q38 -7 72 -7q113 0 209 55.5
t151.5 151.5t55.5 209q0 34 -7 72zM425 471l-128 -128l46 -46l128 128zM336 192q-48 -86 -48 -112q0 -20 14 -34t34 -14t34 14t14 34q0 26 -48 112z" />
    <glyph glyph-name="grin-squint-tears" unicode="&#xeb85;" 
d="M512 864q-172 0 -294 -122t-122 -294q0 -91 37.5 -172t104.5 -140q9 26 28 61q-50 49 -78 114t-28 137q0 146 103 249t249 103q72 0 137 -28t114 -78q36 19 61 28q-59 67 -140 104.5t-172 37.5zM880 672q-12 0 -40 -12t-50 -24l-22 -12q86 -48 112 -48q20 0 34 14t14 34
t-14 34t-34 14zM617 663l-128 -128l46 -46l128 128zM754 530l-324 -324q40 -14 82 -14q106 0 181 75t75 181q0 42 -14 82zM921 520q-20 -8 -41 -8q-10 0 -22 3q6 -34 6 -67q0 -146 -103 -249t-249 -103q-33 0 -67 6q3 -12 3 -22q0 -21 -8 -41q38 -7 72 -7q113 0 209 55.5
t151.5 151.5t55.5 209q0 34 -7 72zM425 471l-128 -128l46 -46l128 128zM336 192q-48 -86 -48 -112q0 -20 14 -34t34 -14t34 14t14 34q0 26 -48 112z" />
    <glyph glyph-name="grin-squint" unicode="&#xeb86;" 
d="M512 864q-172 0 -294 -122t-122 -294t122 -294t294 -122t294 122t122 294t-122 294t-294 122zM512 800q146 0 249 -103t103 -249t-103 -249t-249 -103t-249 103t-103 249t103 249t249 103zM322 603l-36 -54l56 -37l-56 -37l36 -54l136 91zM702 603l-136 -91l136 -91
l36 54l-56 37l56 37zM288 352q2 -7 6.5 -17.5t22.5 -38t41 -48.5t64.5 -38.5t89.5 -17.5t89 16.5t65 40t40.5 47t23.5 40.5l6 16h-448z" />
    <glyph glyph-name="grin-stars-solid" unicode="&#xeb87;" 
d="M512 864q-172 0 -294 -122t-122 -294t122 -294t294 -122t294 122t122 294t-122 294t-294 122zM512 800q146 0 249 -103t103 -249t-103 -249t-249 -103t-249 103t-103 249t103 249t249 103zM384 631l-28 -62l-68 -8l51 -46l-14 -67l59 34l59 -34l-14 67l51 46l-68 8z
M640 631l-28 -62l-68 -8l51 -46l-14 -67l59 34l59 -34l-14 67l51 46l-68 8zM346 352l-55 -32q8 -14 18 -27t22 -25t25 -22q26 -21 56 -34q15 -6 32 -11q33 -9 68 -9q106 0 181 76q12 12 22 25t18 27l-55 32q-22 -38 -58.5 -63t-81.5 -31q-13 -2 -26 -2t-26 1.5t-25 5.5
q-25 7 -46 19q-11 7 -21 14q-19 16 -34 35q-8 10 -14 21z" />
    <glyph glyph-name="grin-stars" unicode="&#xeb88;" 
d="M512 864q-172 0 -294 -122t-122 -294t122 -294t294 -122t294 122t122 294t-122 294t-294 122zM512 800q146 0 249 -103t103 -249t-103 -249t-249 -103t-249 103t-103 249t103 249t249 103zM384 631l-28 -62l-68 -8l51 -46l-14 -67l59 34l59 -34l-14 67l51 46l-68 8z
M640 631l-28 -62l-68 -8l51 -46l-14 -67l59 34l59 -34l-14 67l51 46l-68 8zM346 352l-55 -32q8 -14 18 -27t22 -25t25 -22q26 -21 56 -34q15 -6 32 -11q33 -9 68 -9q106 0 181 76q12 12 22 25t18 27l-55 32q-22 -38 -58.5 -63t-81.5 -31q-13 -2 -26 -2t-26 1.5t-25 5.5
q-25 7 -46 19q-11 7 -21 14q-19 16 -34 35q-8 10 -14 21z" />
    <glyph glyph-name="grin-tears-solid" unicode="&#xeb89;" 
d="M512 864q-56 0 -109.5 -15t-99 -41.5t-84 -64.5t-65.5 -83t-42 -98.5t-16 -109.5q28 11 65 22q10 137 111 231.5t240 94.5q55 0 106.5 -16.5t93.5 -46.5t74.5 -70t52.5 -89.5t24 -103.5q37 -11 65 -22q-1 83 -34 159.5t-89 132t-132.5 88t-160.5 32.5zM288 512v-64h160
v64h-160zM576 512v-64h160v64h-160zM192 416q-95 -27 -114 -46q-14 -14 -14 -34t14 -34q9 -9 21.5 -12.5t25 0t21.5 12.5t20.5 37.5t18.5 52t7 24.5zM832 416q27 -95 46 -114q9 -9 21.5 -12.5t25 0t21.5 12.5q14 14 14 34t-14 34q-4 4 -12.5 8.5t-18.5 9t-21.5 9t-22.5 8
t-19.5 6t-14.5 3.5zM288 352q2 -7 6.5 -17.5t23 -38t41.5 -48.5t64 -38.5t89 -17.5t89 16.5t65 40t40.5 47t23.5 40.5l6 16h-448zM206 275q-8 -11 -14 -18q-15 -15 -36 -24q56 -92 150.5 -146.5t205.5 -54.5t205.5 54.5t150.5 146.5q-21 9 -36 24q-6 7 -14 18
q-46 -81 -127.5 -130t-178.5 -49t-178.5 49t-127.5 130z" />
    <glyph glyph-name="grin-tears" unicode="&#xeb8a;" 
d="M512 864q-56 0 -109.5 -15t-99 -41.5t-84 -64.5t-65.5 -83t-42 -98.5t-16 -109.5q28 11 65 22q10 137 111 231.5t240 94.5q55 0 106.5 -16.5t93.5 -46.5t74.5 -70t52.5 -89.5t24 -103.5q37 -11 65 -22q-1 83 -34 159.5t-89 132t-132.5 88t-160.5 32.5zM288 512v-64h160
v64h-160zM576 512v-64h160v64h-160zM192 416q-95 -27 -114 -46q-14 -14 -14 -34t14 -34q9 -9 21.5 -12.5t25 0t21.5 12.5t20.5 37.5t18.5 52t7 24.5zM832 416q27 -95 46 -114q9 -9 21.5 -12.5t25 0t21.5 12.5q14 14 14 34t-14 34q-4 4 -12.5 8.5t-18.5 9t-21.5 9t-22.5 8
t-19.5 6t-14.5 3.5zM288 352q2 -7 6.5 -17.5t23 -38t41.5 -48.5t64 -38.5t89 -17.5t89 16.5t65 40t40.5 47t23.5 40.5l6 16h-448zM206 275q-8 -11 -14 -18q-15 -15 -36 -24q56 -92 150.5 -146.5t205.5 -54.5t205.5 54.5t150.5 146.5q-21 9 -36 24q-6 7 -14 18
q-46 -81 -127.5 -130t-178.5 -49t-178.5 49t-127.5 130z" />
    <glyph glyph-name="grin-tongue-solid" unicode="&#xeb8b;" 
d="M512 864q-172 0 -294 -122t-122 -294t122 -294t294 -122t294 122t122 294t-122 294t-294 122zM512 800q146 0 249 -103t103 -249t-103 -249t-249 -103t-249 103t-103 249t103 249t249 103zM368 576q-20 0 -34 -14t-14 -34t14 -34t34 -14t34 14t14 34t-14 34t-34 14z
M656 576q-20 0 -34 -14t-14 -34t14 -34t34 -14t34 14t14 34t-14 34t-34 14zM376 405l-49 -42q43 -50 121 -68v-39q0 -26 19 -45t45 -19t45 19t19 45v39q78 18 120 68l-49 42q-20 -25 -56.5 -39t-78.5 -14t-78.5 14t-57.5 39z" />
    <glyph glyph-name="grin-tongue-squint-solid" unicode="&#xeb8c;" 
d="M512 864q-172 0 -294 -122t-122 -294t122 -294t294 -122t294 122t122 294t-122 294t-294 122zM512 800q146 0 249 -103t103 -249t-103 -249t-249 -103t-249 103t-103 249t103 249t249 103zM352 576q-30 0 -59 -9.5t-43 -19.5l-14 -10l40 -50q34 25 76 25q19 0 38 -6.5
t29 -12.5l10 -6l38 50q-3 3 -7 5.5t-16 9t-24.5 11.5t-31 9t-36.5 4zM672 576q-30 0 -59 -9.5t-43 -19.5l-14 -10l40 -50q34 25 76 25q9 0 17.5 -1.5t16 -3.5t14.5 -5t12 -5.5t9 -5t6 -3.5l2 -1l38 50q-6 6 -16.5 12.5t-40 16.5t-58.5 10zM376 405l-49 -42q43 -50 121 -68
v-39q0 -26 19 -45t45 -19t45 19t19 45v39q78 18 120 68l-49 42q-20 -25 -56.5 -39t-78.5 -14t-78.5 14t-57.5 39z" />
    <glyph glyph-name="grin-tongue-squint" unicode="&#xeb8d;" 
d="M512 864q-172 0 -294 -122t-122 -294t122 -294t294 -122t294 122t122 294t-122 294t-294 122zM512 800q146 0 249 -103t103 -249t-103 -249t-249 -103t-249 103t-103 249t103 249t249 103zM352 576q-30 0 -59 -9.5t-43 -19.5l-14 -10l40 -50q34 25 76 25q19 0 38 -6.5
t29 -12.5l10 -6l38 50q-3 3 -7 5.5t-16 9t-24.5 11.5t-31 9t-36.5 4zM672 576q-30 0 -59 -9.5t-43 -19.5l-14 -10l40 -50q34 25 76 25q9 0 17.5 -1.5t16 -3.5t14.5 -5t12 -5.5t9 -5t6 -3.5l2 -1l38 50q-6 6 -16.5 12.5t-40 16.5t-58.5 10zM376 405l-49 -42q43 -50 121 -68
v-39q0 -26 19 -45t45 -19t45 19t19 45v39q78 18 120 68l-49 42q-20 -25 -56.5 -39t-78.5 -14t-78.5 14t-57.5 39z" />
    <glyph glyph-name="grin-tongue-wink-solid" unicode="&#xeb8e;" 
d="M512 864q-172 0 -294 -122t-122 -294t122 -294t294 -122t294 122t122 294t-122 294t-294 122zM512 800q146 0 249 -103t103 -249t-103 -249t-249 -103t-249 103t-103 249t103 249t249 103zM368 576q-20 0 -34 -14t-14 -34t14 -34t34 -14t34 14t14 34t-14 34t-34 14z
M576 544v-64h160v64h-160zM376 405l-49 -42q43 -50 121 -68v-39q0 -26 19 -45t45 -19t45 19t19 45v39q78 18 120 68l-49 42q-20 -25 -56.5 -39t-78.5 -14t-78.5 14t-57.5 39z" />
    <glyph glyph-name="grin-tongue-wink" unicode="&#xeb8f;" 
d="M512 864q-172 0 -294 -122t-122 -294t122 -294t294 -122t294 122t122 294t-122 294t-294 122zM512 800q146 0 249 -103t103 -249t-103 -249t-249 -103t-249 103t-103 249t103 249t249 103zM368 576q-20 0 -34 -14t-14 -34t14 -34t34 -14t34 14t14 34t-14 34t-34 14z
M576 544v-64h160v64h-160zM376 405l-49 -42q43 -50 121 -68v-39q0 -26 19 -45t45 -19t45 19t19 45v39q78 18 120 68l-49 42q-20 -25 -56.5 -39t-78.5 -14t-78.5 14t-57.5 39z" />
    <glyph glyph-name="grin-tongue" unicode="&#xeb90;" 
d="M512 864q-172 0 -294 -122t-122 -294t122 -294t294 -122t294 122t122 294t-122 294t-294 122zM512 800q146 0 249 -103t103 -249t-103 -249t-249 -103t-249 103t-103 249t103 249t249 103zM368 576q-20 0 -34 -14t-14 -34t14 -34t34 -14t34 14t14 34t-14 34t-34 14z
M656 576q-20 0 -34 -14t-14 -34t14 -34t34 -14t34 14t14 34t-14 34t-34 14zM376 405l-49 -42q43 -50 121 -68v-39q0 -26 19 -45t45 -19t45 19t19 45v39q78 18 120 68l-49 42q-20 -25 -56.5 -39t-78.5 -14t-78.5 14t-57.5 39z" />
    <glyph glyph-name="grin-wink-solid" unicode="&#xeb91;" 
d="M512 832q-159 0 -271.5 -112.5t-112.5 -271.5t112.5 -271.5t271.5 -112.5t271.5 112.5t112.5 271.5t-112.5 271.5t-271.5 112.5zM512 768q133 0 226.5 -93.5t93.5 -226.5t-93.5 -226.5t-226.5 -93.5t-226.5 93.5t-93.5 226.5t93.5 226.5t226.5 93.5zM368 576
q-20 0 -34 -14t-14 -34t14 -34t34 -14t34 14t14 34t-14 34t-34 14zM576 544v-64h160v64h-160zM671 415q0 -73 -53 -118q-48 -41 -106 -41q-86 0 -150 63l-45 -46q82 -81 195 -81q82 0 148 56q75 64 75 167h-64z" />
    <glyph glyph-name="grin-wink" unicode="&#xeb92;" 
d="M512 832q-159 0 -271.5 -112.5t-112.5 -271.5t112.5 -271.5t271.5 -112.5t271.5 112.5t112.5 271.5t-112.5 271.5t-271.5 112.5zM512 768q133 0 226.5 -93.5t93.5 -226.5t-93.5 -226.5t-226.5 -93.5t-226.5 93.5t-93.5 226.5t93.5 226.5t226.5 93.5zM368 576
q-20 0 -34 -14t-14 -34t14 -34t34 -14t34 14t14 34t-14 34t-34 14zM576 544v-64h160v64h-160zM671 415q0 -73 -53 -118q-48 -41 -106 -41q-86 0 -150 63l-45 -46q82 -81 195 -81q82 0 148 56q75 64 75 167h-64z" />
    <glyph glyph-name="grin" unicode="&#xeb93;" 
d="M512 864q-172 0 -294 -122t-122 -294t122 -294t294 -122t294 122t122 294t-122 294t-294 122zM512 800q146 0 249 -103t103 -249t-103 -249t-249 -103t-249 103t-103 249t103 249t249 103zM368 576q-20 0 -34 -14t-14 -34t14 -34t34 -14t34 14t14 34t-14 34t-34 14z
M656 576q-20 0 -34 -14t-14 -34t14 -34t34 -14t34 14t14 34t-14 34t-34 14zM288 352q2 -7 6.5 -17.5t22.5 -38t41 -48.5t64.5 -38.5t89.5 -17.5t89 16.5t65 40t40.5 47t23.5 40.5l6 16h-448z" />
    <glyph glyph-name="grip-horizontal-solid" unicode="&#xeb94;" 
d="M64 736v-256h256v256h-256zM384 736v-256h256v256h-256zM704 736v-256h256v256h-256zM128 672h128v-128h-128v128zM448 672h128v-128h-128v128zM768 672h128v-128h-128v128zM64 416v-256h256v256h-256zM384 416v-256h256v256h-256zM704 416v-256h256v256h-256zM128 352
h128v-128h-128v128zM448 352h128v-128h-128v128zM768 352h128v-128h-128v128z" />
    <glyph glyph-name="grip-lines-solid" unicode="&#xeb95;" 
d="M96 608v-64h832v64h-832zM96 352v-64h832v64h-832z" />
    <glyph glyph-name="grip-lines-vertical-solid" unicode="&#xeb96;" 
d="M352 864v-832h64v832h-64zM608 864v-832h64v832h-64z" />
    <glyph glyph-name="grip-vertical-solid" unicode="&#xeb97;" 
d="M224 896v-256h256v256h-256zM544 896v-256h256v256h-256zM288 832h128v-128h-128v128zM608 832h128v-128h-128v128zM224 576v-256h256v256h-256zM544 576v-256h256v256h-256zM288 512h128v-128h-128v128zM608 512h128v-128h-128v128zM224 256v-256h256v256h-256zM544 256
v-256h256v256h-256zM288 192h128v-128h-128v128zM608 192h128v-128h-128v128z" />
    <glyph glyph-name="gripfire" unicode="&#xeb98;" 
d="M502 928q0 -3 0.5 -6.5t0.5 -6.5v-6q0 -32 -12 -64.5t-31.5 -61t-44.5 -59.5t-51.5 -59t-51.5 -61.5t-44.5 -65.5t-31.5 -71t-12 -78q0 -33 11 -62.5t34.5 -58t40.5 -45t50 -44.5l3 -3l2.5 -2.5l2.5 -2.5q86 -62 117.5 -98.5t31.5 -61.5q0 -11 -2.5 -25t-2.5 -18
q27 36 28 90q0 16 -5.5 35t-10.5 30.5t-21 35.5t-20.5 30.5t-25.5 35.5q-7 11 -32 39.5t-36.5 50t-11.5 45.5q0 39 20.5 79.5t49.5 76t58.5 72t50 79.5t20.5 86q0 41 -17 83.5t-33.5 65.5t-23.5 26zM620 672l8 -14q2 -5 3.5 -10.5t2 -11t0.5 -11.5q0 -24 -11.5 -55t-28 -59
t-33 -51.5t-29.5 -40.5t-14 -19q-6 -14 -6 -31t7.5 -37t15.5 -32t11 -12q4 0 30 28.5t53.5 70.5t29.5 70q17 -32 17 -64q0 -22 -8.5 -49.5t-20 -51t-23.5 -43.5t-20 -32l-9 -11q0 -16 31 -59.5t38 -43.5l6 5q130 134 130 264q0 23 -4 48q-8 45 -32.5 91t-52.5 79t-53 55
t-38 27z" />
    <glyph glyph-name="grunt" unicode="&#xeb99;" 
d="M548 864q-33 -12 -47 -28.5t-17 -37.5q-4 3 -6.5 10t-3.5 12.5t-1 13.5v9q-12 -2 -29.5 -26t-16.5 -53q-2 0 -10 -3q-7 11 -16.5 21t-27.5 23.5t-36 19.5q-20 6 -39 6q-47 0 -75 -28l-13 -16l20 -4q1 0 9 -2t20 -9.5t18 -16.5q1 -3 2 -7t1 -11q1 -3 0.5 -6t-1.5 -8
q0 -2 -0.5 -3t-0.5 -3v-3q-19 -1 -32 -8q-9 -4 -15 -11t-8 -16q-4 -13 1.5 -29.5t10 -24t7.5 -10.5q2 -3 2.5 -14.5t-0.5 -25.5t-5 -21q0 -2 -7 -7l-1.5 -1t-1.5 -2q-25 -19 -25 -45q0 -13 5.5 -23.5t17 -20t19.5 -14.5t23 -13l14 -7l5 -5t6.5 -8.5t6 -13t2.5 -16.5
q0 -57 -6 -101q-35 29 -40 71q-2 -1 -5 -4t-11 -13.5t-12 -23t-7.5 -32.5t1.5 -42q12 -65 77 -89q4 -10 10.5 -19.5t16 -20t21 -18.5t27.5 -14t34 -8q39 -32 104 -32q64 0 103 32q41 4 68.5 27.5t40.5 52.5q65 24 76 89q4 24 2 42.5t-8 32t-12 22.5t-11 14l-5 4
q-5 -41 -40 -71q-6 45 -6 102q0 15 7 27t13 15q1 1 14 7q9 6 14.5 9t14.5 8.5t14.5 11t11 12t8 14.5t2.5 16q0 12 -4.5 22t-9 14t-11.5 10q-2 1 -3 2q-6 5 -7 7q-4 8 -5 22t-0.5 25.5t2.5 13.5q2 3 7 11t10.5 24t1.5 29q-2 9 -8 16t-15 12q-6 3 -14 5t-18 2v4.5t-1 5.5
q-2 8 -2 13q2 14 4 18q6 10 18 17t20 9.5t9 2.5l20 4l-13 15q-1 2 -8.5 8t-26.5 13t-40 7q-20 0 -39 -6q-26 -8 -47 -27t-34 -37q-7 3 -15 5q-2 5 -1.5 11t1.5 12t2.5 12t4 11t4 8.5t2.5 5.5l1 2l-2 0.5t-7.5 -0.5t-11.5 -3t-15 -7.5t-18 -14.5q-13 34 -3 61zM298 807
q15 0 29 -5q33 -10 61 -52q-6 -3 -7 -3q-5 -3 -12 -6q-9 19 -33 36q-21 14 -47 14q-4 0 -8 -0.5t-7 -0.5q-8 5 -16 9l6 2t7 2l8 2t9 1.5t10 0.5zM725 807q21 0 40 -9q-8 -3 -15 -8q-4 1 -7.5 1h-7.5q-26 0 -47 -14q-24 -17 -33 -37q-6 4 -12 6l-8 4q28 42 62 52q13 5 28 5z
M731 773q-1 -1 -2 -2.5t-2 -2.5q-6 -9 -7 -29q-2 -20 -7 -28q-4 -1 -7 -1.5t-6 -1.5t-6 -1q-3 4 -7.5 8.5l-9.5 9.5q7 25 22 36q14 11 32 12zM293 773q18 -1 32 -12q15 -11 22 -36q-11 -10 -17 -18q-2 0 -3.5 0.5t-3.5 1l-4 1l-4 1t-4 0.5q-5 7 -7 27.5t-7 28.5zM512 747
q68 0 121 -25q15 -8 23 -14t12 -11q-51 -23 -87 -75l-5 -10l9 7q62 48 105 61q30 10 53 10q15 0 25 -5q8 -4 10 -13q5 -18 -15 -43q-1 -1 -2 -3q-1 13 -1 23q-4 -11 -6.5 -33.5t-1.5 -36.5q3 -21 9.5 -39t11.5 -25l5 -8q-1 2 -2 8.5t-3 16.5l2 -2t2 -1l1 -1l3 -3t3 -2.5
t3 -3t2 -4t1.5 -4.5t1 -5.5t0.5 -7.5q0 -8 -3.5 -15t-12 -13.5t-15 -10.5t-18.5 -10q-3 -2 -13 -8q-29 -16 -32 -55q-2 -40 6 -123q-25 -10 -64 -11q-6 11 -9 21q-4 10 -20 49.5t-23 51.5q10 -71 38 -146q-8 2 -19 2h-190q-10 0 -19 -2q28 76 38 146q-14 -23 -43 -101
q-3 -10 -9 -21q-39 1 -64 11q8 83 5 123q-2 39 -31 55q-2 2 -13 8q-12 6 -18.5 10t-15 10.5t-12 13.5t-3.5 15q0 19 14 30l1 1q3 2 4 3q-3 -21 -5 -25q2 3 5.5 8.5t10.5 24t10 39.5q1 11 0 23.5t-3 26t-6 20.5q1 -10 0 -23q-1 1 -1.5 2l-0.5 1q-20 25 -15 43q2 9 10 13
q10 5 25 5q24 0 53 -10q44 -14 104 -61l1 -1l9 -6l-5 10q-36 52 -87 75q8 11 35 25q18 8 37 13.5t40 8.5t44 3zM468 587q24 -28 44 -28q6 0 12.5 3t12 7t10 8.5t7 7.5l2.5 3q-21 -13 -44 -14q-11 0 -22 3.5t-22 9.5zM314 586q-13 -1 -25 -4q10 -2 22 -6q-10 -5 -11 -20
q-1 -7 1 -15t5 -12l2 -4q2 17 7 27q1 -34 20 -55q5 -6 15 -11t22.5 -9t27 -2t25.5 12q3 -8 4 -14q2 -5 2 -11t-1 -11t-2 -9.5t-2 -7.5l-1 -2q3 3 7 8.5t10 19.5t6 25q13 0 23.5 9t10.5 22q-1 0 -2 -0.5t-5 -1.5t-7.5 -1.5t-9 -0.5t-11 2t-11.5 6t-12 11q-49 56 -110 55z
M710 585q-26 1 -51 -10.5t-37 -22t-22 -22.5q-8 -8 -16.5 -13t-16 -5.5t-13 0.5t-9.5 2l-3 2q0 -9 5 -16t13 -11t16 -4q0 -6 1 -11.5t3 -10.5t4.5 -10t5 -8.5t4.5 -6.5t3.5 -4.5l1.5 -1.5q-1 3 -2 7t-3 16t1 18q1 5 4 14q16 -14 35 -12.5t33.5 8t20.5 14.5q6 6 10 13
t6.5 14.5t3.5 14t1 13.5q5 -11 7 -27q0 1 0.5 2t2.5 4.5t3 7t2 8.5t0 9q-2 15 -11 19q5 2 10.5 4t11.5 3q-13 3 -25 3zM346 559q52 -30 73 -60q-33 -19 -62 3q-8 5 -11.5 16.5t-3 22t3.5 18.5zM678 559q5 -10 2.5 -29.5t-13.5 -27.5q-30 -22 -62 -3q9 14 29 30t44 30z
M251 302q12 -38 46 -55t74 -18q-4 -8 -11 -17l-2 -2q-18 -19 -7 -52q-29 1 -54.5 13t-39.5 35q-14 22 -14 57.5t8 38.5zM773 302q8 -4 8 -39t-14 -57q-14 -23 -39.5 -35t-54.5 -13q5 16 3.5 29t-10.5 23l-2 2q-7 10 -11 17q40 1 74 18t46 55zM415 209h193q12 0 20.5 -2
t13 -4.5t6.5 -5.5q11 -12 2 -37q-37 -105 -138 -106q-101 1 -138 106q-9 25 2 37q10 12 39 12zM564 184q-10 0 -14 -4.5t-2 -10.5q6 -15 21 -32q4 -3 8.5 -5t9.5 -2q3 0 5.5 0.5t5 1.5l5 2t3.5 3q17 14 23 29q3 8 -1.5 13t-15.5 5h-48zM412 184q-11 0 -15.5 -5t-1.5 -13
q6 -15 23 -30q8 -7 19 -7t18 7q14 16 21 32q2 7 -2 11.5t-14 4.5h-48zM331 136q14 -3 30 -4q10 -23 20 -38q-30 13 -50 42zM693 136q-20 -29 -50 -42q10 15 20 38q8 0 15.5 1t14.5 3z" />
    <glyph glyph-name="guitar-solid" unicode="&#xeb9a;" 
d="M851 862q-5 0 -10 -5l-24 -24l-10 10l-14 -13l11 -11l-14 -13l-10 10l-14 -14l10 -10l-23 -24q-10 -10 0 -20l-134 -134q-47 38 -92 51q-86 25 -145 -34q-25 -25 -32 -63q-5 -30 -29 -51.5t-56 -23.5q-70 -5 -117 -52q-60 -60 -50.5 -155t83.5 -169q85 -85 193 -85
q79 0 131 52q47 47 52 117q2 32 23 56t51 29q39 7 64 32q59 59 34 145q-7 24 -27 57l-47 -47q8 -16 12 -28q15 -50 -17 -82q-11 -11 -29 -14q-52 -9 -88 -50t-40 -94q-3 -46 -33 -76q-41 -41 -109.5 -31.5t-123.5 64.5t-65 124t31 110q30 30 76 33q53 4 94 40t50 88
q3 18 14 29q22 22 52 22q13 0 30 -5q31 -9 64 -34l-107 -107q-8 2 -18 2q-33 0 -56.5 -23.5t-23.5 -56.5t23.5 -56.5t56.5 -23.5t56.5 23.5t23.5 56.5q0 3 -2 14l291 292q11 -10 21 0l24 24l10 -10l13 13l-10 10l14 14l7 -14l13 14l-10 10l24 24q11 11 0 21l-61 61
q-5 5 -11 5zM848 823l14 -14l-62 -61l-13 13zM875 799l14 -14l-62 -61l-13 14zM291 330l-45 -45l103 -103l45 45z" />
    <glyph glyph-name="gulp" unicode="&#xeb9b;" 
d="M709 928q-2 0 -3 -1l-119 -141l-24 -84q-23 1 -51 1q-31 0 -60 -1t-53.5 -3t-45 -4.5t-35 -6t-22.5 -7t-8 -7.5q0 -14 70 -21.5t154 -7.5t154 7.5t70 21.5q0 19 -131 27l19 68l111 134q2 2 -1 7t-9 11q-9 7 -16 7zM554 670l-1 -2q0 -5 22 -5q8 0 14.5 1.5t6.5 4.5
q3 -1 4 -2t1 -2q0 -7 -27 -7q-11 0 -18.5 2t-7.5 5t6 5zM733 659q-44 -24 -220.5 -24t-221.5 23l26 -231q10 31 31 61t47 40q19 8 36 -1q7 -4 13 -11t6 -11q2 -8 -1 -12.5t-7 -4.5q-6 0 -13 14q-12 20 -33 5q-17 -12 -33 -38.5t-24 -51.5q-6 -24 -1 -37q4 -7 10 -7
q11 0 30 19q18 17 25 30l10 28q2 6 6.5 8t8.5 -0.5t4 -7.5q0 -8 -2 -15t-7.5 -20.5t-9.5 -28.5l-15 -48q-4 -13 -12 -13q-4 0 -5 2q-3 3 -2 11t14 47l-12 -12q-24 -22 -42 -22q-8 0 -15 4l15 -146q2 -5 24 -12.5t62.5 -13.5t84.5 -6t84.5 6t62.5 13.5t24 12.5l21 174
q-1 0 -4.5 -3.5t-4.5 -4t-4.5 -3.5t-5 -4t-4.5 -3.5t-5 -3.5l-5 -2.5l-5 -2.5q-5 -2 -10 -3t-10.5 -0.5t-9.5 4t-4 9.5q0 3 2 7t5 8.5t6.5 8t8 8.5t6.5 8q2 2 3.5 4.5t3.5 5.5t2 5q0 8 -15 0l-8 -5q-8 -6 -17 -18q-3 -5 -6.5 -10.5t-5 -9t-4.5 -8.5q-12 -26 -18 -41
q-3 -8 -5 -13.5t-2.5 -7t-1 -2.5t-1.5 -2q-2 -6 -7 -9q-7 -3 -12 1q-3 1 -3 7q0 2 1 5q0 2 29 63l2 5l-1 -1q-14 -14 -27 -19q-5 -2 -9.5 -3t-8.5 0t-6.5 3.5t-4.5 6.5v2q-17 -14 -30.5 -12t-8.5 27q-16 -27 -43 -27q-13 0 -17 9q-4 10 9 44q6 14 14 30q5 11 15 8q2 0 3 -1
q5 -3 0 -13q-15 -28 -18 -39q-4 -16 3 -16t14 4q11 9 21 25q8 14 11 23q1 4 4 9l2 4t3 3.5t5 1.5l6 -3q4 -4 1 -12q-2 -5 -7 -15.5t-7 -15.5q-5 -14 -5 -22t13 -2q7 3 13 8q2 8 51 126q2 3 4 5t4 3t4 1l6 -2q5 -4 2 -12q0 -1 -0.5 -2t-2.5 -5.5t-5 -11.5q-6 -13 -15 -34
t-11 -25q-4 -10 -9.5 -23.5t-7.5 -17.5q-1 -9 2 -11q13 0 45 32l2 1q3 8 3 10q6 16 10 21q3 3 6 3q8 0 8 -8q0 -6 -2 -11l4 4l4 4q14 12 26 14t18 -2.5t6 -11.5q0 -14 -27 -43q-9 -11 -9 -12q0 -3 4 -3q3 0 15 8q8 6 32 26zM350 191l29 -47l11 -146q0 -13 35.5 -21.5
t86.5 -8.5t86.5 8.5t35.5 21.5l9 148l27 45q-37 -15 -97.5 -21t-122 -0.5t-100.5 21.5z" />
    <glyph glyph-name="h-square-solid" unicode="&#xeb9c;" 
d="M160 800v-704h704v704h-704zM224 736h576v-576h-576v576zM352 640v-384h64v160h192v-160h64v384h-64v-160h-192v160h-64z" />
    <glyph glyph-name="hacker-news-square" unicode="&#xeb9d;" 
d="M160 800v-704h704v704h-704zM224 736h576v-576h-576v576zM352 640l128 -224v-160h64v160l128 224h-64l-96 -168l-96 168h-64z" />
    <glyph glyph-name="hacker-news" unicode="&#xeb9e;" 
d="M160 800v-704h704v704h-704zM224 736h576v-576h-576v576zM368 608l112 -192v-160h64v160l112 192h-64l-80 -137l-80 137h-64z" />
    <glyph glyph-name="hackerrank" unicode="&#xeb9f;" 
d="M512 864q-20 0 -76.5 -26t-116 -60t-110 -69.5t-60.5 -52.5q-13 -23 -18.5 -115.5t0 -185t18.5 -115.5q10 -17 60.5 -52.5t110 -69.5t116 -60t76.5 -26q27 0 110 41.5t161 92.5t92 74q21 36 21 208t-21 208q-14 23 -92 74t-161 92.5t-110 41.5zM512 800q19 -4 65 -26.5
t94.5 -50.5t91.5 -56t56 -43q13 -40 13 -176t-13 -176q-28 -31 -147 -99t-160 -77q-41 9 -160 77t-147 99q-8 26 -11.5 101t0 150t11.5 101q28 31 147 99t160 77zM416 672l-64 -64h32v-320h64v128h128v-128h-32l64 -64l64 64h-32v288h-64v-96h-128v128h32z" />
    <glyph glyph-name="hamburger-solid" unicode="&#xeba0;" 
d="M352 800q-79 0 -135.5 -56.5t-56.5 -135.5v-8l-36 -48q16 -12 36 -18v-79q-32 -29 -32 -71t32 -71v-89q0 -26 19 -45t45 -19h576q26 0 45 19t19 45v89q32 29 32 71t-32 71v79q20 6 36 18l-36 49v7q0 79 -56.5 135.5t-135.5 56.5h-320zM352 736h32q0 -13 9.5 -22.5
t22.5 -9.5t22.5 9.5t9.5 22.5h224q53 0 90.5 -37.5t37.5 -90.5v-16q-11 3 -23 12l-17 12l-19 -11l-24 -14q-36 -22 -72 0l-24 14l-15 9l-16 -7l-46 -24q-32 -16 -63 0l-47 24l-16 7l-15 -9l-24 -14q-36 -22 -72 0l-24 14l-19 11l-17 -12q-12 -9 -23 -12v16q0 53 37.5 90.5
t90.5 37.5zM352 704q-13 0 -22.5 -9.5t-9.5 -22.5t9.5 -22.5t22.5 -9.5t22.5 9.5t9.5 22.5t-9.5 22.5t-22.5 9.5zM480 704q-13 0 -22.5 -9.5t-9.5 -22.5t9.5 -22.5t22.5 -9.5t22.5 9.5t9.5 22.5t-9.5 22.5t-22.5 9.5zM261 544l13 -8q69 -41 138 0l9 6l31 -16q60 -30 120 0
l31 16l9 -6q69 -41 138 0l13 8q16 -8 37 -12v-52h-576v52q21 4 37 12zM224 416h576q14 0 23 -9t9 -23t-9 -23t-23 -9h-576q-14 0 -23 9t-9 23t9 23t23 9zM224 288h576v-64h-576v64z" />
    <glyph glyph-name="hammer-solid" unicode="&#xeba1;" 
d="M226 896l80 -58q68 -49 118 -106t64.5 -83.5t23.5 -49.5l-29 -30l-22 -22l-397 -412l136 -136l23 24l397 411l10 12l3 2l31 11l6 -6l-12 -29l-9 -20l106 -106l204 204l-91 91l-15 14l-19 -7l-29 -11l-7 7l10 32l4 13l-6 12q-34 63 -110 123q-152 120 -371 120h-99z
M419 824q140 -21 238 -98q59 -47 86 -93l-12 -37l-5 -18l13 -14l51 -51l20 8l28 11l30 -30l-113 -113l-30 30l12 29l9 20l-16 15l-36 36l-14 15l-20 -7l-57 -23l-6 -2l-23 22l-23 23l37 37l-7 19q-5 12 -15.5 33t-52 79.5t-94.5 108.5zM506 502l46 -46l-353 -365l-45 45z
" />
    <glyph glyph-name="hamsa-solid" unicode="&#xeba2;" 
d="M512 864q-40 0 -72 -22.5t-47 -57.5q-13 8 -27.5 12t-29.5 4q-46 0 -79 -33t-33 -79v-272h-48q-33 0 -56.5 -23.5t-23.5 -56.5q0 -34 25 -58l158 -152q32 -30 69 -51t79 -32t85 -11q33 0 64.5 6t61 18t56.5 29.5t51 40.5l158 152q25 24 25 58q0 33 -23.5 56.5t-56.5 23.5
h-48v272q0 46 -33 79t-79 33q-15 0 -29.5 -4t-27.5 -12q-15 35 -47 57.5t-72 22.5zM512 800q26 0 45 -19t19 -45v-256h64v208q0 20 14 34t34 14t34 -14t14 -34v-336h112q7 0 11.5 -4.5t4.5 -11.5q0 -4 -1.5 -7t-3.5 -5l-159 -152q-79 -76 -188 -76t-189 76l-158 152
q-5 5 -5 12t4.5 11.5t11.5 4.5h112v336q0 20 14 34t34 14t34 -14t14 -34v-208h64v256q0 26 19 45t45 19zM512 416q-20 0 -40 -4.5t-36.5 -12.5t-31 -17t-27 -20t-21.5 -19.5t-16 -17.5t-10 -13t-5 -6l-11 -18l11 -18q4 -5 10 -13t25 -27t39 -33t51 -25.5t62 -11.5t62 11.5
t51 25.5t39 33t25 27t10 13l11 18l-11 18q-4 5 -10 13t-25 27t-39 33t-51 25.5t-62 11.5zM512.5 352q62.5 0 118.5 -64q-22 -25 -52.5 -44.5t-66.5 -19.5q-63 0 -119 64q57 64 119.5 64zM512 320q-13 0 -22.5 -9.5t-9.5 -22.5t9.5 -22.5t22.5 -9.5t22.5 9.5t9.5 22.5
t-9.5 22.5t-22.5 9.5z" />
    <glyph glyph-name="hand-holding-heart-solid" unicode="&#xeba3;" 
d="M464 864q-46 0 -79 -33t-33 -79q0 -31 20 -64t48 -58t56 -45t48 -31l20 -10q8 4 21 11t46 29.5t58 46t46 57t21 64.5q0 46 -33 79t-79 33q-47 0 -80 -34q-8 8 -17 14t-19 10.5t-21 7t-23 2.5zM464 800q20 0 34 -14l17 -18h58l17 18q14 14 34 14t34 -14t14 -34
q0 -28 -38.5 -66t-89.5 -69q-51 31 -89.5 69t-38.5 66q0 20 14 34t34 14zM615 513l-52 -37l83 -119l-115 -80l-81 42q86 43 87 44q23 14 33.5 39.5t2.5 51.5q-9 32 -38.5 48t-60.5 7l-228 -64l-150 -103l60 -247l162 58l228 -118l380 263l-36 52l-348 -241l-220 114
l-121 -44l-33 135l106 73l218 60q15 5 19 -11q4 -11 -7 -18q-3 -2 -139 -70l-56 -28l227 -118l200 139z" />
    <glyph glyph-name="hand-holding-solid" unicode="&#xeba4;" 
d="M336 384q-14 0 -28.5 -2t-21.5 -4l-8 -3l-182 -69l64 -179l158 61l228 -126l394 164l-24 58l-366 -151l-228 125l-124 -48l-20 58l121 47q15 5 37 5q44 0 72 -26q55 -47 93 -59q39 -12 139 -12v64q-91 0 -120 9q-25 8 -69 46l-1 1q-46 41 -114 41z" />
    <glyph glyph-name="hand-holding-usd-solid" unicode="&#xeba5;" 
d="M544 832v-38q-3 -1 -6.5 -2.5t-6.5 -3.5q-5 -2 -9 -5t-7.5 -6t-7.5 -7q-10 -10 -17 -23q-3 -6 -5.5 -13t-3.5 -14.5t-1 -15.5l2 -19q4 -19 15 -34q5 -8 11.5 -14.5t14.5 -11.5q11 -8 24.5 -12.5t28.5 -4.5q3 0 6.5 -0.5t6.5 -1.5q5 -3 9.5 -7.5t7.5 -9.5q1 -3 1.5 -6.5
t0.5 -6.5q0 -7 -2.5 -13t-7 -10t-9.5 -7q-3 -1 -6.5 -1.5t-6.5 -0.5h-3.5t-3 0.5l-3 1t-3.5 0.5q-5 3 -9.5 7.5t-7.5 9.5q-1 3 -1.5 6.5t-0.5 6.5h-64q0 -8 1 -15.5t4 -14.5q7 -20 22 -36q6 -6 11.5 -10t12 -7.5t13.5 -6.5v-38h64v38q28 10 46 34.5t18 55.5q0 34 -22 60.5
t-55 33.5q-5 1 -9.5 1.5t-9.5 0.5h-3.5t-3 0.5l-3 1t-3.5 0.5q-5 3 -9.5 7.5t-7.5 9.5q-2 6 -2 13q0 3 0.5 6.5t1.5 6.5q3 5 7 10q9 9 23 9q7 0 13 -2.5t10 -6.5t6.5 -10t2.5 -13h64v5.5t-0.5 5t-0.5 4.5q-1 8 -4 15q-14 44 -59 60v38h-64zM336 384q-14 0 -28.5 -2t-21.5 -4
l-8 -3l-182 -69l64 -179l158 61l228 -126l394 164l-24 58l-366 -151l-228 125l-124 -48l-20 58l121 47q12 5 37 5q44 0 72 -26q55 -47 93 -59q39 -12 139 -12v64q-91 0 -120 9q-25 8 -69 46l-1 1q-46 41 -114 41z" />
    <glyph glyph-name="hand-lizard-solid" unicode="&#xeba6;" 
d="M458 832q-43 0 -80.5 -21t-58.5 -58l-169 -291q-22 -38 -22 -81v-317h320v138q94 28 141 86h202q31 0 50 25t12 55l-4 15q-11 43 -45.5 70t-78.5 27h-220l-16 64h204q44 0 78.5 27t45.5 70l11 42q30 10 49 32.5t19 52.5v64h-438zM458 768h374q0 -14 -9 -23t-23 -9h-288
l-32 -64h279l-4 -16q-5 -21 -22.5 -34.5t-39.5 -13.5h-204q-31 0 -50 -25t-12 -55l16 -64q5 -21 22.5 -34.5t39.5 -13.5h220q22 0 39.5 -13.5t22.5 -34.5l4 -16h-231l-10 -13q-5 -7 -15.5 -18.5t-46.5 -34.5t-78 -31l-26 -5v-122h-192v253q0 27 13 49l170 290q28 48 83 48z
" />
    <glyph glyph-name="hand-lizard" unicode="&#xeba7;" 
d="M458 832q-43 0 -80.5 -21t-58.5 -58l-169 -291q-22 -38 -22 -81v-317h320v138q94 28 141 86h202q31 0 50 25t12 55l-4 15q-11 43 -45.5 70t-78.5 27h-220l-16 64h204q44 0 78.5 27t45.5 70l11 42q30 10 49 32.5t19 52.5v64h-438zM458 768h374q0 -14 -9 -23t-23 -9h-288
l-32 -64h279l-4 -16q-5 -21 -22.5 -34.5t-39.5 -13.5h-204q-31 0 -50 -25t-12 -55l16 -64q5 -21 22.5 -34.5t39.5 -13.5h220q22 0 39.5 -13.5t22.5 -34.5l4 -16h-231l-10 -13q-5 -7 -15.5 -18.5t-46.5 -34.5t-78 -31l-26 -5v-122h-192v253q0 27 13 49l170 290q28 48 83 48z
" />
    <glyph glyph-name="hand-middle-finger-solid" unicode="&#xeba8;" 
d="M512 896q-39 0 -67.5 -28.5t-28.5 -67.5v-166q-17 6 -32 6q-39 0 -67.5 -28.5t-28.5 -67.5v-117l-67 -86q-31 -40 -29 -90.5t35 -88.5l76 -86q67 -76 168 -76h169q93 0 158.5 65.5t65.5 158.5v288q0 39 -28.5 67.5t-67.5 28.5q-24 0 -47 -13q-29 45 -81 45q-15 0 -32 -6
v166q0 39 -28.5 67.5t-67.5 28.5zM512 832q14 0 23 -9t9 -23v-320h64v64q0 14 9 23t23 9t23 -9t9 -23v-64h64v32q0 14 9 23t23 9t23 -9t9 -23v-288q0 -67 -46.5 -113.5t-113.5 -46.5h-169q-73 0 -120 54l-76 87q-18 21 -19 47.5t16 48.5l16 21v-34h64v256q0 14 9 23t23 9
t23 -9t9 -23v-64h64v320q0 14 9 23t23 9z" />
    <glyph glyph-name="hand-paper-solid" unicode="&#xeba9;" 
d="M512 896q-33 0 -58.5 -20.5t-33.5 -51.5q-19 8 -36 8q-39 0 -67.5 -28.5t-28.5 -67.5v-344l-28 28q-28 28 -68 28t-68 -28t-28 -68t28 -68l217 -217q67 -67 151 -67h148q93 0 158.5 65.5t65.5 158.5v384q0 39 -28.5 67.5t-67.5 28.5q-15 0 -32 -6v38q0 39 -28.5 67.5
t-67.5 28.5q-17 0 -36 -8q-8 31 -33.5 51.5t-58.5 20.5zM512 832q14 0 23 -9t9 -23v-320h64v256q0 14 9 23t23 9t23 -9t9 -23v-256h64v128q0 14 9 23t23 9t23 -9t9 -23v-384q0 -67 -46.5 -113.5t-113.5 -46.5h-148q-56 0 -105 49l-218 216q-10 10 -10 23t10 23t23 10t23 -10
l82 -83l55 -55v499q0 14 9 23t23 9t23 -9t9 -23v-256h64v320q0 14 9 23t23 9z" />
    <glyph glyph-name="hand-paper" unicode="&#xebaa;" 
d="M512 896q-33 0 -58.5 -20.5t-33.5 -51.5q-19 8 -36 8q-39 0 -67.5 -28.5t-28.5 -67.5v-344l-28 28q-28 28 -68 28t-68 -28t-28 -68t28 -68l217 -217q67 -67 151 -67h148q93 0 158.5 65.5t65.5 158.5v384q0 39 -28.5 67.5t-67.5 28.5q-15 0 -32 -6v38q0 39 -28.5 67.5
t-67.5 28.5q-17 0 -36 -8q-8 31 -33.5 51.5t-58.5 20.5zM512 832q14 0 23 -9t9 -23v-320h64v256q0 14 9 23t23 9t23 -9t9 -23v-256h64v128q0 14 9 23t23 9t23 -9t9 -23v-384q0 -67 -46.5 -113.5t-113.5 -46.5h-148q-56 0 -105 49l-218 216q-10 10 -10 23t10 23t23 10t23 -10
l82 -83l55 -55v499q0 14 9 23t23 9t23 -9t9 -23v-256h64v320q0 14 9 23t23 9z" />
    <glyph glyph-name="hand-peace-solid" unicode="&#xebab;" 
d="M480 896q-39 0 -67.5 -28.5t-28.5 -67.5v-49l-4 13q-11 38 -46.5 56.5t-73.5 7.5t-56.5 -46.5t-7.5 -73.5l83 -270q-12 -5 -19 -9q-54 -32 -66 -100q-8 -44 6 -91l25 -80q22 -70 81 -114t133 -44h169q93 0 158.5 65.5t65.5 158.5v324q0 1 -1 3q-5 60 -59 82
q-35 14 -72 -1q-17 32 -49 45q-37 15 -75 -2v125q0 39 -28.5 67.5t-67.5 28.5zM480 832q14 0 23 -9t9 -23v-211l-33 -84q-7 -17 -7 -37l-131 -17l-83 276q-4 13 2 24.5t19 15.5t24.5 -2.5t15.5 -19.5l66 -219l36 11h27v263q0 14 9 23t23 9zM614 620q7 0 13 -2q13 -5 18 -17
t0 -25l-34 -86l-13 -33q0 -1 -1.5 -2t-1.5 -2q-27 21 -58 21v3q0 3 1 4l48 119q8 20 28 20zM735 576q8 0 13 -2q20 -8 20 -30q0 -7 -2 -12l-36 -89q-5 -13 -17 -18t-25 0q-12 5 -17 17t0 25l34 85q0 1 0.5 2t0.5 2q5 13 17 18q5 2 12 2zM528 411q13 3 23.5 -3.5t13.5 -19.5
q3 -12 -2 -21q-6 -11 -24 -17l-155 -40q-15 -4 -21 -18t1 -28l29 -53q6 -12 19 -15.5t24.5 3t15 19t-2.5 24.5l-9 16l118 31q1 0 3 1q39 13 57 44q15 25 12 56q15 -16 35 -24q28 -11 55.5 -5t47.5 26v-163q0 -67 -46.5 -113.5t-113.5 -46.5h-169q-53 0 -95 31.5t-58 81.5
l-24 80q-9 31 -4 61q7 39 35 56l24 9h2l206 27q1 0 3 1z" />
    <glyph glyph-name="hand-peace" unicode="&#xebac;" 
d="M480 896q-39 0 -67.5 -28.5t-28.5 -67.5v-49l-4 13q-11 38 -46.5 56.5t-73.5 7.5t-56.5 -46.5t-7.5 -73.5l83 -270q-12 -5 -19 -9q-54 -32 -66 -100q-8 -44 6 -91l25 -80q22 -70 81 -114t133 -44h169q93 0 158.5 65.5t65.5 158.5v324q0 1 -1 3q-5 60 -59 82
q-35 14 -72 -1q-17 32 -49 45q-37 15 -75 -2v125q0 39 -28.5 67.5t-67.5 28.5zM480 832q14 0 23 -9t9 -23v-211l-33 -84q-7 -17 -7 -37l-131 -17l-83 276q-4 13 2 24.5t19 15.5t24.5 -2.5t15.5 -19.5l66 -219l36 11h27v263q0 14 9 23t23 9zM614 620q7 0 13 -2q13 -5 18 -17
t0 -25l-34 -86l-13 -33q0 -1 -1.5 -2t-1.5 -2q-27 21 -58 21v3q0 3 1 4l48 119q8 20 28 20zM735 576q8 0 13 -2q20 -8 20 -30q0 -7 -2 -12l-36 -89q-5 -13 -17 -18t-25 0q-12 5 -17 17t0 25l34 85q0 1 0.5 2t0.5 2q5 13 17 18q5 2 12 2zM528 411q13 3 23.5 -3.5t13.5 -19.5
q3 -12 -2 -21q-6 -11 -24 -17l-155 -40q-15 -4 -21 -18t1 -28l29 -53q6 -12 19 -15.5t24.5 3t15 19t-2.5 24.5l-9 16l118 31q1 0 3 1q39 13 57 44q15 25 12 56q15 -16 35 -24q28 -11 55.5 -5t47.5 26v-163q0 -67 -46.5 -113.5t-113.5 -46.5h-169q-53 0 -95 31.5t-58 81.5
l-24 80q-9 31 -4 61q7 39 35 56l24 9h2l206 27q1 0 3 1z" />
    <glyph glyph-name="hand-point-down-solid" unicode="&#xebad;" 
d="M320 896v-179l-215 -217l-9 -10v-13q0 -38 25 -65.5t60 -27.5q54 0 95 30q10 8 20 20l24 6v-344q0 -39 28.5 -67.5t67.5 -28.5t67.5 28.5t28.5 67.5v114l244 53q33 7 54.5 33.5t21.5 60.5v539h-512zM384 832h384v-96h-384v96zM365 672h403v-315q0 -12 -7 -21t-18 -11
l-270 -57l-25 -6v-166q0 -14 -9 -23t-23 -9t-23 9t-9 23v427l-40 -10l-72 -19l-13 -4l-6 -11q-3 -6 -14 -14q-23 -17 -58 -17q-14 0 -18 19z" />
    <glyph glyph-name="hand-point-down" unicode="&#xebae;" 
d="M320 896v-179l-215 -217l-9 -10v-13q0 -38 25 -65.5t60 -27.5q54 0 95 30q10 8 20 20l24 6v-344q0 -39 28.5 -67.5t67.5 -28.5t67.5 28.5t28.5 67.5v114l244 53q33 7 54.5 33.5t21.5 60.5v539h-512zM384 832h384v-96h-384v96zM365 672h403v-315q0 -12 -7 -21t-18 -11
l-270 -57l-25 -6v-166q0 -14 -9 -23t-23 -9t-23 9t-9 23v427l-40 -10l-72 -19l-13 -4l-6 -11q-3 -6 -14 -14q-23 -17 -58 -17q-14 0 -18 19z" />
    <glyph glyph-name="hand-point-left-solid" unicode="&#xebaf;" 
d="M541 864q-38 0 -65.5 -25t-27.5 -60q0 -54 30 -95q8 -10 20 -20l6 -24h-344q-39 0 -67.5 -28.5t-28.5 -67.5t28.5 -67.5t67.5 -28.5h114l53 -244q7 -33 33.5 -54.5t60.5 -21.5h539v512h-179l-217 215l-10 9h-13zM531 797l205 -202v-403h-315q-12 0 -21 7t-11 18l-57 270
l-6 25h-166q-14 0 -23 9t-9 23t9 23t23 9h427l-10 40l-19 72l-4 13l-11 6q-6 3 -14 14q-17 23 -17 58q0 14 19 18zM800 576h96v-384h-96v384z" />
    <glyph glyph-name="hand-point-left" unicode="&#xebb0;" 
d="M541 864q-38 0 -65.5 -25t-27.5 -60q0 -54 30 -95q8 -10 20 -20l6 -24h-344q-39 0 -67.5 -28.5t-28.5 -67.5t28.5 -67.5t67.5 -28.5h114l53 -244q7 -33 33.5 -54.5t60.5 -21.5h539v512h-179l-217 215l-10 9h-13zM531 797l205 -202v-403h-315q-12 0 -21 7t-11 18l-57 270
l-6 25h-166q-14 0 -23 9t-9 23t9 23t23 9h427l-10 40l-19 72l-4 13l-11 6q-6 3 -14 14q-17 23 -17 58q0 14 19 18zM800 576h96v-384h-96v384z" />
    <glyph glyph-name="hand-point-right-solid" unicode="&#xebb1;" 
d="M470 864l-10 -9l-217 -215h-179v-512h539q34 0 60.5 21.5t33.5 54.5l53 244h114q39 0 67.5 28.5t28.5 67.5t-28.5 67.5t-67.5 28.5h-344l6 24q12 10 20 20q30 41 30 95q0 35 -27.5 60t-65.5 25h-13zM493 797q19 -4 19 -18q0 -35 -17 -58l-14 -14l-11 -6l-4 -13l-19 -72
l-10 -40h427q14 0 23 -9t9 -23t-9 -23t-23 -9h-166l-6 -25l-57 -270q-2 -11 -11 -18t-21 -7h-315v403zM128 576h96v-384h-96v384z" />
    <glyph glyph-name="hand-point-right" unicode="&#xebb2;" 
d="M470 864l-10 -9l-217 -215h-179v-512h539q34 0 60.5 21.5t33.5 54.5l53 244h114q39 0 67.5 28.5t28.5 67.5t-28.5 67.5t-67.5 28.5h-344l6 24q12 10 20 20q30 41 30 95q0 35 -27.5 60t-65.5 25h-13zM493 797q19 -4 19 -18q0 -35 -17 -58l-14 -14l-11 -6l-4 -13l-19 -72
l-10 -40h427q14 0 23 -9t9 -23t-9 -23t-23 -9h-166l-6 -25l-57 -270q-2 -11 -11 -18t-21 -7h-315v403zM128 576h96v-384h-96v384z" />
    <glyph glyph-name="hand-point-up-solid" unicode="&#xebb3;" 
d="M416 896q-39 0 -67.5 -28.5t-28.5 -67.5v-344l-24 6q-10 12 -20 20q-41 30 -95 30q-35 0 -60 -27.5t-25 -65.5v-13l9 -10l215 -217v-179h512v539q0 34 -21.5 60.5t-54.5 33.5l-244 53v114q0 39 -28.5 67.5t-67.5 28.5zM416 832q14 0 23 -9t9 -23v-166l25 -6l270 -57
q11 -2 18 -11t7 -21v-315h-403l-202 205q4 19 18 19q35 0 58 -17l14 -14l6 -11l13 -4l72 -19l40 -10v427q0 14 9 23t23 9zM384 160h384v-96h-384v96z" />
    <glyph glyph-name="hand-point-up" unicode="&#xebb4;" 
d="M416 896q-39 0 -67.5 -28.5t-28.5 -67.5v-344l-24 6q-10 12 -20 20q-41 30 -95 30q-35 0 -60 -27.5t-25 -65.5v-13l9 -10l215 -217v-179h512v539q0 34 -21.5 60.5t-54.5 33.5l-244 53v114q0 39 -28.5 67.5t-67.5 28.5zM416 832q14 0 23 -9t9 -23v-166l25 -6l270 -57
q11 -2 18 -11t7 -21v-315h-403l-202 205q4 19 18 19q35 0 58 -17l14 -14l6 -11l13 -4l72 -19l40 -10v427q0 14 9 23t23 9zM384 160h384v-96h-384v96z" />
    <glyph glyph-name="hand-pointer-solid" unicode="&#xebb5;" 
d="M416 896q-39 0 -67.5 -28.5t-28.5 -67.5v-378l-21 22l-8 7q-28 28 -67 28t-67 -28t-28 -67t28 -68l262 -259l2 -1l1 -2q72 -54 160 -54h55q109 0 185.5 76.5t76.5 185.5v250q0 39 -28.5 67.5t-67.5 28.5q-18 0 -38 -9q-8 32 -34 52.5t-59 20.5q-36 0 -64 -25
q-28 25 -64 25q-15 0 -32 -6v134q0 39 -28.5 67.5t-67.5 28.5zM416 832q13 0 22.5 -9.5t9.5 -22.5v-352h64v128q0 13 9.5 22.5t22.5 9.5t22.5 -9.5t9.5 -22.5v-128h64v128q0 13 9.5 22.5t22.5 9.5t22.5 -9.5t9.5 -22.5v-128h67v64q0 13 9.5 22.5t22.5 9.5t22.5 -9.5
t9.5 -22.5v-250q0 -83 -57.5 -140.5t-140.5 -57.5h-55q-65 0 -121 42l-259 256q-22 22 0 44t44 0l138 -138v532q0 13 9.5 22.5t22.5 9.5z" />
    <glyph glyph-name="hand-pointer" unicode="&#xebb6;" 
d="M416 896q-39 0 -67.5 -28.5t-28.5 -67.5v-378l-21 22l-8 7q-28 28 -67 28t-67 -28t-28 -67t28 -68l262 -259l2 -1l1 -2q72 -54 160 -54h55q109 0 185.5 76.5t76.5 185.5v250q0 39 -28.5 67.5t-67.5 28.5q-18 0 -38 -9q-8 32 -34 52.5t-59 20.5q-36 0 -64 -25
q-28 25 -64 25q-15 0 -32 -6v134q0 39 -28.5 67.5t-67.5 28.5zM416 832q13 0 22.5 -9.5t9.5 -22.5v-352h64v128q0 13 9.5 22.5t22.5 9.5t22.5 -9.5t9.5 -22.5v-128h64v128q0 13 9.5 22.5t22.5 9.5t22.5 -9.5t9.5 -22.5v-128h67v64q0 13 9.5 22.5t22.5 9.5t22.5 -9.5
t9.5 -22.5v-250q0 -83 -57.5 -140.5t-140.5 -57.5h-55q-65 0 -121 42l-259 256q-22 22 0 44t44 0l138 -138v532q0 13 9.5 22.5t22.5 9.5z" />
    <glyph glyph-name="hand-rock-solid" unicode="&#xebb7;" 
d="M480 768q-52 0 -81 -45q-23 13 -47 13q-39 0 -67.5 -28.5t-28.5 -67.5v-117l-67 -86q-31 -40 -29 -90.5t35 -88.5l76 -86q67 -76 168 -76h169q93 0 158.5 65.5t65.5 158.5v288q0 39 -28.5 67.5t-67.5 28.5q-24 0 -47 -13q-29 45 -81 45q-24 0 -47 -13q-29 45 -81 45z
M480 704q14 0 23 -9t9 -23v-96h64v64q0 14 9 23t23 9t23 -9t9 -23v-64h64v32q0 14 9 23t23 9t23 -9t9 -23v-288q0 -67 -46.5 -113.5t-113.5 -46.5h-169q-73 0 -120 54l-76 87q-18 21 -19 47.5t16 48.5l16 21v-34h64v256q0 14 9 23t23 9t23 -9t9 -23v-64h64v96q0 14 9 23
t23 9z" />
    <glyph glyph-name="hand-rock" unicode="&#xebb8;" 
d="M480 768q-52 0 -81 -45q-23 13 -47 13q-39 0 -67.5 -28.5t-28.5 -67.5v-117l-67 -86q-31 -40 -29 -90.5t35 -88.5l76 -86q67 -76 168 -76h169q93 0 158.5 65.5t65.5 158.5v288q0 39 -28.5 67.5t-67.5 28.5q-24 0 -47 -13q-29 45 -81 45q-24 0 -47 -13q-29 45 -81 45z
M480 704q14 0 23 -9t9 -23v-96h64v64q0 14 9 23t23 9t23 -9t9 -23v-64h64v32q0 14 9 23t23 9t23 -9t9 -23v-288q0 -67 -46.5 -113.5t-113.5 -46.5h-169q-73 0 -120 54l-76 87q-18 21 -19 47.5t16 48.5l16 21v-34h64v256q0 14 9 23t23 9t23 -9t9 -23v-64h64v96q0 14 9 23
t23 9z" />
    <glyph glyph-name="hand-scissors-solid" unicode="&#xebb9;" 
d="M365 737q-30 1 -63 -9l-80 -25q-70 -22 -114 -81t-44 -133v-169q0 -93 65.5 -158.5t158.5 -65.5h317q30 -1 55.5 15.5t36.5 44.5q14 35 -1 72q32 17 45 49q15 37 -2 75h125q39 0 67.5 28.5t28.5 67.5t-28.5 67.5t-67.5 28.5h-49l13 4q38 11 56.5 46.5t7.5 73.5
t-46.5 56.5t-73.5 7.5l-270 -83q-5 12 -9 19q-32 54 -100 66q-17 3 -28 3zM804 672q21 -2 27 -23q4 -13 -2.5 -24.5t-19.5 -15.5l-219 -66l11 -36v-27h263q14 0 23 -9t9 -23t-9 -23t-23 -9h-211l-84 33q-18 7 -37 7l-17 131l276 84q6 2 13 1zM364 671q12 0 18 -1
q39 -7 56 -35l9 -24v-2l27 -206q0 -1 1 -3q3 -13 -3.5 -23.5t-19.5 -13.5q-12 -3 -21 2q-11 6 -17 24l-40 155q-4 15 -18 21t-28 -1l-53 -29q-12 -6 -15.5 -19t3 -24.5t19 -15t24.5 2.5l16 9l31 -118q0 -1 1 -3q13 -39 44 -57q25 -15 56 -12q-16 -15 -24 -35
q-11 -28 -5 -55.5t26 -47.5h-163q-67 0 -113.5 46.5t-46.5 113.5v169q0 53 31.5 95t81.5 58l80 24q16 5 43 5zM538 391h3q3 0 4 -1l119 -48q13 -5 18 -17t0 -24q-5 -13 -17 -18t-25 0l-119 47q-1 0 -2 1.5t-2 1.5q21 27 21 58zM518 259q8 0 13 -2l43 -17l42 -17l4 -1
q13 -5 18 -17t0 -25q-8 -19 -29 -20q-7 0 -13 2l-89 36q-13 5 -18 17t0 25q5 12 17 17q5 2 12 2z" />
    <glyph glyph-name="hand-scissors" unicode="&#xebba;" 
d="M365 737q-30 1 -63 -9l-80 -25q-70 -22 -114 -81t-44 -133v-169q0 -93 65.5 -158.5t158.5 -65.5h317q30 -1 55.5 15.5t36.5 44.5q14 35 -1 72q32 17 45 49q15 37 -2 75h125q39 0 67.5 28.5t28.5 67.5t-28.5 67.5t-67.5 28.5h-49l13 4q38 11 56.5 46.5t7.5 73.5
t-46.5 56.5t-73.5 7.5l-270 -83q-5 12 -9 19q-32 54 -100 66q-17 3 -28 3zM804 672q21 -2 27 -23q4 -13 -2.5 -24.5t-19.5 -15.5l-219 -66l11 -36v-27h263q14 0 23 -9t9 -23t-9 -23t-23 -9h-211l-84 33q-18 7 -37 7l-17 131l276 84q6 2 13 1zM364 671q12 0 18 -1
q39 -7 56 -35l9 -24v-2l27 -206q0 -1 1 -3q3 -13 -3.5 -23.5t-19.5 -13.5q-12 -3 -21 2q-11 6 -17 24l-40 155q-4 15 -18 21t-28 -1l-53 -29q-12 -6 -15.5 -19t3 -24.5t19 -15t24.5 2.5l16 9l31 -118q0 -1 1 -3q13 -39 44 -57q25 -15 56 -12q-16 -15 -24 -35
q-11 -28 -5 -55.5t26 -47.5h-163q-67 0 -113.5 46.5t-46.5 113.5v169q0 53 31.5 95t81.5 58l80 24q16 5 43 5zM538 391h3q3 0 4 -1l119 -48q13 -5 18 -17t0 -24q-5 -13 -17 -18t-25 0l-119 47q-1 0 -2 1.5t-2 1.5q21 27 21 58zM518 259q8 0 13 -2l43 -17l42 -17l4 -1
q13 -5 18 -17t0 -25q-8 -19 -29 -20q-7 0 -13 2l-89 36q-13 5 -18 17t0 25q5 12 17 17q5 2 12 2z" />
    <glyph glyph-name="hand-spock-solid" unicode="&#xebbb;" 
d="M397 896q-11 0 -19 -2q-32 -7 -52.5 -32.5t-22.5 -57.5q-19 3 -36 -1q-39 -9 -60.5 -43t-12.5 -72l62 -269v-27l-28 28q-28 28 -68 28t-68 -28t-28 -68t28 -68l217 -217q67 -67 151 -67h148q93 0 158.5 65.5t65.5 158.5v224l30 151q8 39 -14.5 72t-61.5 41q-17 3 -32 1
l7 36q8 39 -14.5 72t-61.5 41t-71.5 -14.5t-40.5 -61.5l-32 -152l-49 187l-1 1q-8 33 -34.5 54t-59.5 20zM392 831q13 3 24 -4t14 -21l80 -307l6 -24h57l6 26l56 273q3 13 14 20.5t24 4.5t20.5 -14t4.5 -24l-58 -292l63 -12l34 166q3 13 13.5 21t23.5 5t20.5 -14t4.5 -24
l-30 -157l-1 -3v-227q0 -67 -46.5 -113.5t-113.5 -46.5h-148q-56 0 -105 49l-218 216q-10 10 -10 23t10 23t23 10t23 -10l82 -83l55 -55v186l-1 3l-62 276q-3 13 4 24.5t20 14.5t24 -4.5t14 -20.5l57 -254l63 14l-57 256l-14 61q-3 13 4 24t20 14z" />
    <glyph glyph-name="hand-spock" unicode="&#xebbc;" 
d="M397 896q-11 0 -19 -2q-32 -7 -52.5 -32.5t-22.5 -57.5q-19 3 -36 -1q-39 -9 -60.5 -43t-12.5 -72l62 -269v-27l-28 28q-28 28 -68 28t-68 -28t-28 -68t28 -68l217 -217q67 -67 151 -67h148q93 0 158.5 65.5t65.5 158.5v224l30 151q8 39 -14.5 72t-61.5 41q-17 3 -32 1
l7 36q8 39 -14.5 72t-61.5 41t-71.5 -14.5t-40.5 -61.5l-32 -152l-49 187l-1 1q-8 33 -34.5 54t-59.5 20zM392 831q13 3 24 -4t14 -21l80 -307l6 -24h57l6 26l56 273q3 13 14 20.5t24 4.5t20.5 -14t4.5 -24l-58 -292l63 -12l34 166q3 13 13.5 21t23.5 5t20.5 -14t4.5 -24
l-30 -157l-1 -3v-227q0 -67 -46.5 -113.5t-113.5 -46.5h-148q-56 0 -105 49l-218 216q-10 10 -10 23t10 23t23 10t23 -10l82 -83l55 -55v186l-1 3l-62 276q-3 13 4 24.5t20 14.5t24 -4.5t14 -20.5l57 -254l63 14l-57 256l-14 61q-3 13 4 24t20 14z" />
    <glyph glyph-name="hands-helping-solid" unicode="&#xebbd;" 
d="M672 863l-21 -23q-55 -60 -118 -90q-11 -5 -29 -11.5t-31.5 -13t-25.5 -15.5q-67 -51 -87 -138q-52 -11 -86 -41q-13 -11 -57 -63q-3 -3 -13.5 -15.5t-15 -17.5t-14.5 -15t-17 -15t-18 -12t-23 -11l-20 -8v-342h610q45 2 74 50q19 31 27 71l30 210l1 3v3q-1 27 -21 57
l36 107l57 86l16 23l-21 19l-210 182zM674 775l167 -145l-44 -65l-3 -3l-1 -5l-29 -86q-26 11 -48 10h-2l-234 -1v-124q-5 -41 -48 -58l-6 -1.5t-4.5 -0.5t-5.5 -1v186q-2 42 3.5 73.5t18 51.5t22 30t26.5 23q4 3 13.5 7t27.5 11.5t33 14.5q55 26 114 83zM354 500
q0 -3 -1 -9.5t-1 -10.5v-256h32q34 0 71 15q33 13 58.5 40.5t30.5 68.5v68l173 1q22 1 38 -13.5t18 -36.5l-1 -3q0 -3 -0.5 -7t-0.5 -5h-131v-64h123q-2 -14 -5.5 -34t-4.5 -30h-113v-64h103q-6 -24 -18 -44q-12 -19 -23 -20h-542v239q47 25 105 91q43 49 51 56q7 6 38 18z
" />
    <glyph glyph-name="hands-solid" unicode="&#xebbe;" 
d="M96 800v-365l9 -10l183 -183v-178h192v192v12t-3.5 27.5t-11 38t-24 40t-39.5 36.5l-1 1q-12 8 -50 31t-54 35q-41 32 -41 67h-64q0 -67 65 -118q20 -16 60.5 -40t49.5 -29q23 -14 35 -39t13 -43l1 -18v-129h-64v141l-9 10l-183 183v338h-64zM864 800v-338l-183 -183
l-9 -10v-141h-64v130q0 7 1 19t13 39t36 41q8 5 48.5 29t60.5 40q65 50 65 118h-64q0 -35 -41 -67q-15 -12 -53.5 -35t-50.5 -31l-1 -1q-37 -23 -56 -63.5t-20.5 -59t-1.5 -31.5v-192h192v178l183 183l9 10v365h-64z" />
    <glyph glyph-name="handshake-solid" unicode="&#xebbf;" 
d="M618 737q-33 0 -54 -6q-30 -8 -57 -26q-44 26 -71 29q-19 2 -85 1q-16 0 -30.5 -5t-35 -14.5t-32.5 -14.5q-75 -29 -157 -29h-32v-308l18 -9l59 -29l211 -235q31 -31 85 -28q43 2 77 23l176 118l3 2l2 2q19 19 28 53l123 62l92 31l22 7v311h-32q-80 0 -157 30
q-11 4 -32 14t-35.5 15t-30.5 5q-53 1 -55 1zM619 673q8 0 27.5 -0.5t24.5 -0.5l77 -30q65 -25 148 -31v-204l-74 -25h-2l-2 -1l-97 -49q-9 24 -24 40l-2 3l-136 167l-20 25l-25 -20l-86 -70q-33 -23 -76 -3q-1 0 -12 8l146 121l2 2q54 54 93 64q14 4 38 4zM396 672
q20 0 32 -1q5 -1 14.5 -5.5t11.5 -5.5q-1 -1 -4 -3.5t-5 -4.5l-2 -2l-175 -145l-27 -22l24 -25q23 -25 59 -42q77 -37 141 8l2 2l62 51l118 -145l1 -2l1 -1q16 -16 16 -37.5t-16 -38.5q-3 -1 -5 -3l-42 57l-52 -38l41 -55q-7 -5 -19.5 -14t-22.5 -15l-43 58l-52 -38l41 -55
q-2 -1 -7.5 -4.5t-6.5 -4.5q-21 -12 -47 -14q-24 -1 -35 8l-1 1l-214 237l-4 5l-52 26v207q84 6 148 30q17 7 37 15t29 11.5t11 3.5q5 0 20.5 0.5t22.5 0.5z" />
    <glyph glyph-name="handshake" unicode="&#xebc0;" 
d="M618 737q-33 0 -54 -6q-30 -8 -57 -26q-44 26 -71 29q-19 2 -85 1q-16 0 -30.5 -5t-35 -14.5t-32.5 -14.5q-75 -29 -157 -29h-32v-308l18 -9l59 -29l211 -235q31 -31 85 -28q43 2 77 23l176 118l3 2l2 2q19 19 28 53l123 62l92 31l22 7v311h-32q-80 0 -157 30
q-11 4 -32 14t-35.5 15t-30.5 5q-53 1 -55 1zM619 673q8 0 27.5 -0.5t24.5 -0.5l77 -30q65 -25 148 -31v-204l-74 -25h-2l-2 -1l-97 -49q-9 24 -24 40l-2 3l-136 167l-20 25l-25 -20l-86 -70q-33 -23 -76 -3q-1 0 -12 8l146 121l2 2q54 54 93 64q14 4 38 4zM396 672
q20 0 32 -1q5 -1 14.5 -5.5t11.5 -5.5q-1 -1 -4 -3.5t-5 -4.5l-2 -2l-175 -145l-27 -22l24 -25q23 -25 59 -42q77 -37 141 8l2 2l62 51l118 -145l1 -2l1 -1q16 -16 16 -37.5t-16 -38.5q-3 -1 -5 -3l-42 57l-52 -38l41 -55q-7 -5 -19.5 -14t-22.5 -15l-43 58l-52 -38l41 -55
q-2 -1 -7.5 -4.5t-6.5 -4.5q-21 -12 -47 -14q-24 -1 -35 8l-1 1l-214 237l-4 5l-52 26v207q84 6 148 30q17 7 37 15t29 11.5t11 3.5q5 0 20.5 0.5t22.5 0.5z" />
    <glyph glyph-name="hanukiah-solid" unicode="&#xebc1;" 
d="M512 832q-32 -65 -32 -96q0 -13 9.5 -22.5t22.5 -9.5t22.5 9.5t9.5 22.5t-8 37t-16 41zM416 800q-32 -66 -32 -96q0 -13 9.5 -22.5t22.5 -9.5t22.5 9.5t9.5 22.5q0 14 -8 38t-16 41zM608 800q-32 -65 -32 -96q0 -13 9.5 -22.5t22.5 -9.5t22.5 9.5t9.5 22.5t-8 37t-16 41z
M320 768q-32 -66 -32 -96q0 -13 9.5 -22.5t22.5 -9.5t22.5 9.5t9.5 22.5q0 14 -8 38t-16 41zM704 768q-32 -65 -32 -96q0 -13 9.5 -22.5t22.5 -9.5t22.5 9.5t9.5 22.5t-8 37t-16 41zM224 736q-32 -66 -32 -96q0 -13 9.5 -22.5t22.5 -9.5t22.5 9.5t9.5 22.5q0 14 -8 38
t-16 41zM800 736q-32 -65 -32 -96q0 -13 9.5 -22.5t22.5 -9.5t22.5 9.5t9.5 22.5t-8 37t-16 41zM128 704q-32 -66 -32 -96q0 -13 9.5 -22.5t22.5 -9.5t22.5 9.5t9.5 22.5q0 14 -8 38t-16 41zM896 704q-32 -65 -32 -96q0 -13 9.5 -22.5t22.5 -9.5t22.5 9.5t9.5 22.5t-8 37
t-16 41zM480 672l-1 -288q-13 0 -22 9t-9 22v225h-64v-225q0 -17 5 -31h-6q-13 0 -22 9t-9 22v193h-64v-193q0 -14 6 -31h-4q-14 0 -24 10t-10 24v158h-64v-158q0 -15 7 -34h-6q-14 0 -23.5 9.5t-9.5 23.5v127h-64v-127q0 -40 28.5 -68.5t68.5 -28.5h287v-192h-160v-64h384
v64h-160v192h287q40 0 68.5 28.5t28.5 68.5v127h-64v-127q0 -14 -9.5 -23.5t-23.5 -9.5h-6q7 19 7 34v158h-64v-158q0 -14 -10 -24t-24 -10h-4q6 17 6 31v193h-64v-193q0 -13 -9 -22t-22 -9h-6q5 14 5 31v225h-64v-225q0 -13 -9 -22t-23 -9v288h-64z" />
    <glyph glyph-name="hard-hat-solid" unicode="&#xebc2;" 
d="M416 736v-45q-120 -31 -198.5 -127.5t-85.5 -223.5q-30 -10 -49 -32t-19 -52v-96h896v96q0 30 -19 52t-49 32q-7 127 -85.5 223.5t-198.5 127.5v45h-192zM481 672h63q-1 -6 0 -11v-181h64v144q91 -29 152 -102.5t71 -169.5h-63v-64h96q14 0 23 -9t9 -23v-32h-768v32
q0 14 9 23t23 9h96v64h-63q10 96 71 169.5t152 102.5v-144h64v176q3 8 1 16z" />
    <glyph glyph-name="hashtag-solid" unicode="&#xebc3;" 
d="M352 800v-192h-192v-64h192v-192h-192v-64h192v-192h64v192h192v-192h64v192h192v64h-192v192h192v64h-192v192h-64v-192h-192v192h-64zM416 544h192v-192h-192v192z" />
    <glyph glyph-name="hat-cowboy-side-solid" unicode="&#xebc4;" 
d="M615 736q-13 0 -25.5 -2t-63.5 -18q-38 -12 -58 -12h-12h-16h-18q-35 0 -51 -3q-13 -3 -25.5 -7.5t-23 -11.5t-18.5 -16q-22 -25 -29 -65l-19 -122q-73 -4 -127.5 -44.5t-85.5 -106.5q-13 -28 -11 -55.5t17 -50.5q29 -45 87 -57q125 -27 254 -33.5t233.5 1.5t242.5 27h3
q2 1 3.5 1.5l3 1t2.5 0.5q63 13 90 50q24 31 24 76q0 32 -10 66.5t-30 67.5t-47.5 61.5t-66.5 51t-84 34.5l-19 74q-11 39 -44 64.5t-76 27.5zM614 672q16 0 28 -5t19.5 -15.5t11.5 -25.5l22 -86l3 -8l5 -20v-3q1 -4 0.5 -9t-2.5 -10.5t-5 -11t-7 -10t-8 -6.5
q-24 -14 -87 -29q-66 -15 -125 -17q-70 50 -149 61l18 114l2 8t2 7.5t2.5 6.5t3.5 5.5t4 4.5q5 5 12 9t19 6q10 2 40 2h24.5h20.5q30 0 77 15q4 1 10 3t9.5 3t8 2.5t8 2.5l7 2t6.5 2t5 1q8 1 15 1zM773 496q73 -30 114 -91t41 -116q0 -23 -11 -37q-15 -21 -57 -28
q-126 -9 -208 39q63 13 101 35q27 16 39.5 46t4.5 61zM727 417l8 -30q2 -6 1 -12.5t-5 -12t-11 -9.5q-18 -11 -59.5 -22.5t-80.5 -13.5l-17 17q-4 3 -12.5 11.5l-12.5 12.5q18 2 36 5.5t35 7.5q71 17 104 36q4 2 7.5 4.5t6.5 5.5zM270 416q96 0 166 -53l2 -2l2 -2t2.5 -2
t2.5 -2q14 -10 74 -68q13 -12 25 -23l11 -8q39 -32 79 -53q-277 -21 -484 24q-33 7 -48 30q-13 20 -2 44q55 115 170 115z" />
    <glyph glyph-name="hat-cowboy-solid" unicode="&#xebc5;" 
d="M448 768q-36 0 -69 -37q-31 -34 -42 -84q-11 -42 -30 -135q-37 32 -83 32q-53 0 -90.5 -37.5t-37.5 -90.5q0 -128 81 -199q102 -89 335 -89q234 0 336 90q80 71 80 198q0 53 -37.5 90.5t-90.5 37.5q-47 0 -83 -31l-2 1q-6 30 -28 133q-11 51 -43 86t-68 35q-25 0 -55 -22
q-2 -2 -5 -4t-4 -3q-1 1 -4 3t-5 4q-30 22 -55 22zM448 704l2 -1q2 -1 6.5 -3.5t8.5 -5.5q13 -10 17 -12q16 -10 30 -10t30 10q4 2 17 12q4 3 8.5 5.5t6.5 3.5l2 1l2 -1q2 -1 8 -5t11 -9q21 -23 28 -56q8 -39 33 -154q-1 -1 -5 -3q-48 -28 -141 -28t-141 28q-1 1 -6 4
q22 108 34 153q7 32 28 55q3 4 21 16zM224 480q28 0 45.5 -17t18.5 -45q-2 -9 1 -18q0 -1 1 -3q4 -45 27 -76.5t57 -45.5q45 -19 138 -19q91 0 139 21q34 15 57.5 47.5t26.5 77.5q2 7 1 14v5q2 27 19.5 43t44.5 16q29 0 46.5 -17.5t17.5 -46.5q0 -98 -59 -150
q-84 -74 -293 -74q-210 0 -293 73q-59 52 -59 151q0 29 17.5 46.5t46.5 17.5zM352 414q62 -30 160 -30t160 30q0 -35 -11.5 -51t-35.5 -27q-36 -16 -113 -16q-83 0 -114 13q-24 10 -35 27t-11 54z" />
    <glyph glyph-name="hat-wizard-solid" unicode="&#xebc6;" 
d="M512 64q-56 0 -104.5 7t-77.5 16t-52.5 21t-31.5 18.5t-12 10.5l-16 15l272 680h244l-151 -108l223 -572l-16 -15q-4 -4 -12 -10.5t-31.5 -18.5t-52.5 -21t-77.5 -16t-104.5 -7zM295 172q77 -44 217 -44t217 44l-214 550zM576 192q-40 0 -68 28t-28 68t28 68t68 28
q11 0 24 -3q-37 35 -88 35q-53 0 -90.5 -37.5t-37.5 -90.5t37.5 -90.5t90.5 -37.5q51 0 88 35q-13 -3 -24 -3zM512 544q13 0 22.5 -9.5t9.5 -22.5t-9.5 -22.5t-22.5 -9.5t-22.5 9.5t-9.5 22.5t9.5 22.5t22.5 9.5zM608 320q13 0 22.5 -9.5t9.5 -22.5t-9.5 -22.5t-22.5 -9.5
t-22.5 9.5t-9.5 22.5t9.5 22.5t22.5 9.5z" />
    <glyph glyph-name="haykal-solid" unicode="&#xebc7;" 
d="M512 864q-22 0 -28 -21l-56 -174l-148 86q-7 5 -16 5t-17 -6t-11 -15t1 -21l63 -158l-178 -25q-22 -3 -25.5 -24.5t15.5 -31.5l159 -86l-133 -137q-13 -15 -5 -33t27 -18q3 0 7 1l192 40l-7 -183q0 -13 9 -22t21 -9q14 0 23 12l107 144l107 -144q9 -12 23 -12q12 0 21 9
t9 22l-7 183l194 -40q3 -1 6 -1q19 0 27 18t-5 33l-134 137l159 86q19 10 15.5 31.5t-25.5 24.5l-178 25l63 159q6 15 -3 28t-24 13q-9 0 -16 -5l-148 -86l-56 174q-3 10 -11 15.5t-17 5.5zM512 612l28 -86l86 50l-38 -95l100 -14l-95 -51l69 -71l-94 20l4 -96l-60 77
l-60 -78l4 97l-94 -20l68 71l-94 51l100 14l-38 95l86 -50z" />
    <glyph glyph-name="hdd-solid" unicode="&#xebc8;" 
d="M199 768l-103 -412v-228h832v228l-103 412h-626zM249 704h526l80 -320h-686zM160 320h704v-128h-704v128zM768 288q-13 0 -22.5 -9.5t-9.5 -22.5t9.5 -22.5t22.5 -9.5t22.5 9.5t9.5 22.5t-9.5 22.5t-22.5 9.5z" />
    <glyph glyph-name="hdd" unicode="&#xebc9;" 
d="M199 768l-103 -412v-228h832v228l-103 412h-626zM249 704h526l80 -320h-686zM160 320h704v-128h-704v128zM768 288q-13 0 -22.5 -9.5t-9.5 -22.5t9.5 -22.5t22.5 -9.5t22.5 9.5t9.5 22.5t-9.5 22.5t-22.5 9.5z" />
    <glyph glyph-name="heading-solid" unicode="&#xebca;" 
d="M192 800v-64h32v-576h-32v-64h256v64h-32v192h192v-192h-32v-64h256v64h-32v576h32v64h-256v-64h32v-192h-192v192h32v64h-256zM288 736h64v-256h320v256h64v-576h-64v256h-320v-256h-64v576z" />
    <glyph glyph-name="headphones-alt-solid" unicode="&#xebcb;" 
d="M512 800q-146 0 -249 -103t-103 -249v-256q0 -39 28.5 -67.5t67.5 -28.5h96v288h-128v64q0 120 84 204t204 84t204 -84t84 -204v-64h-128v-288h96q39 0 67.5 28.5t28.5 67.5v256q0 146 -103 249t-249 103zM224 320h64v-160h-32q-14 0 -23 9t-9 23v128zM736 320h64v-128
q0 -14 -9 -23t-23 -9h-32v160z" />
    <glyph glyph-name="headphones-solid" unicode="&#xebcc;" 
d="M512 800q-146 0 -249 -103t-103 -249v-256q0 -39 28.5 -67.5t67.5 -28.5h96v288h-128v64q0 120 84 204t204 84t204 -84t84 -204v-64h-128v-288h96q39 0 67.5 28.5t28.5 67.5v256q0 146 -103 249t-249 103zM224 320h64v-160h-32q-14 0 -23 9t-9 23v128zM736 320h64v-128
q0 -14 -9 -23t-23 -9h-32v160z" />
    <glyph glyph-name="headset-solid" unicode="&#xebcd;" 
d="M512 864q-145 0 -248.5 -103.5t-103.5 -248.5v-192q0 -31 18 -55.5t46 -34.5v-6q0 -66 47 -113t113 -47h41q19 -32 55 -32h64q26 0 45 19t19 45t-19 45t-45 19h-64q-36 0 -55 -32h-41q-40 0 -68 28t-28 68h64v288h-128q0 119 84.5 203.5t203.5 84.5t203.5 -84.5
t84.5 -203.5h-128v-288h96q39 0 67.5 28.5t28.5 67.5v192q0 145 -103.5 248.5t-248.5 103.5zM224 448h64v-160h-32q-13 0 -22.5 9.5t-9.5 22.5v128zM736 448h64v-128q0 -13 -9.5 -22.5t-22.5 -9.5h-32v160z" />
    <glyph glyph-name="heart-broken-solid" unicode="&#xebce;" 
d="M304 832q-99 0 -169.5 -70.5t-70.5 -169.5q0 -54 40 -114q5 -8 11 -15.5t11 -13t9 -10t6 -6.5l2 -2l369 -370l369 370q3 2 8.5 7.5t19 22.5t24 35t19 44t8.5 52q0 99 -70.5 169.5t-169.5 70.5q-65 0 -132 -37l-10 -6l-66 -181h116l-116 -199v135h-114l50 245l-22 11
q-63 32 -122 32zM304 768q24 0 71 -19l-55 -269h128v-192h68l188 323v61h-101l26 70q51 26 91 26q73 0 124.5 -52t51.5 -124q0 -14 -6 -31t-15 -31.5t-17.5 -27t-15.5 -19.5l-6 -7l-324 -324l-324 324q-15 15 -31 38q-29 44 -29 78q0 72 51.5 124t124.5 52z" />
    <glyph glyph-name="heart-solid" unicode="&#xebcf;" 
d="M720 800q-106 0 -208 -91q-102 91 -208 91q-99 0 -169.5 -70.5t-70.5 -169.5q0 -23 8 -48.5t18.5 -43t23.5 -35.5t19 -24l10 -10l369 -370l369 369q3 3 7 8t14.5 17t19.5 26.5t18 32t14.5 38t5.5 40.5q0 99 -70.5 169.5t-169.5 70.5z" />
    <glyph glyph-name="heart" unicode="&#xebd0;" 
d="M304 800q-99 0 -169.5 -70.5t-70.5 -169.5q0 -55 40 -114q9 -13 18.5 -24.5t15.5 -17.5l5 -5l369 -370l23 23l346 347q9 8 22 22t35 56t22 83q0 99 -70.5 169.5t-169.5 70.5q-116 0 -208 -94q-92 94 -208 94zM304 736q42 0 88 -23t71 -47l25 -23l24 -27l24 27
q4 4 10.5 10t26.5 22t41 28.5t50 22.5t56 10q73 0 124.5 -52t51.5 -124q0 -22 -15 -51t-30 -47l-15 -18l-324 -324l-324 324q-16 15 -31 38q-29 43 -29 78q0 72 51.5 124t124.5 52z" />
    <glyph glyph-name="heartbeat-solid" unicode="&#xebd1;" 
d="M345 800q-103 0 -176 -69t-73 -167q0 -5 1 -20h64q-1 14 -1 20q0 71 54.5 121.5t130.5 50.5q72 0 125 -45l42 -36l42 36q53 45 125 45q76 0 130.5 -50.5t54.5 -121.5q0 -34 -9.5 -66.5t-23 -58t-39 -53t-44.5 -46t-53.5 -43t-53.5 -37t-55 -35.5q-52 -32 -74 -48
q-22 16 -74 48q-121 77 -174 127h-87q29 -36 73 -72.5t74 -56.5t80 -52q58 -36 77 -51l31 -24l30 24q21 16 78 51q38 24 58.5 37.5t58 41t59.5 48.5t50.5 53.5t44 63t26.5 69.5t11 80q0 98 -73 167t-176 69q-96 0 -167 -61q-71 61 -167 61zM383 660l-75 -187l-7 7h-205v-64
h179l57 -57l53 133l96 -224l66 166l9 -18h61q18 -32 55 -32q27 0 45.5 18.5t18.5 45.5t-18.5 45.5t-45.5 18.5q-37 0 -55 -32h-21l-55 110l-62 -154z" />
    <glyph glyph-name="helicopter-solid" unicode="&#xebd2;" 
d="M576 768v-130q-82 -7 -135 -45q-23 -16 -40 -40q-1 -2 -2 -5t-2 -4h-211q-10 28 -34.5 46t-55.5 18q-39 0 -67.5 -28.5t-28.5 -67.5t28.5 -67.5t67.5 -28.5q31 0 55.5 18t34.5 46h262v27q1 5 4 9q10 13 26 25q49 35 130 35q8 0 24 -3t20 -4q-22 -36 -22 -114
q0 -39 25 -64q27 -27 69 -27q94 0 139 8q1 0 3 1.5t3 1.5q-1 -1 -1.5 -4.5t-1.5 -4.5q-13 -17 -40 -27q-49 -19 -149 -19h-158q-30 0 -50.5 20.5t-20.5 50.5v57h-64v-57q0 -55 40 -95t95 -40h158q113 0 172 23q44 17 68 48q27 34 27 85q0 95 -114 165q-24 15 -81 35
q-59 21 -109 26v130h-64zM224 736v-64h320v64h-320zM672 736v-64h320v64h-320zM738 547q46 -18 58 -25q54 -33 73 -80q-15 -7 -17 -7q-40 -7 -128 -7q-16 0 -24 8q-6 6 -6 19q0 71 12 85q3 4 11 6q2 1 5 1h8h8zM96 544q14 0 23 -9t9 -23t-9 -23t-23 -9t-23 9t-9 23t9 23
t23 9zM896 256q0 -14 -9 -23t-23 -9h-512v-64h512q39 0 67.5 28.5t28.5 67.5h-64z" />
    <glyph glyph-name="highlighter-solid" unicode="&#xebd3;" 
d="M756 862l-23 -20l-491 -426l-16 -15l8 -21q1 -4 3 -11t4.5 -27t1 -39t-12 -44t-29.5 -45l-1 -1l-5 -6l-4 -4l-127 -124l172 -47l66 66l7 6l2 1q31 31 72 39t67 1l26 -7l21 -8l15 16l446 514zM752 774l118 -118l-280 -322l-160 160zM382 452l166 -166l-62 -72l-176 176z
M306 304l94 -94q-76 -3 -134 -58l-1 -1l-8 -7l-17 17l7 8l1 2q55 57 58 133z" />
    <glyph glyph-name="hiking-solid" unicode="&#xebd4;" 
d="M528 832q-46 0 -79 -33t-33 -79t33 -79t79 -33t79 33t33 79t-33 79t-79 33zM528 768q20 0 34 -14t14 -34t-14 -34t-34 -14t-34 14t-14 34t14 34t34 14zM355 624q-15 1 -25 -1q-26 -4 -47 -22q-38 -32 -56 -117q-6 -30 6 -51q11 -18 34 -29q11 -5 60 -16l15 62
q-43 10 -48 12t-5 3q-1 2 0 6q13 62 36 81q14 12 40 6l14 63q-11 2 -24 3zM411 614l-47 -214q-9 -40 24 -65l113 -88l28 -183h65l-30 193q-4 25 -24 41l-113 88l33 149l33 -9l57 -55q30 -29 70 -12l52 22v-417h64v544h-64v-58l-77 -33l-57 55q-12 12 -28 16zM369 300
l-27 -81l-80 -155h72l65 125q2 4 4 10l20 59z" />
    <glyph glyph-name="hippo-solid" unicode="&#xebd5;" 
d="M517 832q-10 0 -21 -1q-34 -6 -57 -34t-23 -64v-61h-124q-59 0 -110 -30t-82 -82t-35 -114l-1 2l-32 -160l42 42q10 -65 23 -114l38 -152h153v110q42 -14 80 -14q42 0 80 13v-109h153l37 149q24 70 32 203h162q53 0 90.5 37.5t37.5 90.5v70q0 54 -34.5 88t-88.5 34
q-51 0 -94 -21q-50 53 -135 53h-6q-8 24 -28 41q-25 21 -57 23zM506 768q15 2 26.5 -7.5t11.5 -24.5v-32h64q12 0 23 -1.5t19.5 -4t16 -6t13 -7t10.5 -7.5t8 -7.5t5 -6.5l3 -4.5l1 -1.5l19 -37l31 27q3 3 9.5 7t27 10.5t43.5 6.5q14 0 25 -4t18.5 -11.5t11.5 -18.5t4 -24
v-70q0 -17 -8.5 -32t-23.5 -23.5t-32 -8.5h-223l-1 -31q-5 -133 -31 -217l-26 -104h-39v160l-51 -38q-34 -26 -93 -26q-19 0 -40.5 5.5t-34.5 11t-18 9.5l-51 38v-160h-39l-26 104q-12 45 -21.5 105t-9.5 93q0 74 48 126t116 52h188v125q0 12 7.5 22.5t18.5 12.5zM640 672
q-13 0 -22.5 -9.5t-9.5 -22.5t9.5 -22.5t22.5 -9.5t22.5 9.5t9.5 22.5t-9.5 22.5t-22.5 9.5z" />
    <glyph glyph-name="hips" unicode="&#xebd6;" 
d="M367 736q-6 0 -12 -1.5t-11 -5t-9 -7.5t-7 -9.5t-5 -11.5t-2 -13q0 -19 13.5 -33t32.5 -14q7 0 13 1.5t11 4.5t9.5 7.5t7 10t4.5 11.5t2 12q0 20 -13.5 34t-33.5 14zM8 728q-3 -2 -4 -5v-460q0 -5 4 -5h66q4 0 4 5v224q-2 45 74 45q21 0 36.5 -5t22.5 -10t10.5 -14
t3.5 -10.5v-5.5v-202q0 -11 7.5 -19t18.5 -8h44q4 0 4 5v224q0 58 -45 92q-39 29 -96 29q-43 0 -80 -19v134q-2 4 -4 5h-66zM604 608q-17 0 -36.5 -4t-42.5 -16t-41.5 -30t-31 -48.5t-12.5 -69.5v-297q0 -4 5 -4h64q4 0 4 4v144q20 -15 42.5 -23t48.5 -8q71 0 121 51.5
t50 124.5t-50 124.5t-121 51.5zM915 608q-30 0 -53 -6.5t-39 -18.5q-7 -5 -14 -12.5t-16 -29t-5 -45.5q8 -47 58 -70l84 -38q28 -13 20 -35q-9 -22 -58 -22q-18 0 -35.5 4.5t-31 11t-25.5 15.5q-2 2 -4 0.5t-2 -4.5v-55q0 -25 22 -34q37 -13 76 -13q16 0 30.5 1.5t27.5 5.5
q7 2 13.5 5.5t19 11.5t23 23t15.5 34q4 16 2.5 32t-7.5 31q-16 38 -55 56l-90 41q-10 4 -11 12t7 14q7 5 24.5 8.5t48 -0.5t59.5 -19q1 -2 3.5 -0.5t2.5 3.5v73q0 3 -3 4q-42 16 -87 16zM335 600q-5 0 -5 -4v-333q0 -5 5 -5h65q5 0 5 5v333q-2 4 -5 4h-65zM604 533
q41 0 69.5 -29.5t28.5 -71.5q0 -21 -7.5 -39.5t-20.5 -32t-31.5 -21.5t-38.5 -8q-40 0 -69 29.5t-29 71.5q0 14 3.5 27t10 24t15.5 20.5t19.5 16t23.5 10t26 3.5z" />
    <glyph glyph-name="hire-a-helper" unicode="&#xebd7;" 
d="M253 800l-3 -29q-2 -23 -20 -40.5t-41 -20.5l-29 -3v-521l28 -4q24 -3 41 -19t21 -40l5 -27h522l2 29q1 15 9 27.5t20.5 21t27.5 9.5l28 4v519l-27 4q-12 2 -22 7.5t-18 13.5t-13 18.5t-6 21.5l-3 29h-522zM307 736h413q10 -28 31 -49.5t49 -32.5v-414q-27 -10 -48 -31
t-31 -49h-415q-22 58 -82 79v414q19 6 35.5 18.5t29 29t18.5 35.5zM329 640q-6 0 -7.5 -6.5t6.5 -8.5q11 -3 18 -7t12 -12.5t5 -22.5v-131v-69.5t-1 -45.5t-3 -33t-6 -16q-5 -7 -9.5 -10.5t-6 -4t-11.5 -3.5q-3 0 -5 -3.5t-0.5 -7t5.5 -3.5q19 0 26.5 0.5t15.5 1.5t26 1
q19 0 27.5 -1t16.5 -1.5t26 -0.5q5 0 5 5.5t-5 7.5q-25 8 -30 16q-5 7 -7 27.5t-2 38.5t0.5 46.5t0.5 35.5q0 5 5.5 10.5t11.5 5.5h138q4 0 8 -2.5t6.5 -6.5t2.5 -7q0 -8 0.5 -28t0.5 -36t-0.5 -34t-2.5 -31t-6 -19q-4 -7 -30 -16q-3 -1 -4.5 -4.5t0 -6t4.5 -2.5
q18 0 26 0.5t16.5 1.5t26.5 1q19 0 27 -1t15.5 -1.5t26.5 -0.5q4 0 5.5 3.5t-0.5 7t-5 3.5q-1 0 -4.5 1t-4 1.5t-3 1.5t-3.5 1.5t-2.5 2t-3 2.5t-3 3t-3.5 5q-7 11 -8.5 43t-1.5 121v131q0 14 5 22.5t12 12.5t18 7t5 12l-6 3q-22 0 -35 -1.5t-36 -1.5q-20 0 -30 1.5t-30 1.5
q-5 0 -6 -7q-1 -5 4 -7q1 0 4.5 -1t5.5 -2t6 -3.5t7 -6t6 -8.5t4.5 -12.5t1.5 -17.5q0 -72 -2 -86q0 -2 -1 -5.5t-5 -7.5t-10 -4h-135q-4 0 -7.5 2.5t-5 5.5t-2 5.5t-0.5 3.5q-2 14 -2 86q0 10 1.5 17.5t4.5 12.5t6 9t7 6l6 3t6 2l4 1q6 2 4 8t-6 6h-15.5t-9 -0.5t-5.5 -1
t-6 -0.5t-9 -0.5t-16 -0.5q-22 0 -35 1.5t-35 1.5z" />
    <glyph glyph-name="history-solid" unicode="&#xebd8;" 
d="M512 832q-98 0 -182.5 -46t-137.5 -125v107h-64v-224h224v64h-116q42 73 115.5 116.5t160.5 43.5q133 0 226.5 -93.5t93.5 -226.5t-93.5 -226.5t-226.5 -93.5t-226.5 93.5t-93.5 226.5h-64q0 -159 112.5 -271.5t271.5 -112.5t271.5 112.5t112.5 271.5t-112.5 271.5
t-271.5 112.5zM480 704v-288h224v64h-160v224h-64z" />
    <glyph glyph-name="hockey-puck-solid" unicode="&#xebd9;" 
d="M512 736q-115 0 -215 -17.5t-166.5 -55t-66.5 -87.5v-256q0 -50 66.5 -87.5t166.5 -55t215 -17.5t215 17.5t166.5 55t66.5 87.5v256q0 50 -66.5 87.5t-166.5 55t-215 17.5zM512 672q111 0 203 -17t136.5 -39t44.5 -40q0 -16 -34.5 -34.5t-105.5 -35.5t-159 -23
q-42 -3 -85 -3q-111 0 -203 17t-136.5 39t-44.5 40t44.5 40t136.5 39t203 17zM128 489q1 0 3 -1t3 -2q11 -6 23 -11q6 -3 10 -4q18 -8 35 -13q35 -12 85 -22q7 -1 29 -4q42 -7 84 -11q62 -5 112 -5q18 0 37.5 0.5t37.5 2t37 2.5q42 4 84 11q22 3 28 4q16 3 30.5 6.5t29 7.5
t26.5 8q17 5 35 13q4 1 10 4q12 5 23 11q1 1 3 2t3 1v-169q0 -18 -44.5 -40t-136.5 -39t-203 -17t-203 17t-136.5 39t-44.5 40v169z" />
    <glyph glyph-name="holly-berry-solid" unicode="&#xebda;" 
d="M512 864q-53 0 -90.5 -37.5t-37.5 -90.5q0 -34 19 -65q-49 -6 -82 -42t-33 -85q0 -57 43 -95q-1 0 -5.5 -0.5t-6.5 -0.5q-15 -1 -30 0l-31 1l-2 -31q-3 -44 -27 -81q-21 -33 -54 -54l-24 -15l12 -25q26 -57 29 -117q1 -14 0 -28l-2 -49l45 17q74 27 150 30q15 1 30 0
l31 -1l2 30q3 45 27 82q21 33 54 54l26 16l-15 27q-23 39 -28 84q-3 18 -1 42q4 -4 8 -6q1 0 2 -1t2 -1q7 -3 8 -3l2 -1q84 -31 170 -34l5 -1q10 -43 33 -80q21 -33 52 -58q-20 -52 -24 -105q-63 18 -128 20h-5q-10 44 -33 81q-1 1 -2.5 3.5t-2.5 3.5l-43 -27
q-2 -1 -3.5 -2.5t-3.5 -3t-3 -2.5q0 -1 1 -2q2 -3 3 -4q23 -37 27 -82l2 -30l31 1h30q15 0 30 -2t30 -4.5t30 -6t30 -8t30 -9.5l45 -17l-2 49q-1 14 0 28q3 60 29 117l12 25l-24 15q-34 22 -54 54q-23 37 -27 82l-3 30l-30 -1h-30q-2 0 -6.5 0.5t-5.5 0.5q43 38 43 95
q0 49 -33 85t-82 42q9 14 14 30.5t5 34.5q0 53 -37.5 90.5t-90.5 37.5zM512 800q26 0 45 -19t19 -45t-19 -45t-45 -19t-45 19t-19 45t19 45t45 19zM416 608q26 0 45 -19t19 -45t-19 -45t-45 -19t-45 19t-19 45t19 45t45 19zM608 608q26 0 45 -19t19 -45t-19 -45t-45 -19
t-45 19t-19 45t19 45t45 19zM446 403q1 -11 2 -23q6 -43 23 -82q-30 -25 -50 -57q-24 -37 -33 -81h-5q-64 -2 -128 -20q-4 53 -24 105q31 25 52 58q24 37 33 81h5q63 2 125 19z" />
    <glyph glyph-name="home-solid" unicode="&#xebdb;" 
d="M512 877l-23 -22l-416 -416l46 -46l41 41v-370h288v320h128v-320h288v370l41 -41l46 46l-416 416zM512 786l288 -288v-370h-160v320h-256v-320h-160v370z" />
    <glyph glyph-name="hooli" unicode="&#xebdc;" 
d="M56 613q-20 -1 -33 -7.5t-18 -17.5q-1 -1 -2 -3t-2.5 -10t-0.5 -17t7 -24.5t17 -32.5t31.5 -41t48.5 -49v-118h93v46q-17 11 -31 22q-12 8 -23 17t-20.5 17t-18.5 16v49q34 -37 86 -80l7 -6v48q0 29 17 29t17 -24v-78q43 -29 93 -47v150q0 24 -17.5 42t-47.5 18
q-41 0 -62 -35v87q103 -52 160 -94q-8 -11 -11.5 -24.5t-3.5 -19.5v-26v-6q0 -17 1 -26.5t7 -24t19 -27.5t33 -19.5t34 -7.5h14h5.5t14 1.5t20 4t21 8t19.5 13.5q14 14 20 30t6.5 24t0.5 30v7v11t-0.5 11t-1.5 11t-3 10.5t-4.5 11.5t-7 10.5t-10.5 11.5q-13 13 -33 20t-34 7
h-13q-6 1 -15.5 0.5t-31 -7.5t-34.5 -20q-5 -5 -9 -10q-61 48 -163 98v33l-36 -17q-63 26 -105 25zM906 606l-93 -44v-269h93v313zM79 598q28 2 72 -14l-47 -22v-101q-16 17 -28 33.5t-18.5 28.5t-10 22.5t-4.5 17.5t0 12.5t2 8t3 3.5q12 10 31 11zM978 571
q-10 0 -18.5 -2.5t-14.5 -7.5t-9.5 -12.5t-3.5 -16.5q0 -19 13.5 -32.5t32.5 -13.5t32.5 13.5t13.5 32.5t-13 29t-33 10zM683 511q-6 1 -15 0.5t-31 -7.5t-35 -20t-19.5 -29.5t-6.5 -24.5v-30v-6q0 -18 0.5 -27.5t7 -23.5t18.5 -27q9 -8 20 -14t21.5 -8.5t19.5 -3.5t15 -1h5
q1 0 3.5 -0.5t8 0.5t11.5 1.5t14 2.5t15.5 5t15 7.5t13.5 10.5q13 14 19.5 30t7 23.5t0.5 30.5v6q0 18 -1 27.5t-7.5 24t-18.5 26.5q-8 8 -19.5 14t-22 8.5t-19.5 3.5t-14 1h-6zM931 470v-177h93v177h-93zM450 451q3 0 6.5 -1t7 -5.5t3.5 -10.5v-65q0 -20 -17 -20
q-10 0 -14 6.5t-4 13.5v65q0 9 6 13t12 4zM683 451q6 0 11.5 -4t5.5 -13v-65q0 -7 -4 -13.5t-13 -6.5q-7 0 -11 4t-5 8t-1 8v65q0 6 3 10t7 5.5t7 1.5zM231 319v-26l61 -1q-31 11 -61 27zM292 292q87 -30 152 -12q-60 0 -121 22v-9z" />
    <glyph glyph-name="hornbill" unicode="&#xebdd;" 
d="M337 864q-33 0 -56.5 -23.5t-23.5 -56.5q0 -29 18.5 -51.5t47.5 -27.5q-66 -109 -66 -257h32q0 24 5 47t14 43.5t22 39.5t29.5 34t36 27t40.5 20q24 109 61 109q23 0 42 -49h17.5t18 -0.5t18.5 -1t18.5 -1.5l19 -2l19 -2t18.5 -2.5l18 -3t18 -3.5q-24 40 -53.5 68.5
t-65 44.5t-72.5 16q-52 0 -99 -29q-6 26 -27.5 43.5t-49.5 17.5zM512 704v-32q48 0 90.5 -19t73.5 -52.5t47 -76.5q109 -24 109 -60q0 -23 -49 -42q0 -20 -1 -40.5t-3 -41.5t-5 -42.5t-7 -40.5q61 35 95 85t34 106q0 51 -29 98q26 7 43.5 28.5t17.5 49.5q0 33 -23.5 56.5
t-56.5 23.5q-19 0 -36 -8.5t-28 -23.5t-15 -34q-109 66 -257 66zM257 639q-61 -35 -95 -85t-34 -106q0 -51 29 -98q-26 -7 -43.5 -28.5t-17.5 -49.5q0 -33 23.5 -56.5t56.5 -23.5q29 0 51.5 19t27.5 47q109 -66 257 -66v32q-36 0 -69.5 11t-60.5 30.5t-48 47t-33 59.5
q-109 24 -109 60q0 23 49 42q1 91 16 165zM735 448q0 -72 -41 -129.5t-106 -81.5q-24 -109 -61 -109q-23 0 -42 49q-91 1 -165 16q36 -61 85.5 -95t105.5 -34q52 0 99 29q6 -26 27.5 -43.5t49.5 -17.5q33 0 56.5 23.5t23.5 56.5q0 29 -18.5 51.5t-47.5 27.5q66 109 66 257
h-32z" />
    <glyph glyph-name="horse-head-solid" unicode="&#xebde;" 
d="M736 832q-77 0 -128 -69v37q-81 0 -150.5 -25.5t-118.5 -66t-88.5 -98t-64.5 -114.5t-43 -122.5t-27 -115t-14 -99t-5.5 -68t-0.5 -27.5h128q0 156 49 310q43 133 116 208q88 90 219 90h20l9 18q28 48 67 68v-94l131 -262l3 -5l4 -4q15 -14 20 -31q1 -3 1 -6
q-3 -11 -8 -19q-11 -17 -23 -17t-23 17l-10 23l-7 27l-28 -3q-27 -3 -56 5q-55 15 -69 67l-11 41l-36 -21q-62 -37 -70 -99q-5 -43 20 -110q6 -15 27 -65.5t30 -81t9 -56.5h64q0 38 -11 75.5t-33.5 88t-26.5 62.5q-19 50 -15 79q2 18 15 32q38 -60 90 -74q23 -6 56 -5
q6 -16 8 -19q29 -47 77 -47t77 47q6 9 10.5 19.5t6.5 15.5l1 6l1 3v3q0 15 -5 32q-6 20 -30 48l-125 250v152h-32zM591 735l-1 -1q-25 -1 -38 -3q-6 -1 -29 -6q13 3 29 6q18 3 39 4zM704 576q-13 0 -22.5 -9.5t-9.5 -22.5t9.5 -22.5t22.5 -9.5t22.5 9.5t9.5 22.5t-9.5 22.5
t-22.5 9.5z" />
    <glyph glyph-name="horse-solid" unicode="&#xebdf;" 
d="M744 832q-58 0 -100 -36q-32 -27 -53 -75q-15 -35 -21 -80q-50 -21 -90 -21q-23 0 -68.5 10t-79.5 10q-62 0 -101 -41q-3 -3 -7 -8q-18 5 -36 5q-31 0 -58 -26q-21 -20 -36 -55q-30 -69 -30 -163h64q0 82 24 137q10 23 22 35q8 8 14 8q1 0 9 -1q-5 -23 -5 -36
q0 -81 63 -138q-1 -49 -25 -82l-6 -8v-203h64v188q15 25 23 55t9 47v17l-1 13l-10 9q-53 50 -53 102q0 38 21 60q20 21 55 21q23 0 68.5 -10t79.5 -10q30 0 62.5 8t49.5 16l18 8l16 8l2 18q3 41 21 81q15 33 37 52t50 21v-32q21 0 38 -11t23 -23l6 -11l2 -5l4 -5l55 -54
l-6 -7q-34 9 -37 10l-11 4l-11 -4q-14 -6 -33 -2q-24 4 -32 27l-60 -22q7 -19 20 -34q-4 -20 -1 -43q1 -9 6 -39t5 -44q0 -18 -13 -39t-25 -33l-13 -12l-13 -10v-315h64v285q64 49 64 124q0 16 -2 32.5t-5 33t-4 24.5v2q19 -3 48 4l55 -16l19 -5l13 15l21 23
q16 18 15.5 42.5t-17.5 41.5l-56 57l-1 -1q-19 38 -54 58v48h-56zM384 416v-32q0 -35 -13 -64.5t-26 -41.5l-13 -13l-12 -9v-192h64v165q38 36 55 103q35 -16 105 -20v-248h64v309h-32q-78 0 -115 18q-9 4 -13 9l-7 16h-57z" />
    <glyph glyph-name="hospital-alt-solid" unicode="&#xebe0;" 
d="M512 803l-396 -165l-20 -9v-533h832v533l-20 9zM512 733l352 -147v-426h-704v426zM480 544v-96h-96v-64h96v-96h64v96h96v64h-96v96h-64z" />
    <glyph glyph-name="hospital-solid" unicode="&#xebe1;" 
d="M480 864v-64h-64v-64h64v-64h64v64h64v64h-64v64h-64zM192 800v-736h288v96h64v-96h288v736h-160v-64h96v-608h-160v96h-192v-96h-160v608h96v64h-160zM352 608v-64h64v64h-64zM480 608v-64h64v64h-64zM608 608v-64h64v64h-64zM352 480v-64h64v64h-64zM480 480v-64h64v64
h-64zM608 480v-64h64v64h-64zM352 352v-64h64v64h-64zM480 352v-64h64v64h-64zM608 352v-64h64v64h-64z" />
    <glyph glyph-name="hospital-symbol-solid" unicode="&#xebe2;" 
d="M160 800v-704h704v704h-704zM224 736h576v-576h-576v576zM352 640v-384h64v160h192v-160h64v384h-64v-160h-192v160h-64z" />
    <glyph glyph-name="hospital" unicode="&#xebe3;" 
d="M480 864v-64h-64v-64h64v-64h64v64h64v64h-64v64h-64zM192 800v-736h288v96h64v-96h288v736h-160v-64h96v-608h-160v96h-192v-96h-160v608h96v64h-160zM352 608v-64h64v64h-64zM480 608v-64h64v64h-64zM608 608v-64h64v64h-64zM352 480v-64h64v64h-64zM480 480v-64h64v64
h-64zM608 480v-64h64v64h-64zM352 352v-64h64v64h-64zM480 352v-64h64v64h-64zM608 352v-64h64v64h-64z" />
    <glyph glyph-name="hot-tub-solid" unicode="&#xebe4;" 
d="M359 820q-39 -48 -39 -88q0 -28 20 -62q12 -20 12 -28q1 -17 -22 -46l50 -40q37 48 36 88q-1 25 -21 59q-11 19 -11 28q0 19 25 49zM519 820q-39 -48 -39 -88q0 -28 20 -62q12 -20 12 -28q1 -17 -22 -46l50 -40q37 48 36 88q-1 25 -21 59q-11 19 -11 28q0 19 25 49z
M679 820q-39 -48 -39 -88q0 -28 20 -62q12 -20 12 -28q1 -17 -22 -46l50 -40q37 48 36 88q-1 25 -21 59q-11 19 -11 28q0 19 25 49zM96 512v-64h38l49 -244q12 -53 64 -71l-23 -69h64l21 64h406l21 -64h64l-23 69q55 17 67 72l46 243h38v64h-832zM199 448h627l-45 -231
q-7 -25 -32 -25h-471q-26 0 -32 26z" />
    <glyph glyph-name="hotdog-solid" unicode="&#xebe5;" 
d="M775 832q-52 0 -80 -42q-28 4 -43 4q-56 0 -98 -46q-27 -29 -52 -86q-2 -3 -10 -19t-11 -21t-11.5 -20t-14 -22t-15.5 -20.5t-18.5 -21.5t-21 -20t-25 -20.5t-28.5 -18.5t-34 -18q-125 -59 -144 -165q-41 -26 -41 -82q0 -91 108 -122q56 -60 136 -60q151 0 353 208
q203 203 203 370q0 89 -47 121q6 50 -28.5 75.5t-77.5 25.5zM652 730q1 0 15 -1q-2 -7 -11 -32l-13.5 -37.5t-14.5 -37t-19.5 -41.5t-23.5 -39.5t-31.5 -44t-37.5 -41.5q-15 -16 -31 -29.5t-33.5 -24.5t-30.5 -19.5t-33 -16t-30 -12t-31.5 -10.5t-28 -8t-29 -7t-25.5 -6
q24 46 96 80q37 17 69.5 41t52 43t40.5 49.5t28 42.5t22 41q4 7 6 11q1 1 2 3q20 48 41 71q23 25 51 25zM799 672q25 1 56 -10q9 -22 9 -52q0 -59 -42 -142t-142 -183l-1 -1q-130 -135 -239 -174q-65 4 -71 44q-10 74 203 230q38 28 68.5 79.5t46.5 95t45 77.5t67 36z" />
    <glyph glyph-name="hotel-solid" unicode="&#xebe6;" 
d="M320 832l-64 -64l64 -64l64 64zM384 768l64 -64l64 64l-64 64zM512 768l64 -64l64 64l-64 64zM640 768l64 -64l64 64l-64 64zM160 704v-640h704v640h-704zM224 640h576v-512h-192v160h-192v-160h-192v512zM288 576v-64h64v64h-64zM416 576v-64h64v64h-64zM544 576v-64h64
v64h-64zM672 576v-64h64v64h-64zM288 480v-64h64v64h-64zM416 480v-64h64v64h-64zM544 480v-64h64v64h-64zM672 480v-64h64v64h-64zM288 384v-64h64v64h-64zM416 384v-64h64v64h-64zM544 384v-64h64v64h-64zM672 384v-64h64v64h-64zM288 288v-64h64v64h-64zM672 288v-64h64
v64h-64zM480 224h64v-96h-64v96z" />
    <glyph glyph-name="hotjar" unicode="&#xebe7;" 
d="M288 832l55 -61q5 -6 13 -17t19 -41t7 -58q-3 -30 -22.5 -57.5t-54.5 -51.5q-101 -69 -132 -157.5t12 -178.5q16 -33 40.5 -60.5t55 -46.5t66 -29t73.5 -10h58l-37 52q-36 46 -21 112q35 -27 77 -27.5t70 20.5q29 18 46 48.5t18 67.5q13 -20 20 -45q6 -27 7.5 -55.5
t-10.5 -61.5t-36 -56l-54 -55h51q46 0 82 18q120 59 162 216q18 63 7 141.5t-47 143.5q-21 36 -51 68t-64.5 55t-70.5 42t-73.5 31.5t-66.5 21t-58 14t-40 7t-18 2.5zM430 748q42 -9 82.5 -22.5t89 -36.5t90 -58.5t65.5 -79.5q30 -54 39.5 -117.5t-5.5 -119.5
q-24 -93 -76 -141q17 67 -3 137q-10 36 -29.5 65t-45 47.5t-55.5 24.5l-70 15l37 -62q9 -17 13.5 -33.5t4 -30t-5 -25.5t-12 -21t-16.5 -15q-14 -9 -29.5 -10.5t-35 8.5t-34.5 33l-31 45l-24 -49q-4 -7 -8 -16t-9 -27t-8 -35.5t-2 -41t7 -45.5q-18 6 -34.5 15.5t-32.5 22
t-29 30t-22 37.5q-15 33 -16.5 65.5t7.5 58.5t27 50.5t38 42.5t45 34q94 66 104 155q6 49 -16 100z" />
    <glyph glyph-name="hourglass-end-solid" unicode="&#xebe8;" 
d="M224 832v-64h64v-128q0 -60 29.5 -111t79.5 -81q-50 -30 -79.5 -81t-29.5 -111v-128h-64v-64h576v64h-64v128q0 60 -29.5 111t-79.5 81q50 30 79.5 81t29.5 111v128h64v64h-576zM352 768h320v-128q0 -67 -46.5 -113.5t-113.5 -46.5t-113.5 46.5t-46.5 113.5v128zM512 416
q67 0 113.5 -46.5t46.5 -113.5v-128h-32v64q0 53 -37.5 90.5t-90.5 37.5t-90.5 -37.5t-37.5 -90.5v-64h-32v128q0 67 46.5 113.5t113.5 46.5z" />
    <glyph glyph-name="hourglass-half-solid" unicode="&#xebe9;" 
d="M224 832v-64h64v-128q0 -60 29.5 -111t79.5 -81q-50 -30 -79.5 -81t-29.5 -111v-128h-64v-64h576v64h-64v128q0 60 -29.5 111t-79.5 81q50 30 79.5 81t29.5 111v128h64v64h-576zM352 768h320v-128q0 -67 -46.5 -113.5t-113.5 -46.5t-113.5 46.5t-46.5 113.5v128zM389 608
q11 -42 45 -69t78 -27t78 27t45 69h-246zM512 416q67 0 113.5 -46.5t46.5 -113.5v-128h-32q0 53 -37.5 90.5t-90.5 37.5t-90.5 -37.5t-37.5 -90.5h-32v128q0 67 46.5 113.5t113.5 46.5z" />
    <glyph glyph-name="hourglass-solid" unicode="&#xebea;" 
d="M224 832v-64h64v-128q0 -60 29.5 -111t79.5 -81q-50 -30 -79.5 -81t-29.5 -111v-128h-64v-64h576v64h-64v128q0 60 -29.5 111t-79.5 81q50 30 79.5 81t29.5 111v128h64v64h-576zM352 768h320v-128q0 -67 -46.5 -113.5t-113.5 -46.5t-113.5 46.5t-46.5 113.5v128zM512 416
q67 0 113.5 -46.5t46.5 -113.5v-128h-320v128q0 67 46.5 113.5t113.5 46.5z" />
    <glyph glyph-name="hourglass-start-solid" unicode="&#xebeb;" 
d="M224 832v-64h64v-128q0 -60 29.5 -111t79.5 -81q-50 -30 -79.5 -81t-29.5 -111v-128h-64v-64h576v64h-64v128q0 60 -29.5 111t-79.5 81q50 30 79.5 81t29.5 111v128h64v64h-576zM352 768h320v-128q0 -67 -46.5 -113.5t-113.5 -46.5t-113.5 46.5t-46.5 113.5v128zM384 704
v-64q0 -53 37.5 -90.5t90.5 -37.5t90.5 37.5t37.5 90.5v64h-256zM512 416q67 0 113.5 -46.5t46.5 -113.5v-128h-320v128q0 67 46.5 113.5t113.5 46.5z" />
    <glyph glyph-name="hourglass" unicode="&#xebec;" 
d="M224 832v-64h64v-128q0 -60 29.5 -111t79.5 -81q-50 -30 -79.5 -81t-29.5 -111v-128h-64v-64h576v64h-64v128q0 60 -29.5 111t-79.5 81q50 30 79.5 81t29.5 111v128h64v64h-576zM352 768h320v-128q0 -67 -46.5 -113.5t-113.5 -46.5t-113.5 46.5t-46.5 113.5v128zM512 416
q67 0 113.5 -46.5t46.5 -113.5v-128h-320v128q0 67 46.5 113.5t113.5 46.5z" />
    <glyph glyph-name="house-damage-solid" unicode="&#xebed;" 
d="M512 877l-23 -22l-416 -416l46 -46l41 41v-370h283l69 192h-116l116 199v-135h114l-52 -256h290v370l41 -41l46 46l-416 416zM512 786l288 -288v-370h-148l52 256h-128v192h-67l-189 -324v-60h101l-23 -64h-174v370z" />
    <glyph glyph-name="houzz" unicode="&#xebee;" 
d="M512 887l-256 -146v-293l256 146v293zM512 594l256 -146v293zM768 448l-256 -146v-293l256 146v293zM512 302l-256 146v-293z" />
    <glyph glyph-name="hryvnia-solid" unicode="&#xebef;" 
d="M455 800q-49 0 -89 -27l-64 -42l36 -54l64 43q24 16 53 16h140q32 0 54.5 -22.5t22.5 -54.5q0 -7 -1 -13.5t-3.5 -13t-6 -12t-7.5 -11t-10 -9.5l-28 -24h-360v-64h283l-115 -96h-168v-64h91l-8 -7q-51 -42 -51 -108q0 -38 19 -70.5t51.5 -51.5t70.5 -19h140q49 0 89 27
l64 42l-36 54l-63 -43q-25 -16 -54 -16h-140q-32 0 -54.5 22.5t-22.5 54.5q0 36 28 59l67 56h321v64h-244l115 96h129v64h-59q9 12 15 25.5t9 28t3 29.5q0 29 -11 55t-30 45t-45 30t-55 11h-140z" />
    <glyph glyph-name="html5" unicode="&#xebf0;" 
d="M167 832l3 -35l56 -633l2 -22l21 -6l262 -73l9 2l275 76l2 22l57 634l3 34h-35l-620 1h-35zM237 768l550 -1l-52 -576l-223 -62l-224 62zM314 672l21 -239h274l-9 -103l-89 -24l-88 24l-5 66h-80l11 -127l163 -45l162 45l22 243h-289l-7 81h303l7 79h-396z" />
    </font>
</defs>
</svg>
