<?xml version="1.0" standalone="no"?>
<!DOCTYPE svg PUBLIC "-//W3C//DTD SVG 1.1//EN" "http://www.w3.org/Graphics/SVG/1.1/DTD/svg11.dtd" >
<svg xmlns="http://www.w3.org/2000/svg" xmlns:xlink="http://www.w3.org/1999/xlink" version="1.1">
<metadata>
Created by FontForge 20201107 at Sat Jul 31 04:32:51 2021
 By Unknown
</metadata>
<defs>
<font id="jkiticon" horiz-adv-x="1024" >
  <font-face 
    font-family="jkiticon"
    font-weight="400"
    font-stretch="normal"
    units-per-em="1024"
    panose-1="2 0 5 3 0 0 0 0 0 0"
    ascent="960"
    descent="-64"
    bbox="-2 -77.2 1484 962.391"
    underline-thickness="0"
    underline-position="0"
    unicode-range="U+FA8C-FBB8"
  />
<missing-glyph 
 />
    <glyph glyph-name="uniEB50" unicode="&#x671;" arabic-form="isolated" 
d="M536 947q-105 0 -184 -34q-78 -34 -131 -87t-79 -118q-26 -66 -26 -128q0 -76 29 -138t91 -87q10 -4 18.5 0t11.5 15q2 8 5.5 23.5t6.5 23.5q2 11 0.5 17t-9.5 16q-18 21 -28.5 49t-10.5 66q0 56 20 107q21 51 58.5 90t90.5 62q54 23 121 23q59 0 105 -17
q45 -17 76.5 -47.5t47.5 -71.5t16 -90q0 -63 -14 -120q-13 -57 -37.5 -99.5t-59.5 -67.5q-34 -25 -76 -25q-46 0 -75 33t-18 80q14 56 33 112t19 97q0 36 -19.5 62t-59.5 26q-47 0 -80.5 -43.5t-33.5 -108.5q0 -42 10 -67l9 -26l-10 -44q-10 -43 -23.5 -98.5t-25.5 -108.5
q-12 -52 -16 -70q-17 -71 -10 -142.5t8 -80.5q1 -6 6 -7t8 3q4 6 45.5 64.5t60.5 128.5q5 19 23 90l18 71q16 -29 56 -51t88 -22q71 0 129 31q59 30 100.5 84t64.5 128t23 160q0 66 -26 127q-27 60 -75.5 107t-117.5 75t-153 28z" />
    <glyph glyph-name="uniEB51" unicode="&#x671;" arabic-form="final" 
d="M512 960q-106 0 -199 -40q-93 -41 -162.5 -110.5t-110.5 -162.5q-40 -93 -40 -199t40 -199q41 -93 110.5 -162.5t162.5 -110.5q93 -40 199 -40t199 40q93 41 162.5 110.5t110.5 162.5q40 93 40 199t-40 199q-41 93 -110.5 162.5t-162.5 110.5q-93 40 -199 40zM747 221
q-5 -7 -12 -10.5t-14 -3.5q-5 0 -9.5 1.5t-9.5 4.5q-45 32 -102 49q-58 17 -119.5 23t-121.5 2q-61 -4 -111 -16q-13 -3 -24 4t-14 20t4 24t19 14q56 13 123 17q67 5 135 -2t133 -27q64 -20 115 -56q11 -7 13 -20t-5 -24zM809 346q-4 -7 -11 -10.5t-15 -3.5q-5 0 -9.5 1.5
t-8.5 4.5q-53 38 -111 61q-59 24 -125.5 33.5t-141.5 5.5t-161 -21q-13 -3 -24 4.5t-14 20.5q-2 13 5 24t20 13q93 19 175 23t154.5 -6.5t136.5 -37.5q65 -26 123 -67q11 -8 13 -21t-6 -24zM872 513q-4 -6 -11 -10t-15 -4q-5 0 -9.5 1.5t-8.5 4.5q-66 45 -147 68
q-80 24 -163 29.5t-163 -5.5q-80 -10 -145 -33q-13 -4 -25 1.5t-16 17.5q-5 13 1 25t18 16q71 25 158 37q87 11 178 4.5t179 -32.5t161 -75q11 -7 13.5 -20.5t-5.5 -24.5z" />
    <glyph glyph-name="uniEB52" unicode="&#x67b;" arabic-form="isolated" 
d="M864 480q-9 0 -17 -1t-16 -3q-6 55 -30 102q-25 48 -63.5 83t-87.5 55q-50 20 -106 20q-13 0 -22.5 -9.5t-9.5 -22.5v-512q0 -13 9.5 -22.5t22.5 -9.5h320q66 0 113 47t47 113t-47 113t-113 47zM416 672q-13 0 -22.5 -9.5t-9.5 -22.5v-448q0 -13 9.5 -22.5t22.5 -9.5
t22.5 9.5t9.5 22.5v448q0 13 -9.5 22.5t-22.5 9.5zM288 544q-13 0 -22.5 -9.5t-9.5 -22.5v-320q0 -13 9.5 -22.5t22.5 -9.5t22.5 9.5t9.5 22.5v320q0 13 -9.5 22.5t-22.5 9.5zM160 544q-13 0 -22.5 -9.5t-9.5 -22.5v-320q0 -13 9.5 -22.5t22.5 -9.5t22.5 9.5t9.5 22.5v320
q0 13 -9.5 22.5t-22.5 9.5zM32 448q-13 0 -22.5 -9.5t-9.5 -22.5v-192q0 -13 9.5 -22.5t22.5 -9.5t22.5 9.5t9.5 22.5v192q0 13 -9.5 22.5t-22.5 9.5z" />
    <glyph glyph-name="uniEB53" unicode="&#x67b;" arabic-form="final" 
d="M995 339q5 25 8 51t3 53q0 99 -39 187q-38 88 -104 153.5t-155 102.5q-89 38 -191 38q-21 0 -42 -1.5t-41 -5.5q-33 20 -71 31.5t-80 11.5q-58 0 -110 -22t-90 -60t-61 -89q-22 -50 -22 -108q0 -39 10 -74.5t29 -67.5q-5 -23 -7.5 -47t-2.5 -49q0 -100 38 -188
q39 -87 105 -152.5t155 -103.5t190 -38q23 0 45.5 2t44.5 6q30 -16 63.5 -24.5t70.5 -8.5q58 0 110 22t90 60t61 89q22 50 22 108q0 34 -7.5 65t-21.5 59zM768 213q-17 -24 -42 -42.5t-57 -32.5q-32 -13 -70.5 -19.5t-82.5 -6.5q-53 0 -96.5 9t-78.5 27q-24 13 -44.5 30.5
t-35.5 39.5q-16 23 -23.5 44.5t-7.5 42.5q0 14 5 25t15 21q10 9 23 13.5t28 4.5q13 0 23.5 -3.5t19.5 -10.5q8 -7 15.5 -17.5t13.5 -23.5q6 -15 13 -27.5t15 -21.5q7 -10 17 -18t24 -14q13 -6 30.5 -9t39.5 -3q31 0 55.5 6t43.5 19q18 12 27 27t9 33q0 14 -4.5 25.5
t-14.5 20.5t-23 16t-29 12q-17 5 -39.5 10.5t-50.5 11.5q-38 8 -70 17.5t-58 20.5t-47 26t-36 34q-16 20 -24 44t-8 53q0 27 8.5 51.5t24.5 45.5t40 37.5t55 27.5q30 11 66 17t77 6q33 0 61.5 -4t52.5 -11q24 -8 44.5 -18t36.5 -22t28 -25.5t19 -27.5q8 -14 12 -27.5
t4 -27.5q0 -12 -5 -24t-15 -22t-23 -15.5t-28 -5.5q-13 0 -23.5 3.5t-18.5 9.5q-6 6 -13.5 15.5t-15.5 23.5q-9 17 -20 30t-24 23q-12 9 -32.5 14t-48.5 5q-26 0 -47.5 -5.5t-37.5 -15.5q-15 -10 -22.5 -21.5t-7.5 -24.5q0 -8 2.5 -15t7.5 -13q5 -7 12 -12t17 -10
q9 -5 19 -8.5t20 -6.5t27 -7t41 -9q29 -7 56.5 -14t51.5 -14q24 -8 45 -17.5t38 -20.5q18 -11 31.5 -25.5t23.5 -31.5q10 -18 15 -39t5 -46q0 -30 -8.5 -57t-25.5 -50z" />
    <glyph glyph-name="uniEB54" unicode="&#x67b;" arabic-form="initial" 
d="M293 82q0 -60 -43 -103t-104 -43q-60 0 -103 43t-43 103q0 61 43 104t103 43q61 0 104 -43t43 -104zM0 619v-195q101 0 190 -39q88 -38 154.5 -104.5t104.5 -154.5q39 -89 39 -190h195q0 141 -54 265q-54 125 -146.5 217.5t-217.5 146.5q-124 54 -265 54zM0 960v-195
q171 0 322 -65q151 -66 264 -178.5t178 -263.5t65 -322h195q0 212 -81 398q-80 187 -219 326t-326 219q-186 81 -398 81z" />
    <glyph glyph-name="uniEB55" unicode="&#x67b;" arabic-form="medial" 
d="M1024 480q0 53 -37.5 90t-89.5 37q-22 0 -41.5 -6.5t-35.5 -19.5q-53 38 -121 59.5t-142 27.5l53 125l156 -36q3 -36 30 -61t64 -25q40 0 68 28t28 68q0 39 -28 67t-68 28q-25 0 -46 -12t-34 -31l-181 42q-12 3 -22 -2.5t-15 -15.5l-74 -174q-80 -2 -154 -24t-132 -62
q-16 12 -35 18t-40 6q-52 0 -89.5 -37t-37.5 -90q0 -35 17.5 -64.5t46.5 -45.5v-18q0 -65 35 -123t95.5 -101.5t141.5 -68.5q82 -25 174 -25t173 25t142 68.5t96 101.5t35 123v8l-1 7q31 16 50 46.5t19 66.5zM860 798q13 0 22.5 -9t9.5 -22q0 -14 -9.5 -23t-22.5 -9t-22.5 9
t-9.5 23q0 13 9.5 22t22.5 9zM287 384q0 27 18.5 45.5t44.5 18.5q27 0 45.5 -18.5t18.5 -45.5q0 -26 -18.5 -44.5t-45.5 -18.5q-26 0 -44.5 18.5t-18.5 44.5zM657 173q-33 -24 -71 -36t-76 -12q-39 0 -76.5 12t-70.5 36q-11 8 -13 21t6 23q7 11 20 13t24 -5
q49 -36 109.5 -36t110.5 36q10 7 23 5t21 -13q8 -10 6 -23t-13 -21zM669 321q-26 0 -45 18.5t-19 44.5q0 27 19 45.5t45 18.5t45 -18.5t19 -45.5q0 -26 -19 -44.5t-45 -18.5z" />
    <glyph glyph-name="uniEB56" unicode="&#x67e;" arabic-form="isolated" 
d="M512 960q-106 0 -199 -40q-93 -41 -162.5 -110.5t-110.5 -162.5q-40 -93 -40 -199t40 -199q41 -93 110.5 -162.5t162.5 -110.5q93 -40 199 -40t199 40q93 41 162.5 110.5t110.5 162.5q40 93 40 199t-40 199q-41 93 -110.5 162.5t-162.5 110.5q-93 40 -199 40zM512 0
q-93 0 -174 35q-82 36 -142.5 96.5t-96.5 142.5q-35 81 -35 174t35 174q36 82 96.5 142.5t142.5 96.5q81 35 174 35t174 -35q82 -36 142.5 -96.5t96.5 -142.5q35 -81 35 -174t-35 -174q-36 -82 -96.5 -142.5t-142.5 -96.5q-81 -35 -174 -35zM512 832q-20 0 -39.5 -2
t-38.5 -6q34 -50 66 -101.5t60 -104.5q53 25 102.5 56.5t94.5 69.5q-50 41 -112.5 64.5t-132.5 23.5zM803 698q-50 -41 -104 -75.5t-112 -61.5q13 -26 24.5 -53t22.5 -54q64 13 130 14.5t131 -9.5q-1 69 -26 130t-66 109zM369 804q-43 -17 -80 -44q-38 -27 -68 -61.5
t-51 -76.5q-21 -41 -32 -87q47 -2 93 0q46 3 91.5 10.5t90.5 19.5q44 12 87 29q-29 54 -61.5 107t-69.5 103zM529 536q-42 -16 -85 -29q-43 -12 -86.5 -20.5t-88.5 -13.5q-45 -4 -90 -4q-12 0 -24.5 0.5t-25.5 1.5q0 -6 -0.5 -11.5t-0.5 -11.5q0 -71 24 -134t66 -113
q35 43 75 79q41 37 85.5 67t93.5 53q48 23 100 38q-10 25 -21 49.5t-22 48.5zM658 394q23 -64 41 -129.5t31 -132.5q32 22 59 51q28 28 48.5 61.5t34.5 71.5t20 79q-59 10 -118 9.5t-116 -10.5zM595 379q-48 -14 -94 -36q-46 -21 -88 -49.5t-79 -62.5q-38 -35 -70 -76
q50 -42 113.5 -66.5t134.5 -24.5q43 0 83 9t76 26q-13 72 -32 142t-44 138z" />
    <glyph glyph-name="uniEB57" unicode="&#x67e;" arabic-form="final" 
d="M512 960q-106 0 -199 -40q-93 -41 -162.5 -110.5t-110.5 -162.5q-40 -93 -40 -199t40 -199q41 -93 110.5 -162.5t162.5 -110.5q93 -40 199 -40t199 40q93 41 162.5 110.5t110.5 162.5q40 93 40 199t-40 199q-41 93 -110.5 162.5t-162.5 110.5q-93 40 -199 40zM512 896
q68 0 130 -19.5t115 -53.5q-18 -11 -32.5 -34.5t-14.5 -69.5q0 -24 14 -52t33 -61q23 -39 45 -84t15 -80q-8 -23 -26.5 -72t-39.5 -105l-133 380q2 1 4.5 1.5t3.5 0.5q13 4 19 16t2 25q-5 12 -16.5 18t-24.5 2q-20 -7 -52 -8t-54 -1h-18q-22 0 -54 1t-52 8q-12 4 -24 -2
t-16 -18q-5 -13 1 -25t19 -16q10 -3 21.5 -5t23.5 -4l79 -204l-74 -188l-127 398q3 1 6.5 1.5t7.5 1.5q12 4 18 16t2 25q-4 12 -16 18t-25 2q-20 -7 -52 -8t-54 -1h-9q-4 0 -7.5 0.5t-7.5 0.5q30 44 70 80q40 37 87.5 62.5t101.5 39.5q53 14 111 14zM64 448q0 38 6.5 74
t17.5 70l196 -529q-49 29 -90 70q-40 41 -69 90.5t-45 106.5t-16 118zM512 0q-33 0 -65 5t-62 14l129 327l126 -327q-31 -9 -63 -14t-65 -5zM741 64q16 40 36 91q19 51 38.5 101.5t35.5 93.5t25 66q1 2 1.5 4.5t1.5 5.5l9 28l9 26q12 37 19.5 70.5t11.5 62.5
q15 -39 23.5 -80t8.5 -85q0 -61 -16 -118t-44.5 -106t-69.5 -90q-40 -41 -89 -70z" />
    <glyph glyph-name="uniEB58" unicode="&#x67e;" arabic-form="initial" 
d="M683 896h-342l308 -576h341zM304 830l-304 -531l171 -299l298 521zM391 256l-147 -256h620l160 256h-633z" />
    <glyph glyph-name="uniEB59" unicode="&#x67e;" arabic-form="medial" 
d="M723 960l-211 -177l304 -189l208 168zM301 960l-301 -198l208 -168l304 189zM0 426l301 -199l211 178l-304 189zM816 594l-304 -189l211 -178l301 199zM738 161q-4 -3 -8.5 -4.5t-9.5 -1.5t-10.5 2t-9.5 6l-188 158l-188 -158q-8 -7 -18.5 -7.5t-19.5 5.5l-94 62v-95
l321 -192l319 192v95z" />
    <glyph glyph-name="uniEB5A" unicode="&#x680;" arabic-form="isolated" 
d="M998 564q-16 7 -68.5 6t-71.5 16q-14 13 -17.5 35t-9.5 53q-9 50 -14.5 69.5t-14.5 39.5q-17 36 -44 68q-28 32 -61.5 56.5t-70.5 38.5q-38 14 -75 14h-227q-66 0 -126 -26q-59 -25 -103 -69t-69 -103q-26 -59 -26 -126v-377q0 -67 26 -125q25 -59 69 -103t103 -70
q60 -25 126 -25h373q67 0 126 25q59 26 103 70t70 103q26 58 26 125l2 261l-4 18zM329 695h180q25 0 43.5 -18t18.5 -43q0 -26 -18.5 -44t-43.5 -18h-180q-26 0 -44.5 18.5t-18.5 43.5t18.5 43t44.5 18zM694 202h-365q-26 0 -44.5 18.5t-18.5 43.5t18.5 43t44.5 18h365
q26 0 44 -18t18 -43t-18 -43.5t-44 -18.5z" />
    <glyph glyph-name="uniEB5B" unicode="&#x680;" arabic-form="final" 
d="M256 704l-256 -256h384l96 32l32 96v128h-256zM480 416l-96 32h-128v-256l256 -256v384zM640 448l-96 -32l-32 -96v-128h256l256 256h-384zM512 960v-384l32 -96l96 -32h128v256z" />
    <glyph glyph-name="uniEB5C" unicode="&#x680;" arabic-form="initial" 
d="M512 960q-93 0 -174 -35q-82 -36 -142.5 -96.5t-96.5 -142.5q-35 -81 -35 -174q0 -84 29 -159q30 -75 81.5 -134.5t121.5 -98.5q70 -40 152 -52v-132h32q96 0 183 47t153 126t105 184q39 104 39 219q0 93 -35 174q-36 82 -96.5 142.5t-142.5 96.5q-81 35 -174 35z
M448 441l-12 -35l-84 -54v96h-96v192h192v-199zM768 441l-12 -35l-84 -54v96h-96v192h192v-199z" />
    <glyph glyph-name="uniEB5D" unicode="&#x680;" arabic-form="medial" 
d="M992 960h-239l-356 -623l229 -401h240l-229 401zM298 768h-225l130 -230l-171 -282h226l171 282z" />
    <glyph glyph-name="uniEB5E" unicode="&#x67a;" arabic-form="isolated" 
d="M800 512q-47 0 -88 -18t-72 -50v4q0 79 -56.5 135.5t-135.5 56.5q-47 0 -86.5 -21t-65.5 -55q-21 34 -57 55t-79 21q-66 0 -113 -47t-47 -113v-224h256v-128h320v-192h448v352q0 46 -18 87q-17 41 -47.5 71.5t-71.5 47.5q-41 18 -87 18zM992 768q0 -80 -56 -136t-136 -56
t-136 56t-56 136t56 136t136 56t136 -56t56 -136zM576 800q0 -53 -37.5 -90.5t-90.5 -37.5t-90.5 37.5t-37.5 90.5t37.5 90.5t90.5 37.5t90.5 -37.5t37.5 -90.5zM256 768q0 -40 -28 -68t-68 -28t-68 28t-28 68t28 68t68 28t68 -28t28 -68z" />
    <glyph glyph-name="uniEB5F" unicode="&#x67a;" arabic-form="final" 
d="M1024 448q0 -46 -18 -87q-17 -41 -47.5 -71.5t-71.5 -47.5q-41 -18 -87 -18t-87 18q-41 17 -71.5 47.5t-47.5 71.5q-18 41 -18 87t18 87q17 41 47.5 71.5t71.5 47.5q41 18 87 18t87 -18q41 -17 71.5 -47.5t47.5 -71.5q18 -41 18 -87zM448 448q0 -46 -18 -87
q-17 -41 -47.5 -71.5t-71.5 -47.5q-41 -18 -87 -18t-87 18q-41 17 -71.5 47.5t-47.5 71.5q-18 41 -18 87t18 87q17 41 47.5 71.5t71.5 47.5q41 18 87 18t87 -18q41 -17 71.5 -47.5t47.5 -71.5q18 -41 18 -87z" />
    <glyph glyph-name="uniEB60" unicode="&#x67a;" arabic-form="initial" 
d="M824 954q-14 7 -53 6q-38 -2 -89 -16t-108 -43q-56 -29 -107 -78q-79 -79 -121 -165t-60.5 -157.5t-21.5 -118.5l-2 -47l-8 -9l-29 22q-25 31 -32 78q-8 47 -7.5 93t5.5 83q5 36 7 46q4 28 -8.5 32t-20.5 -6q-88 -122 -100 -231q-13 -110 18 -198.5t89 -152.5
q57 -64 109 -96q61 -37 147 -53q85 -16 172.5 1.5t165.5 72.5q79 56 127 162q60 131 62 266q3 134 -21.5 244.5t-60.5 183.5t-53 81z" />
    <glyph glyph-name="uniEB61" unicode="&#x67a;" arabic-form="medial" 
d="M768 891v-635h218q18 44 28 92.5t10 99.5q0 71 -18 137q-19 65 -52.5 122t-80.5 104q-48 47 -105 80zM512 960q-46 0 -90 -8t-85 -23l367 -343v336q-44 18 -92.5 28t-99.5 10zM320 192v-218q44 -18 92.5 -28t99.5 -10q71 0 137 18q65 19 122 52.5t104 80.5q47 48 80 105
h-635zM273 901q-61 -33 -111 -80t-86 -105.5t-56 -126.5q-20 -67 -20 -141q0 -34 4.5 -66.5t12.5 -63.5l433 418zM40 250q16 -39 38 -74q23 -35 50.5 -66t59.5 -58q32 -26 68 -47v454z" />
    <glyph glyph-name="uniEB62" unicode="&#x67f;" arabic-form="isolated" 
d="M768 864v-576h-128v576h-256v-576h-64q-26 0 -45 19t-19 45v512h-256v-512q0 -66 25 -124q25 -59 68.5 -102.5t102.5 -68.5q58 -25 124 -25h704v832h-256z" />
    <glyph glyph-name="uniEB63" unicode="&#x67f;" arabic-form="final" 
d="M198 384q12 -55 40 -102q29 -46 70.5 -80.5t93.5 -54.5q52 -19 110 -19t110 19q52 20 93.5 54.5t70.5 80.5q28 47 40 102h-628zM512 960q-106 0 -199 -40q-94 -40 -163.5 -109.5t-109.5 -163.5q-40 -93 -40 -199t40 -199q40 -94 109.5 -163.5t163.5 -109.5
q93 -40 199 -40t199 40q94 40 163.5 109.5t109.5 163.5q40 93 40 199t-40 199q-40 94 -109.5 163.5t-163.5 109.5q-93 40 -199 40zM672 736q26 0 45 -19t19 -45t-19 -45t-45 -19t-45 19t-19 45t19 45t45 19zM352 736q26 0 45 -19t19 -45t-19 -45t-45 -19t-45 19t-19 45
t19 45t45 19zM512 64q-79 0 -149 30t-122.5 82.5t-82.5 122.5t-30 149v64h768v-64q0 -79 -30 -149t-82.5 -122.5t-122.5 -82.5t-149 -30z" />
    <glyph glyph-name="uniEB64" unicode="&#x67f;" arabic-form="initial" 
d="M832 768v192h-192l-94 -175q-5 -8 -12.5 -12.5t-15.5 -4.5h-326v-256h153q18 0 27.5 -15.5t0.5 -31.5l-181 -337v-192h192l94 175q5 8 12.5 12.5t15.5 4.5h326v256h-153q-18 0 -27.5 15.5t-0.5 31.5z" />
    <glyph glyph-name="uniEB65" unicode="&#x67f;" arabic-form="medial" 
d="M819 64q0 -27 -19 -45.5t-45 -18.5q-27 0 -45.5 18.5t-18.5 45.5t18.5 45.5t45.5 18.5q26 0 45 -18.5t19 -45.5zM960 878q-9 8 -20.5 13t-24.5 5q-24 0 -42 -16t-21 -41l-97 -610q-2 -13 5.5 -23.5t19.5 -12.5q2 -1 4 -1h3q11 0 19.5 6.5t11.5 17.5l158 596q1 1 1 3
q1 2 1.5 5t0.5 5q0 16 -5 29.5t-14 23.5zM627 939q-4 7 -11.5 10.5t-15.5 3.5q-11 0 -22 1.5t-22 4.5q-12 3 -23 -2t-15 -17l-179 -429l-179 429q-5 12 -16 17t-22 2t-22 -4.5t-22 -1.5q-8 0 -15.5 -3.5t-11.5 -10.5q-5 -7 -6 -15t3 -16l227 -523v-417q0 -13 9.5 -22.5
t22.5 -9.5h64q13 0 22.5 9.5t9.5 22.5v418l227 522q4 8 3 16t-6 15z" />
    <glyph glyph-name="uniEB66" unicode="&#x679;" arabic-form="isolated" 
d="M656 689q0 58 20 87.5t51 29.5q30 0 48 -27t18 -81q0 -31 -6.5 -62.5t-12.5 -51.5l34 -32l114 -16q17 38 26 85t9 91q0 59 -14 105q-15 46 -43.5 78t-70.5 48q-42 17 -97 17q-56 0 -100 -20q-44 -21 -74.5 -57t-46.5 -85t-16 -107q0 -56 13 -108t37 -96.5t59 -78.5
q34 -35 77 -57q-36 -74 -81 -137.5t-94 -112.5q-44 54 -85 118q-41 65 -76 149t-62 191q-27 108 -43 247h-173q30 -232 84 -389q55 -157 113 -255.5t109 -147.5q51 -48 75 -62q26 -16 50 -16t48 14q20 11 55 44q36 33 77.5 81.5t83.5 110.5q42 61 74 129q27 0 58 3.5
t63 10.5v122q-19 -5 -38 -7t-36 -2q-48 0 -90 17q-41 16 -71.5 48t-47.5 78q-18 46 -18 104z" />
    <glyph glyph-name="uniEB67" unicode="&#x679;" arabic-form="final" 
d="M512 960h512v-512h-512v512zM0 448h512v-512h-512v512z" />
    <glyph glyph-name="uniEB68" unicode="&#x679;" arabic-form="initial" 
d="M680 448l222 244q45 49 42 115.5t-52 110.5q-49 45 -115.5 42t-110.5 -52l-266 -293v185q0 66 -47 113t-113 47t-113 -47t-47 -113v-704q0 -66 47 -113t113 -47t113 47t47 113v185l266 -293q23 -26 54 -39t64 -13q29 0 57 10.5t51 31.5q49 44 52 110.5t-42 115.5z" />
    <glyph glyph-name="uniEB69" unicode="&#x679;" arabic-form="medial" 
d="M512 892q-49 0 -93 -19q-43 -19 -75.5 -51.5t-51.5 -75.5q-19 -44 -19 -93v-410q0 -14 -10 -24t-24 -10t-24 10t-10 24v171h-205v-171q0 -49 19 -93q19 -43 51.5 -75.5t75.5 -51.5q44 -19 93 -19t93 19q43 19 75.5 51.5t51.5 75.5q19 44 19 93v410q0 14 10 24t24 10
t24 -10t10 -24v-130l103 -68l102 68v130q0 49 -19 93q-19 43 -51.5 75.5t-75.5 51.5q-44 19 -93 19zM819 414v-171q0 -14 -10 -24t-24 -10t-24 10t-10 24v198l-84 -56q-4 -2 -8.5 -3.5t-9.5 -1.5t-10 1.5t-9 3.5l-84 56v-198q0 -49 19 -93q19 -43 51.5 -75.5t75.5 -51.5
q44 -19 93 -19t93 19q43 19 75.5 51.5t51.5 75.5q19 44 19 93v171h-205z" />
    <glyph glyph-name="uniEB6A" unicode="&#x6a4;" arabic-form="isolated" 
d="M866 505q-7 3 -13.5 5t-12.5 4q-48 16 -75 31t-27 54q0 31 21 51.5t53 20.5q24 0 43 -11t36 -35q1 -2 3.5 -3t5.5 1l64 34l4 4v3l-1 3q-26 48 -63.5 71.5t-88.5 23.5q-77 0 -123.5 -45t-46.5 -120q0 -77 47.5 -116t136.5 -69q52 -18 75.5 -33.5t23.5 -54.5q0 -43 -33 -70
t-84 -26q-54 2 -77 30t-43 76q-17 41 -35 83q-17 42 -31 76t-23 55q-9 22 -9 23q-20 47 -49 83q-29 37 -65.5 62.5t-79.5 38.5t-91 13q-64 0 -120 -25t-98 -68.5t-66 -102.5q-24 -58 -24 -124t24 -124q24 -59 66 -102.5t98 -68.5t120 -25q69 0 131.5 30.5t106.5 86.5
q1 2 1.5 4t-0.5 4l-39 93q0 2 -2 3t-4 1t-4 -1t-3 -3q-27 -54 -77.5 -86t-109.5 -32q-44 0 -82 18q-39 17 -67.5 47t-45.5 70q-16 40 -16 85t16 85q17 40 45.5 70t67.5 47q38 18 82 18q64 0 117 -36t76 -95l97 -227l11 -26q32 -79 82 -115.5t125 -36.5q44 0 82 14
q38 15 66 40.5t44 59.5q16 35 16 76q0 81 -41.5 119.5t-116.5 63.5z" />
    <glyph glyph-name="uniEB6B" unicode="&#x6a4;" arabic-form="final" 
d="M709 764q-2 0 -8.5 -1t-13.5 -2l-60 -12l-93 -19l-88 -18q-38 -8 -40 -8q-4 -2 -8.5 -6t-6.5 -8l-3 -5v-179l-1 -125q-1 -57 -2 -59q-2 -4 -6 -8t-8 -5q-2 -1 -9 -2.5t-15 -3.5q-35 -7 -51.5 -13.5t-28.5 -17.5q-6 -7 -10.5 -15.5t-6.5 -17.5q-2 -8 -1.5 -19.5t3.5 -19.5
q6 -17 18 -28.5t30 -15.5q16 -4 41.5 0t41.5 13q6 4 13.5 11t12.5 14l3 7l4 8q3 7 4 61q2 54 2.5 116t1.5 113v53q1 5 4.5 8.5t8.5 5.5q2 0 39 8q36 7 80 16t81 17q37 7 40 7q4 1 8 -0.5t6 -4.5q1 -1 2 -36q1 -36 1.5 -78.5t-0.5 -78.5q0 -36 -3 -39q-3 -4 -11 -6t-26 -6
q-26 -5 -38 -8.5t-23 -9.5q-12 -6 -20 -13.5t-13 -19.5q-4 -8 -5.5 -14.5t-1.5 -14.5q0 -15 5 -26.5t16 -22.5q8 -8 15.5 -12.5t16.5 -6.5q11 -2 30 -1t34 6q21 6 35.5 21t20.5 37q1 4 1.5 8.5t0.5 8.5v453q-2 6 -7 10t-12 4zM512 928q-100 0 -187 -37q-88 -38 -153 -103
t-103 -153q-37 -87 -37 -186q0 -100 37 -187q38 -88 103 -153t153 -103q87 -37 186 -37q100 0 187 37q88 38 153 103t103 153q37 87 37 186q0 100 -37 187q-38 88 -103 153t-153 103q-87 37 -186 37zM512 9q-92 0 -172 34q-80 35 -139.5 94.5t-94.5 139.5q-34 80 -34 171
q0 92 34 172q35 80 94.5 139.5t139.5 94.5q80 34 171 34q92 0 172 -34q80 -35 139.5 -94.5t94.5 -139.5q34 -80 34 -171q0 -92 -34 -172q-35 -80 -94.5 -139.5t-139.5 -94.5q-80 -34 -171 -34z" />
    <glyph glyph-name="uniEB6C" unicode="&#x6a4;" arabic-form="initial" 
d="M1023 659q-2 41 -8 70.5t-16 53.5q-10 26 -24.5 49t-34.5 42q-19 19 -42 34t-49 25q-24 9 -53.5 15.5t-70.5 8.5t-74 2.5t-137 0.5t-137 -0.5t-74 -2.5t-70.5 -8t-53.5 -16q-26 -10 -49 -24.5t-42 -34.5q-20 -19 -35 -42t-24 -49q-10 -24 -16 -53.5t-8 -70.5t-2.5 -74
t-0.5 -137t0.5 -137t2.5 -74t8 -70.5t16 -53.5q9 -26 24 -49t35 -42q19 -20 42 -35t48 -24q25 -10 54.5 -16t70.5 -8t73.5 -2.5t137.5 -0.5q104 0 137 0.5t74 2.5t70.5 8t53.5 16q52 20 91 59t59 91q9 24 15.5 53.5t8.5 70.5q1 41 2 74t1 137t-0.5 137t-2.5 74zM931 241
q-2 -38 -7.5 -60t-10.5 -35q-13 -34 -38.5 -59t-58.5 -38q-14 -6 -36 -11t-59 -7q-41 -2 -72.5 -2.5t-134.5 -0.5q-102 0 -134 0.5t-73 2.5q-37 2 -59 7t-36 11q-16 6 -31 15.5t-28 22.5q-12 12 -22 27t-16 32q-5 13 -10.5 35t-6.5 60q-2 40 -2.5 72t-0.5 135q0 102 0.5 134
t2.5 72q1 38 6.5 60t10.5 35q6 17 16 32t23 27q12 13 27 22.5t31 15.5q14 6 36 11t59 7q41 2 73 2.5t134 0.5q103 0 135 -0.5t72 -2.5q38 -2 60 -7t35 -11q17 -6 32 -15.5t27 -22.5q13 -12 22.5 -27t15.5 -32q5 -13 10.5 -35t7.5 -60q2 -40 2.5 -72t0.5 -134
q0 -103 -0.5 -135t-2.5 -72zM514 711q-55 0 -102 -21q-48 -20 -84 -56t-56 -84q-21 -48 -21 -102q0 -55 21 -102q20 -48 56 -84t84 -56q47 -21 102 -21q54 0 102 21q48 20 84 56t56 84q21 47 21 102q0 54 -21 102q-20 48 -56 84t-84 56q-48 21 -102 21zM514 277
q-71 0 -121 50t-50 121t50 121t121 50t121 -50t50 -121t-50 -121t-121 -50zM849 721q0 -25 -18 -43t-44 -18q-25 0 -43 18t-18 43q0 26 18 44t43 18q26 0 44 -18t18 -44z" />
    <glyph glyph-name="uniEB6D" unicode="&#x6a4;" arabic-form="medial" 
d="M150 -64h334v364h-120v120h120v150q0 62 44 106t106 44h150v-120h-120q-25 0 -42.5 -17.5t-17.5 -42.5v-120h175l-20 -120h-155v-364h270q62 0 106 44t44 106v724q0 62 -44 106t-106 44h-724q-62 0 -106 -44t-44 -106v-724q0 -62 44 -106t106 -44zM60 810q0 37 26.5 63.5
t63.5 26.5h724q37 0 63.5 -26.5t26.5 -63.5v-724q0 -37 -26.5 -63.5t-63.5 -26.5h-210v244h145l40 240h-185v60h180v240h-210q-43 0 -82 -17q-38 -16 -66.5 -44.5t-44.5 -66.5q-17 -39 -17 -82v-90h-120v-240h120v-244h-274q-37 0 -63.5 26.5t-26.5 63.5v724z" />
    <glyph glyph-name="uniEB6E" unicode="&#x6a6;" arabic-form="isolated" 
d="M150 -64h724q62 0 106 44t44 106v724q0 62 -44 106t-106 44h-724q-62 0 -106 -44t-44 -106v-724q0 -62 44 -106t106 -44zM60 810q0 37 26.5 63.5t63.5 26.5h724q37 0 63.5 -26.5t26.5 -63.5v-724q0 -37 -26.5 -63.5t-63.5 -26.5h-724q-37 0 -63.5 26.5t-26.5 63.5v724z
M512 178q56 0 105 21q49 22 85.5 58.5t58.5 85.5q21 49 21 105t-21 105q-22 49 -58.5 85.5t-85.5 58.5q-49 21 -105 21t-105 -21q-49 -22 -85.5 -58.5t-58.5 -85.5q-21 -49 -21 -105t21 -105q22 -49 58.5 -85.5t85.5 -58.5q49 -21 105 -21zM512 658q43 0 82 -17
q38 -16 66.5 -44.5t44.5 -66.5q17 -39 17 -82t-17 -82q-16 -38 -44.5 -66.5t-66.5 -44.5q-39 -17 -82 -17t-82 17q-38 16 -66.5 44.5t-44.5 66.5q-17 39 -17 82t17 82q16 38 44.5 66.5t66.5 44.5q39 17 82 17zM812 658q37 0 63.5 26.5t26.5 63.5t-26.5 63.5t-63.5 26.5
t-63.5 -26.5t-26.5 -63.5t26.5 -63.5t63.5 -26.5zM812 778q12 0 21 -9t9 -21t-9 -21t-21 -9t-21 9t-9 21t9 21t21 9z" />
    <glyph glyph-name="uniEB6F" unicode="&#x6a6;" arabic-form="final" 
d="M1024 754q-48 -2 -56.5 -2.5t-13.5 -0.5l38 109l-64 -23l-85 -29q-60 53 -139.5 57t-142.5 -34q-52 -32 -77.5 -84.5t-15.5 -116.5q-51 7 -97 23q-47 15 -89 39t-80 56t-71 72l-28 34l-22 -39q-20 -37 -26 -77.5t2 -80.5q3 -16 8.5 -31.5t12.5 -29.5l-24 9l-3 -40
q-2 -31 8 -65t29 -64q5 -8 12.5 -17t16.5 -18l-13 2l15 -46q15 -46 45.5 -80.5t70.5 -54.5q-40 -17 -77.5 -30t-91.5 -31l-66 -22l61 -33q17 -9 71 -33.5t114 -33.5q68 -11 138 -11t137.5 13t129.5 41t113 74q43 39 72 85t46 97.5t23 107.5t3 113q0 17 4.5 33t13.5 29
q19 25 58 79zM878 657q-15 -21 -23 -47t-6 -54q3 -58 -4 -109q-6 -52 -21.5 -96.5t-40.5 -81.5q-25 -38 -59 -68q-40 -36 -91 -61t-111 -38t-127 -14t-139 10q-26 4 -52 12.5t-49 17.5q45 15 85.5 31.5t96.5 42.5l105 50l-116 7q-41 3 -75 22.5t-55 51.5q11 1 22 3t22 5
l111 31l-112 27q-40 10 -64.5 31t-36.5 39q-8 12 -13.5 24.5t-8.5 24.5q8 -3 19 -4.5t26 -3.5l103 -10l-81 64q-44 34 -61 82.5t-4 98.5q68 -72 140 -108q71 -37 130.5 -52.5t100.5 -17.5q41 -1 49 -3q-3 35 -4 41t-2 10q-21 73 9.5 112.5t51.5 52.5q43 26 103.5 26
t107.5 -44q10 -9 23 -12.5t26 -0.5q12 3 22 6t19 6l-26 -74h33q-5 -6 -10.5 -13.5t-12.5 -16.5z" />
    <glyph glyph-name="uniEB70" unicode="&#x6a6;" arabic-form="initial" 
d="M248 9q59 -36 125.5 -54.5t136.5 -18.5q106 0 199 41q94 40 164 109.5t110 162.5q41 93 41 199t-41 199q-40 93 -110 162.5t-164 110.5q-93 40 -199 40q-105 0 -198 -40q-93 -41 -162 -110.5t-110 -162.5q-40 -93 -40 -199q0 -70 18.5 -137.5t54.5 -126.5l-73 -248z
M60 448q0 94 36 176q35 82 96 143.5t143 96.5q82 36 175 36q94 0 177 -36q82 -35 144 -96.5t97 -143.5q36 -82 36 -176q0 -93 -36 -176q-35 -82 -97 -143.5t-144 -96.5q-83 -36 -177 -36q-64 0 -126 18t-116 53l-11 7l-168 -49l49 168l-7 11q-35 54 -53 116.5t-18 127.5z
M249 542q8 -39 34.5 -106t90.5 -131t131.5 -91t106.5 -34q45 -9 101.5 -6t88.5 36l23 23q9 9 14 21t5 24q0 13 -5 24.5t-14 20.5l-95 96q-9 9 -20.5 13.5t-24.5 4.5t-24.5 -4.5t-20.5 -13.5l-24 -24q-11 -11 -28 -11t-28 11l-96 99q-11 11 -11 26.5t11 26.5l24 24
q19 18 19 44.5t-19 45.5l-95 95q-19 19 -45.5 19t-44.5 -19l-24 -24q-26 -25 -34 -76t4 -114zM321 690q19 18 22 21.5t5 3.5l2 -1q76 -76 86.5 -86t10.5 -12q0 -1 -0.5 -1.5t-0.5 -1.5l-24 -24q-29 -28 -29 -68.5t29 -68.5l95 -100q29 -28 71 -28t71 28l24 24q1 1 2.5 1
t2.5 -1q75 -75 85.5 -85t10.5 -14l-25 -25q-12 -12 -48.5 -17.5t-87.5 4.5q-34 6 -92.5 29.5t-113.5 78.5q-56 56 -79 114.5t-30 92.5q-10 51 -4.5 87.5t17.5 48.5z" />
    <glyph glyph-name="uniEB71" unicode="&#x6a6;" arabic-form="medial" 
d="M150 58h724q62 0 106 44t44 106v480q0 62 -44 106t-106 44h-724q-62 0 -106 -44t-44 -106v-480q0 -62 44 -106t106 -44zM60 688q0 37 26.5 63.5t63.5 26.5h724q37 0 63.5 -26.5t26.5 -63.5v-480q0 -37 -26.5 -63.5t-63.5 -26.5h-724q-37 0 -63.5 26.5t-26.5 63.5v480z
M362 649v-408l361 207zM422 547l179 -99l-179 -103v202z" />
    <glyph glyph-name="uniEB72" unicode="&#x684;" arabic-form="isolated" 
d="M874 960h-724q-62 0 -106 -44t-44 -106v-724q0 -62 44 -106t106 -44h724q62 0 106 44t44 106v724q0 62 -44 106t-106 44zM964 86q0 -37 -26.5 -63.5t-63.5 -26.5h-724q-37 0 -63.5 26.5t-26.5 63.5v724q0 37 26.5 63.5t63.5 26.5h724q37 0 63.5 -26.5t26.5 -63.5v-724z
M182 116h180v424h-180v-424zM242 480h60v-304h-60v304zM662 540q-16 0 -31 -2.5t-29 -7.5v10h-180v-424h180v214q0 12 9 21t21 9t21 -9t9 -21v-214h180v235q0 72 -52 130.5t-128 58.5zM782 176h-60v154q0 37 -26.5 63.5t-63.5 26.5t-63.5 -26.5t-26.5 -63.5v-154h-60v304h60
v-60l48 36q16 12 34 18t38 6q48 0 84 -39t36 -90v-175zM182 600h180v180h-180v-180zM242 720h60v-60h-60v60z" />
    <glyph glyph-name="uniEB73" unicode="&#x684;" arabic-form="final" 
d="M241 383l127 -318l166 165l283 -225l205 883l-1024 -411zM161 478l488 196l-388 -235zM736 656l-324 -296l-39 -147l-72 180zM436 218l20 74l30 -24zM780 111l-295 234l444 407z" />
    <glyph glyph-name="uniEB74" unicode="&#x684;" arabic-form="initial" 
d="M512 960q-106 0 -199 -41q-93 -40 -162.5 -110t-110.5 -164q-40 -93 -40 -199q0 -105 40 -198t109.5 -162t162.5 -110q94 -40 200 -40t199 40q94 41 163.5 110t109.5 162t40 198q0 106 -40 199q-41 94 -110.5 164t-162.5 110q-93 41 -199 41zM602 5q-22 -4 -44.5 -6.5
t-45.5 -2.5t-45.5 2t-44.5 7v140q0 26 6 38t15 24q5 5 11 14.5t26 40.5l-46 7q-89 13 -129.5 52t-54.5 75q-18 48 -9.5 103t41.5 93q5 6 7.5 15t-0.5 20q-7 20 -7 47.5t5 40.5q24 -4 47.5 -18t44.5 -26q9 -6 15 -6h10q16 3 42.5 9.5t66.5 6.5q24 0 49.5 -4t50.5 -11
q4 0 12 -1t20 6q22 13 45 26.5t47 17.5q4 -13 4.5 -40.5t-6.5 -47.5q-3 -11 -0.5 -20t7.5 -15q33 -38 41.5 -93t-9.5 -103q-14 -36 -54.5 -75t-129.5 -52l-46 -7q21 -32 27 -41t10 -14q9 -12 15 -24t6 -38v-140zM662 22v123q0 26 -5 44t-12 30q69 19 116 58.5t69 97.5
q23 61 13.5 128.5t-47.5 117.5q7 30 5 71t-18 64q-7 9 -17 14.5t-23 5.5q-35 -2 -64 -17t-58 -33q-27 7 -54.5 11t-55.5 4q-27 0 -54.5 -4t-52.5 -11q-31 19 -60.5 33.5t-64.5 16.5q-12 0 -21.5 -5.5t-16.5 -14.5q-16 -23 -18 -64t5 -71q-38 -50 -47.5 -117.5t13.5 -128.5
q22 -58 69 -97.5t116 -58.5q-6 -10 -10 -22.5t-6 -29.5q-14 -5 -26 -6.5t-23 2.5q-12 3 -21.5 11t-17.5 22q-17 30 -46.5 50.5t-63.5 17.5l5 -60q16 2 31 -11.5t23 -27.5q13 -23 31.5 -38t41.5 -22q17 -5 32.5 -5t32.5 3v-81q-65 23 -121 65q-55 41 -95.5 96.5t-62.5 122.5
q-23 67 -23 140q0 93 36 176q35 82 96.5 144t144.5 98q82 36 175 36t175 -36q83 -36 144.5 -98t96.5 -144q36 -83 36 -176q0 -73 -23 -140q-22 -67 -62.5 -122.5t-95.5 -96.5q-56 -42 -121 -65z" />
    <glyph glyph-name="uniEB75" unicode="&#x684;" arabic-form="medial" 
d="M911 347q-7 6 -22.5 21.5t-22.5 24.5q-8 10 -7 18.5t7 18.5q8 14 22 33t30 41q51 68 80.5 117t22.5 83l-5 24h-252q-1 -2 -14.5 -43.5t-54.5 -115.5q-31 -53 -50 -73.5t-26 -23.5h-2q-2 3 -5.5 12t-4.5 28q-2 21 -1 44.5t2 47.5q2 28 3 52t-3 41l-8 37q-7 2 -36.5 8.5
t-100.5 7.5q-61 1 -85 -6.5t-32 -14.5l-39 -35l49 -16q14 -5 20 -14t10 -36q2 -18 3 -45t-2 -53q-3 -38 -10 -49t-8 -12q-1 1 -14.5 13.5t-36.5 61.5q-17 35 -31 73t-24 68q-12 34 -13.5 37.5t-7.5 19.5h-244l16 -41q24 -64 48 -120q24 -57 49.5 -107t51.5 -93
q27 -43 58 -78q33 -40 71 -70q37 -30 80.5 -50t92.5 -31q49 -10 105 -10h30v30q0 21 1.5 36.5t5.5 27.5q2 7 5 13l6 12q5 9 9.5 13t6.5 4q2 1 6 -0.5t9 -5.5q12 -9 23 -21t21 -26q16 -19 33.5 -37.5t42.5 -31.5q14 -7 36 -10.5t36 -3.5h181l-1 31q-2 35 -29.5 78.5
t-80.5 95.5zM841 202q-9 0 -24 2.5t-20 5.5q-17 8 -30 22t-27 31q-12 15 -25 30t-31 28q-14 10 -26.5 14t-22.5 4q-4 0 -7.5 -0.5t-6.5 -1.5q-12 -3 -27 -13t-29 -35q-3 -8 -7.5 -16t-7.5 -19q-4 -11 -6 -23.5t-3 -27.5q-85 5 -152 39t-123 99q-26 31 -49 68q-23 36 -45 79
t-44 91q-21 49 -42 103h114q2 -4 3.5 -8.5t2.5 -8.5q11 -32 26.5 -73t33.5 -79q26 -54 51 -79t52 -25q14 0 26 6t21 17q14 15 22 41t10 64q2 29 1 56t-4 43q-1 14 -4.5 27.5t-9.5 25.5q28 2 61.5 0t56.5 -5q3 -12 2 -33t-2 -43q-4 -54 -2 -104.5t31 -76.5q5 -5 10 -7l4 -3
l19 -6q6 2 38.5 9.5t94.5 114.5q20 34 37 70.5t27 62.5h147q-13 -29 -39 -65t-47 -64q-17 -23 -31.5 -43t-23.5 -36q-16 -29 -14.5 -55t19.5 -49q10 -12 28 -30l23 -23q36 -34 54.5 -59t26.5 -42h-110z" />
    <glyph glyph-name="uniEB76" unicode="&#x683;" arabic-form="isolated" 
d="M200 363l35 -22l13 49q17 65 19 75t4 17q-1 4 -11 47.5t3 102.5v2q9 57 56 94q46 36 108 49t126 1q65 -11 110 -49q39 -32 53 -79.5t3 -107.5q-8 -43 -22 -75.5t-36 -58.5q-31 -35 -65 -41t-57 7q-8 4 -20.5 19t-4.5 44q13 41 30.5 97t19.5 101q3 41 -19.5 71t-60.5 38
q-43 10 -87 -13t-65 -77q-16 -39 -16 -80t16 -85q0 -11 -8.5 -45.5t-17.5 -67.5q-14 -51 -28 -108t-22 -112.5t-7 -105.5t20 -85l15 -29l28 18q29 19 53 55q24 35 42.5 77t32.5 85q13 43 23 78q50 -37 117.5 -39.5t137.5 31.5q57 28 102 73q46 46 74 104t36 126
q8 69 -11 142q-21 82 -70 138q-49 57 -115.5 90t-145.5 42q-80 9 -162 -4q-68 -11 -123 -38q-55 -26 -96.5 -64.5t-68.5 -86.5t-38 -102q-10 -46 -8 -90q3 -44 16 -83.5t37 -71.5q23 -32 55 -53zM158 648q11 49 35 90q24 40 59.5 71.5t81.5 53.5q47 21 102 30q66 11 133 4
q68 -6 126.5 -32t102.5 -74t63 -120q17 -67 9 -126q-8 -60 -33.5 -108.5t-63.5 -84.5t-81 -57q-52 -25 -115.5 -25t-105.5 55l-37 48l-16 -59q-8 -29 -18 -66t-23.5 -75.5t-29.5 -74.5q-17 -37 -37 -63q-4 33 1 75q4 41 12.5 85t19.5 87t21 78q18 66 24.5 98.5t0.5 49.5
q-12 34 -12.5 64.5t11.5 59.5q12 32 36 45.5t47 8.5q8 -2 21.5 -11.5t11.5 -35.5q-2 -39 -18.5 -92.5t-28.5 -92.5q-12 -41 2.5 -77t50.5 -56q41 -22 96.5 -13t99.5 61q27 32 45 71.5t27 90.5q7 39 5.5 75t-12.5 68q-10 30 -27.5 55.5t-41.5 45.5q-58 49 -139 63t-156.5 -4
t-133.5 -66q-57 -49 -69 -124q-9 -40 -7.5 -81t12.5 -83q-2 -7 -4 -17t-5 -20q-31 37 -42.5 91.5t0.5 113.5z" />
    <glyph glyph-name="uniEB77" unicode="&#x683;" arabic-form="final" 
d="M30 720q156 0 293 -59q138 -60 240 -162t162 -240q59 -137 59 -293v-30h240v30q0 101 -20 198t-57.5 186t-91.5 169q-55 81 -123 149t-149 123q-80 54 -169 91.5t-186 57.5t-198 20h-30v-240h30zM60 900q184 -6 346 -79t284 -195t195 -284t79 -346h-121q-2 77 -19 151
t-47.5 143t-73.5 133q-43 63 -98 118t-118 98t-132.5 73t-143.5 48q-74 17 -151 19v121zM424 -34v-30h240v30q0 63 -12 124q-13 61 -36.5 118t-58.5 109t-80 96q-44 45 -96 80t-109 58.5t-118 36.5q-61 12 -124 12h-30v-240h30q80 0 152 -32q71 -31 125 -85t85 -125
q32 -72 32 -152zM60 539q110 -5 206 -50q97 -44 170 -117t117 -170q45 -96 50 -206h-120q-3 41 -13 80q-10 40 -26.5 76.5t-40.5 70.5q-23 34 -53 63q-29 30 -63 53q-34 24 -70.5 40.5t-76.5 26.5q-39 10 -80 13v120zM152 -64q62 0 107 45t45 107t-45 107t-107 45t-107 -45
t-45 -107t45 -107t107 -45zM152 180q37 0 64.5 -27.5t27.5 -64.5t-27.5 -64.5t-64.5 -27.5t-64.5 27.5t-27.5 64.5t27.5 64.5t64.5 27.5z" />
    <glyph glyph-name="uniEB78" unicode="&#x683;" arabic-form="initial" 
d="M404 -64l120 120h302l198 198v706h-886l-138 -138v-766h240v-120h164zM60 116v682l102 102h802v-622l-162 -162h-302l-120 -120h-80v120h-240zM362 74l162 162h242l138 138v466h-724v-604h182v-162zM240 296v484h604v-382l-102 -102h-242l-78 -78v78h-182zM482 630h60
v-184h-60v184zM664 630h60v-184h-60v184z" />
    <glyph glyph-name="uniEB79" unicode="&#x683;" arabic-form="medial" 
d="M90 280l-41 -16q-33 -8 -45 -38t7 -59q19 -28 54 -40.5t66 -18.5q2 -9 5.5 -20t10.5 -21q11 -15 27 -21.5t36 -3.5q68 10 88.5 5.5t45.5 -22.5q13 -9 30.5 -20.5t31.5 -18.5q24 -10 51 -15t55 -5q52 0 84 12l31 12q30 18 72 44.5t103 10.5q18 -4 33 -2.5t27 8.5
q17 11 23 28t8 29q35 7 73 21t53 50q5 13 5 27t-7 26q-6 12 -16.5 20t-23.5 11l-42 17q-37 14 -64 41.5t-42 64.5h45q37 0 63.5 26.5t26.5 63.5t-26.5 63.5t-63.5 26.5h-60l3 29q6 66 -16 126t-63.5 105.5t-100.5 72.5q-58 27 -125 27t-125 -27t-100 -72t-64 -106
q-22 -60 -16 -126l3 -29h-60q-37 0 -63.5 -26.5t-26.5 -63.5t26.5 -63.5t63.5 -26.5h46q-15 -37 -42.5 -64.5t-63.5 -41.5zM150 446q-12 0 -21 9t-9 21t9 21t21 9h126l-9 94q-5 55 13 103t52 84.5t81 57.5q46 21 99 21t99 -21q47 -21 81 -57t52 -85q18 -48 13 -103l-9 -94
h126q12 0 21 -9t9 -21t-9 -21t-21 -9h-122l7 -36q14 -66 54.5 -114.5t99.5 -71.5l46 -18q3 -1 5 -2l-1 -2q-6 -15 -36.5 -23.5t-50.5 -12.5q-3 -1 -5.5 -1.5t-4.5 -0.5q-19 -4 -24.5 -18.5t-6.5 -24.5q-1 -4 -2.5 -10.5t-3.5 -8.5h-3l-9 1q-81 21 -135.5 -11t-82.5 -49
q-38 -17 -84 -17.5t-85 15.5q-17 9 -29 17t-22 16q-33 23 -64.5 31.5t-113.5 -4.5h-4q-3 2 -5 10t-2 12q-3 10 -8.5 23.5t-23.5 17.5h-2q-20 4 -52 12t-43 24q-1 2 -1 4q0 1 2 2h3l46 18q59 23 99.5 71.5t54.5 112.5l8 38h-123z" />
    <glyph glyph-name="uniEB7A" unicode="&#x686;" arabic-form="isolated" 
d="M961 419q1 7 1 15v14q0 93 -35 176q-36 82 -97 143.5t-143 96.5q-82 36 -175 36h-14l-15 -1q-39 30 -86 45.5t-97 15.5q-62 0 -117 -24q-54 -24 -95 -65t-64 -96q-24 -55 -24 -117q0 -49 15.5 -95.5t45.5 -85.5q-1 -7 -1 -15v-14q0 -93 36 -176q35 -82 96.5 -143.5
t143.5 -96.5q83 -36 176 -36h14l15 1q39 -30 85.5 -45.5t95.5 -15.5q62 0 117 24t96 65t65 96t24 117q0 48 -16 94.5t-47 86.5zM722 -4q-75 0 -117 30.5t-45 32.5q-6 -1 -18 -2t-30 -1q-81 0 -152 31q-72 31 -125 84t-84 125q-31 71 -31 152q0 18 1 30t2 18q-2 3 -32.5 45
t-30.5 117q0 50 19 94t51.5 77t76.5 52q43 19 93 19q76 0 118.5 -30.5t45.5 -32.5q6 1 18 2t30 1q81 0 152 -31t124 -84t83 -125q31 -71 31 -152q0 -18 -1 -30t-2 -18q2 -3 33.5 -46.5t31.5 -115.5q0 -50 -19 -94t-52 -77t-77 -52t-94 -19zM512 538q-22 0 -42.5 5.5
t-34.5 14.5q-5 3 -8 5.5t-5 4.5q2 2 5 4.5t8 5.5q40 27 95.5 18t70.5 -27q23 -29 44 -29.5t27 -1.5q26 0 47 13.5t33 36.5q11 23 8 47.5t-19 44.5q-34 43 -86 67q-53 23 -110.5 28t-113.5 -7t-98 -40q-44 -30 -68.5 -71.5t-24.5 -88.5t24.5 -88.5t68.5 -71.5
q36 -24 82.5 -37t96.5 -13q22 0 42.5 -5.5t34.5 -14.5q5 -3 7 -6l5 -4l-5 -4l-7 -6q-39 -26 -95.5 -18t-72.5 27q-26 32 -77 30.5t-74 -49.5q-11 -23 -8 -47.5t19 -44.5q40 -51 103.5 -74.5t127.5 -23.5q49 0 95 13t82 37q44 30 68.5 71.5t24.5 88.5q0 41 -19 79
q-20 38 -55.5 67t-84.5 47q-50 17 -111 17zM656 218q-29 -19 -66.5 -29.5t-77.5 -10.5q-50 0 -101.5 18t-82.5 57q-8 9 -6.5 17.5t2.5 11.5q9 17 27 16t24 -9q15 -19 45 -32q31 -13 66 -16.5t72 2.5q36 6 65 25q19 13 29 28.5t10 31.5t-10 31.5t-29 28.5q-22 14 -51 22
t-60 8q-41 0 -79 10.5t-67 29.5q-31 21 -48.5 50t-17.5 60t17.5 60t48.5 50q33 22 78 31q46 10 92.5 6.5t89.5 -21.5q42 -18 68 -51q8 -9 6.5 -17.5t-2.5 -11.5q-2 -3 -7.5 -9.5t-18.5 -6.5q-11 0 -14.5 0.5t-10.5 8.5q-31 38 -109.5 48.5t-136.5 -27.5q-14 -10 -27.5 -25
t-13.5 -35t13.5 -35t27.5 -25q22 -14 51 -22t60 -8q40 0 77.5 -10.5t66.5 -29.5q31 -21 48.5 -50t17.5 -60t-17.5 -60t-48.5 -50z" />
    <glyph glyph-name="uniEB7B" unicode="&#x686;" arabic-form="final" 
d="M874 960h-724q-62 0 -106 -44t-44 -106v-724q0 -62 44 -106t106 -44h724q62 0 106 44t44 106v724q0 62 -44 106t-106 44zM964 86q0 -37 -26.5 -63.5t-63.5 -26.5h-724q-37 0 -63.5 26.5t-26.5 63.5v724q0 37 26.5 63.5t63.5 26.5h724q37 0 63.5 -26.5t26.5 -63.5v-724z
M482 538q0 50 -35 85t-85 35h-180v-420h180q50 0 85 35t35 85q0 27 -11 50t-30 40q19 17 30 40t11 50zM422 358q0 -25 -17.5 -42.5t-42.5 -17.5h-120v120h120q25 0 42.5 -17.5t17.5 -42.5zM242 478v120h120q25 0 42.5 -17.5t17.5 -42.5t-17.5 -42.5t-42.5 -17.5h-120z
M692 538q-62 0 -106 -44t-44 -106t44 -106t106 -44q40 0 75 20t55 55l-52 30q-12 -21 -33 -33t-45 -12q-29 0 -52.5 17t-32.5 43h235v30q0 62 -44 106t-106 44zM607 418q9 26 32.5 43t52.5 17t52.5 -17t32.5 -43h-170zM572 658h240v-60h-240v60z" />
    <glyph glyph-name="uniEB7C" unicode="&#x686;" arabic-form="initial" 
d="M512 960q-106 0 -199 -40q-93 -41 -162.5 -110.5t-110.5 -162.5q-40 -93 -40 -199t40 -199q41 -93 110.5 -162.5t162.5 -110.5q93 -40 199 -40t199 40q93 41 162.5 110.5t110.5 162.5q40 93 40 199t-40 199q-41 93 -110.5 162.5t-162.5 110.5q-93 40 -199 40zM512 -4
q-93 0 -176 36q-82 35 -143.5 96.5t-96.5 143.5q-36 83 -36 176t36 176q35 82 96.5 143.5t143.5 96.5q83 36 176 36t176 -36q82 -35 143.5 -96.5t96.5 -143.5q36 -83 36 -176t-36 -176q-35 -82 -96.5 -143.5t-143.5 -96.5q-83 -36 -176 -36zM198 663l11 -59q82 14 164 16
t162.5 -8t157.5 -30q78 -21 150 -53l24 55q-77 33 -158 55q-82 23 -166.5 33t-171.5 8q-86 -2 -173 -17zM208 481h-2l13 -59q72 15 146 18q73 2 146 -6.5t144 -28.5q71 -19 137 -50l25 55q-71 32 -146 53t-152.5 30t-156.5 7q-78 -3 -154 -19zM259 308l11 -59q55 10 110 11
q55 2 109.5 -4.5t107.5 -20.5q54 -14 105 -37l23 55q-55 24 -112 40q-58 15 -116.5 22t-118.5 5q-59 -2 -119 -12z" />
    <glyph glyph-name="uniEB7D" unicode="&#x686;" arabic-form="medial" 
d="M512 960q-81 0 -152 -31q-71 -30 -124 -83t-83 -124q-31 -71 -31 -152q0 -61 29 -138q30 -78 73 -155.5t93 -147.5q50 -71 91 -117q45 -50 68 -63t36 -13t36 13t68 63q41 46 91 117q49 70 92.5 147.5t73.5 155.5q29 77 29 138q0 81 -31 152q-30 71 -83 124t-124 83
q-71 31 -152 31zM581 63q-31 -35 -47.5 -49t-21.5 -17q-5 3 -21.5 17t-47.5 49q-39 47 -85 112q-46 66 -85 137t-65 139t-26 119q0 68 26 128t71 105t105 71t128 26t128 -26t105 -71t71 -105t26 -128q0 -50 -26 -118q-25 -68 -64 -138.5t-85 -137.5q-46 -66 -86 -113z
M512 840q-56 0 -105 -21q-49 -22 -85.5 -58.5t-58.5 -85.5q-21 -49 -21 -105t21 -105q22 -49 58.5 -85.5t85.5 -58.5q49 -21 105 -21t105 21q49 22 85.5 58.5t58.5 85.5q21 49 21 105t-21 105q-22 49 -58.5 85.5t-85.5 58.5q-49 21 -105 21zM402 749q22 -4 36 -20.5
t14 -38.5q0 -25 -17.5 -42.5t-42.5 -17.5q-22 0 -38.5 14t-20.5 36q13 21 30.5 38.5t38.5 30.5zM512 360q-43 0 -82 17q-38 16 -66.5 44.5t-44.5 66.5q-17 39 -17 82q0 9 1 18.5t2 18.5q17 -17 39 -27t48 -10q50 0 85 35t35 85q0 26 -10 48t-27 39q9 1 18.5 2t18.5 1
q43 0 82 -17q38 -16 66.5 -44.5t44.5 -66.5q17 -39 17 -82t-17 -82q-16 -38 -44.5 -66.5t-66.5 -44.5q-39 -17 -82 -17z" />
    <glyph glyph-name="uniEB7E" unicode="&#x687;" arabic-form="isolated" 
d="M514 -64q106 0 199 40q92 40 161.5 109t109.5 162t40 199q0 105 -40 199q-40 93 -109 163t-162 111t-199 41t-199 -41q-94 -40 -164 -110t-110 -164q-41 -93 -41 -199t41 -199t111 -162t163 -109q94 -40 199 -40zM251 80q14 53 45 100q30 48 74.5 87.5t100.5 70.5
q55 30 119 50q15 -44 27 -89q12 -46 21 -92t15 -92q6 -47 8 -94q-34 -12 -71 -18.5t-76 -6.5q-74 0 -141 22t-122 62zM720 46q-3 46 -10 91q-6 45 -15 90t-20 89q-12 43 -26 86q78 16 158 13.5t154 -22.5q-7 -57 -27 -109t-51.5 -96.5t-72.5 -80.5t-90 -61zM594 541
q38 15 77 33q38 19 73.5 43t65.5 53t52 63q47 -57 74 -128.5t28 -150.5q-40 10 -82 16q-41 5 -83.5 6t-85.5 -3t-85 -13q-8 21 -16.5 41t-17.5 40zM820 779q-18 -33 -47 -61q-28 -28 -62 -51t-71 -41t-72 -30q-20 38 -42 76q-22 37 -46 72.5t-50 68.5q-27 34 -55 65
q33 11 68 16.5t71 5.5q44 0 86 -8q42 -9 81 -24.5t74 -38.5q35 -22 65 -50zM316 854q28 -30 55 -63q26 -33 50.5 -68t46.5 -72q22 -36 42 -74q-50 -15 -103 -24t-108.5 -13.5t-113.5 -3.5q-57 1 -114 8q11 51 34 98q22 46 53.5 86t71.5 72t86 54zM62 485q61 -8 123 -9
q61 -1 121.5 4t118.5 15q57 11 111 27q9 -19 17 -38.5t16 -39.5q-62 -18 -119 -49q-58 -30 -106.5 -71t-85.5 -92t-57 -111q-33 31 -59 67q-26 37 -44 78.5t-28 86.5t-10 93q0 10 0.5 19.5t1.5 19.5z" />
    <glyph glyph-name="uniEB7F" unicode="&#x687;" arabic-form="final" 
d="M362 960v-90q0 -62 -44 -106t-106 -44h-30v-240h120v-214q0 -68 26 -128t71 -105t105 -71t128 -26h210v300h-210q-12 0 -21 9t-9 21v214h240v240h-240v240h-240zM782 660v-120h-240v-274q0 -37 26.5 -63.5t63.5 -26.5h150v-180h-150q-56 0 -105 21q-49 22 -85.5 58.5
t-58.5 85.5q-21 49 -21 105v274h-120v122q31 5 59 18t51 33q32 29 51 69.5t19 87.5v30h120v-240h240z" />
    <glyph glyph-name="uniEB80" unicode="&#x687;" arabic-form="initial" 
d="M360 718h60v-540h-60v540zM240 538h60v-360h-60v360zM120 598h60v-420h-60v420zM0 418h60v-240h-60v240zM1024 358q0 74 -53 127t-127 53h-8l-7 -1q-14 40 -40 73q-26 34 -60 57.5t-75 37.5q-40 13 -84 13q-17 0 -34 -2t-33 -7l-23 -5v-526h364q74 0 127 53t53 127z
M540 656q7 1 14.5 1.5t15.5 0.5q74 0 133 -45.5t75 -115.5l7 -30q18 4 30 7.5t29 3.5q50 0 85 -35t35 -85t-35 -85t-85 -35h-304v418z" />
    <glyph glyph-name="uniEB81" unicode="&#x687;" arabic-form="medial" 
d="M855 27l167 238l-353 601h-318l-353 -601l167 -238h690zM824 87h-598l92 150h611zM669 297h-315l156 255zM934 297h-195l-317 509h213zM369 778l106 -169l-300 -492l-106 151z" />
    <glyph glyph-name="uniEB82" unicode="&#x68d;" arabic-form="isolated" 
d="M666 920l-157 -99l-155 97l-356 -214l165 -103l-164 -164l182 -109v-157l328 -197l329 197v152l183 110l-166 168l167 105zM667 850l241 -145l-101 -64q-16 10 -47 29q-30 18 -65 38.5t-69 41.5l-60 36zM509 462l-241 144l241 145l241 -145zM353 848l99 -62l-241 -145
l-99 62zM215 569l246 -148l-120 -120l-246 148zM240 292l110 -66l129 129v-293l-239 143v87zM778 205l-239 -143v292l131 -132l108 65v-82zM679 297l-122 124l246 147l122 -123z" />
    <glyph glyph-name="uniEB83" unicode="&#x68d;" arabic-form="final" 
d="M317 129q42 -20 92 -30.5t103 -10.5t103 10.5t92 30.5l-26 54q-36 -17 -79.5 -26t-89.5 -9t-89.5 9t-79.5 26zM64 342q-2 -11 -3 -22t-1 -22q0 -68 35.5 -129t101.5 -108q31 -22 68 -40q37 -17 77 -29t83 -18t87 -6t87 6t83 18t77 29q37 18 68 40q66 47 101.5 108
t35.5 129q0 11 -1 22t-3 22q29 15 46.5 43.5t17.5 62.5q0 50 -35 85t-85 35q-23 0 -43.5 -8t-36.5 -23q-59 41 -133 64.5t-155 26.5l57 222l131 -45q1 -49 36 -83t84 -34q50 0 85 35t35 85t-35 85t-85 35q-35 0 -63 -18t-43 -47l-187 65l-78 -301q-76 -5 -146 -28t-127 -62
q-16 15 -36.5 23t-43.5 8q-50 0 -85 -35t-35 -85q0 -34 17.5 -62.5t46.5 -43.5zM844 868q25 0 42.5 -17.5t17.5 -42.5t-17.5 -42.5t-42.5 -17.5t-42.5 17.5t-17.5 42.5t17.5 42.5t42.5 17.5zM964 448q0 -14 -6 -26t-16 -21q-12 26 -29.5 50.5t-41.5 46.5q8 5 16 7.5t17 2.5
q25 0 42.5 -17.5t17.5 -42.5zM512 568q80 0 152.5 -21.5t128.5 -60.5q53 -39 82 -87t29 -101t-29 -101t-82 -87q-56 -39 -128.5 -60.5t-152.5 -21.5t-152.5 21.5t-128.5 60.5q-53 39 -82 87t-29 101t29 101t82 87q56 39 128.5 60.5t152.5 21.5zM120 508q9 0 17 -2.5t16 -7.5
q-24 -22 -41.5 -46.5t-29.5 -50.5q-10 9 -16 21t-6 26q0 25 17.5 42.5t42.5 17.5zM330 268q37 0 63.5 26.5t26.5 63.5t-26.5 63.5t-63.5 26.5t-63.5 -26.5t-26.5 -63.5t26.5 -63.5t63.5 -26.5zM330 388q12 0 21 -9t9 -21t-9 -21t-21 -9t-21 9t-9 21t9 21t21 9zM694 268
q37 0 63.5 26.5t26.5 63.5t-26.5 63.5t-63.5 26.5t-63.5 -26.5t-26.5 -63.5t26.5 -63.5t63.5 -26.5zM694 388q12 0 21 -9t9 -21t-9 -21t-21 -9t-21 9t-9 21t9 21t21 9z" />
    <glyph glyph-name="uniEB84" unicode="&#x68c;" arabic-form="isolated" 
d="M124 64l390 -128l388 128l64 896h-906zM902 900l-57 -791l-331 -110l-333 110l-57 791h778zM624 386l-7 -100l-103 -35l-106 35l-2 40h-180l12 -173l276 -92l274 92l30 413h-429l-7 94h442l13 180h-648l32 -454h403zM773 780l-5 -60h-450l15 -214h420l-22 -309l-217 -72
l-219 72l-5 69h60l2 -25l162 -53l160 53l15 205h-412l-24 334h520z" />
    <glyph glyph-name="uniEB85" unicode="&#x68c;" arabic-form="final" 
d="M49 586q2 1 0.5 0.5t24.5 16.5q18 12 33.5 20.5t28.5 8.5q3 0 12 -3t21 -20q32 -47 53.5 -117.5t40.5 -143.5q11 -41 22 -83q12 -41 25 -78.5t29 -69.5q16 -33 36 -56q19 -23 42.5 -34t52.5 -11q37 0 80.5 19.5t84.5 54.5q59 51 129 127q70 77 129 164t97 176
q38 90 34 168q-5 75 -49.5 115t-112.5 40q-59 0 -115 -28t-92 -75q-30 -39 -41.5 -68t-24.5 -58l53 8q7 1 12.5 1.5t10.5 0.5q17 0 29.5 -5t22.5 -15q10 -11 14 -25.5t2 -33.5q-2 -32 -17 -69q-16 -36 -37.5 -71t-45.5 -65q-24 -29 -44 -45q-5 -4 -11 -6t-12 -2
q-5 0 -17.5 6.5t-28.5 46.5q-13 34 -25 87q-11 52 -23 111t-24 117t-26 101q-11 33 -39 53t-64 20q-24 0 -48.5 -9.5t-47.5 -27.5q-102 -81 -141 -113.5t-82 -68.5zM260 782q15 11 30 17.5t29 6.5q16 0 28.5 -8.5t17.5 -23.5q12 -37 24 -95q12 -57 24.5 -118.5t25.5 -116.5
q12 -56 25 -89q7 -17 30 -54t72 -37q16 0 31.5 5.5t28.5 15.5q23 19 51 52t53 73.5t43 84.5q17 43 20 82q3 32 -5.5 58.5t-26.5 46.5q-15 15 -33.5 24.5t-39.5 13.5q3 5 6.5 10t7.5 10q28 37 71.5 58.5t88.5 21.5q33 0 65.5 -18.5t36.5 -79.5q4 -69 -33 -152t-93.5 -164.5
t-122.5 -152.5q-66 -72 -119 -118q-32 -27 -66 -43t-60 -16q-16 0 -27.5 5.5t-21.5 17.5q-33 40 -56 113t-44 151q-20 77 -43 152t-59 128q-18 25 -36.5 35.5t-35.5 12.5q30 24 58.5 47t54.5 44z" />
    <glyph glyph-name="uniEB86" unicode="&#x68e;" arabic-form="isolated" 
d="M512 -64q94 0 176 54q82 55 143 139t96 185t35 194t-35 176q-36 82 -97 143.5t-143 96.5q-82 36 -175 36t-175 -36q-82 -35 -143 -96.5t-97 -143.5q-35 -83 -35 -176q0 -90 33 -169q32 -80 89 -140.5t134 -98.5q76 -37 164 -43v-121h30zM122 508q0 81 31 152
q30 72 83 125t124 84t152 31t152 -31t124 -84t83 -125q31 -71 31 -152t-29 -167t-78.5 -159t-114.5 -124q-65 -50 -138 -60v118h-30q-81 0 -152 31t-124 84t-83 125q-31 71 -31 152zM602 298h30q62 0 106 44t44 106v210h-240v-240h60v-120zM602 598h120v-150
q0 -29 -17 -52.5t-43 -32.5v115h-60v120zM242 418h60v-120h30q62 0 106 44t44 106v210h-240v-240zM302 598h120v-150q0 -29 -17 -52.5t-43 -32.5v115h-60v120z" />
    <glyph glyph-name="uniEB87" unicode="&#x68e;" arabic-form="final" 
d="M0 266q0 -68 26 -128t71 -105t105 -71t128 -26h364q68 0 128 26t105 71t71 105t26 128v334h-150q-12 0 -21 9t-9 21q0 68 -26 128t-71 105t-105 71t-128 26h-184q-68 0 -128 -26t-105 -71t-71 -105t-26 -128v-364zM60 630q0 56 21 105q22 49 58.5 85.5t85.5 58.5
q49 21 105 21h184q56 0 105 -21q49 -22 85.5 -58.5t58.5 -85.5q21 -49 21 -105q0 -37 26.5 -63.5t63.5 -26.5h90v-274q0 -56 -21 -105q-22 -49 -58.5 -85.5t-85.5 -58.5q-49 -21 -105 -21h-364q-56 0 -105 21q-49 22 -85.5 58.5t-58.5 85.5q-21 49 -21 105v364zM300 540h244
q50 0 85 35t35 85t-35 85t-85 35h-244q-50 0 -85 -35t-35 -85t35 -85t85 -35zM300 720h244q25 0 42.5 -17.5t17.5 -42.5t-17.5 -42.5t-42.5 -17.5h-244q-25 0 -42.5 17.5t-17.5 42.5t17.5 42.5t42.5 17.5zM300 116h424q50 0 85 35t35 85t-35 85t-85 35h-424q-50 0 -85 -35
t-35 -85t35 -85t85 -35zM300 296h424q25 0 42.5 -17.5t17.5 -42.5t-17.5 -42.5t-42.5 -17.5h-424q-25 0 -42.5 17.5t-17.5 42.5t17.5 42.5t42.5 17.5z" />
    <glyph glyph-name="uniEB88" unicode="&#x688;" arabic-form="isolated" 
d="M512 -64q106 0 199 40q93 41 162.5 110.5t110.5 162.5q40 93 40 199t-40 199q-41 93 -110.5 162.5t-162.5 110.5q-93 40 -199 40t-199 -40q-93 -41 -162.5 -110.5t-110.5 -162.5q-40 -93 -40 -199t40 -199q41 -93 110.5 -162.5t162.5 -110.5q93 -40 199 -40zM512 900
q93 0 176 -36q82 -35 143.5 -96.5t96.5 -143.5q36 -83 36 -176t-36 -176q-35 -82 -96.5 -143.5t-143.5 -96.5q-83 -36 -176 -36t-176 36q-82 35 -143.5 96.5t-96.5 143.5q-36 83 -36 176t36 176q35 82 96.5 143.5t143.5 96.5q83 36 176 36zM332 538q37 0 63.5 26.5
t26.5 63.5t-26.5 63.5t-63.5 26.5t-63.5 -26.5t-26.5 -63.5t26.5 -63.5t63.5 -26.5zM332 658q12 0 21 -9t9 -21t-9 -21t-21 -9t-21 9t-9 21t9 21t21 9zM692 538q37 0 63.5 26.5t26.5 63.5t-26.5 63.5t-63.5 26.5t-63.5 -26.5t-26.5 -63.5t26.5 -63.5t63.5 -26.5zM692 658
q12 0 21 -9t9 -21t-9 -21t-21 -9t-21 9t-9 21t9 21t21 9zM512 56q81 0 152 31t124.5 84.5t84.5 124.5t31 152v30h-784v-30q0 -81 31 -152t84.5 -124.5t124.5 -84.5t152 -31zM512 116q-48 0 -93 13q-45 14 -83 38t-69 57q-31 34 -51 74h592q-20 -40 -51 -74q-31 -33 -69 -57
t-83 -38q-45 -13 -93 -13zM843 418q-2 -15 -4.5 -30t-6.5 -30h-640q-4 15 -6.5 30t-4.5 30h662z" />
    <glyph glyph-name="uniEB89" unicode="&#x688;" arabic-form="final" 
d="M511 960q-102 0 -192 -24q-89 -23 -157.5 -72t-110.5 -124q-42 -76 -50 -179q-5 -68 8 -117q13 -50 31.5 -83.5t35.5 -53.5q18 -19 22 -26l161 128q-6 11 -31 52t-22 93q2 36 24 75t61.5 71t93.5 52q55 21 122 21q69 0 125 -21t96 -54.5t62 -75.5t22 -85
q0 -89 -63 -124.5t-107 -38.5q-28 -2 -51.5 3.5t-36.5 17.5q-6 5 -9 11t-3 13v241h-180v-418q-1 -81 -32.5 -99t-44.5 -18q-12 0 -25 5t-28 12l-43 20q-5 -51 -7 -74.5t-2 -42.5q0 -16 5.5 -43.5t37.5 -41.5q26 -12 54 -18t56 -6q57 0 96 21q40 21 64.5 58t36.5 86
q11 50 12 108v2q22 -4 49.5 -8t58.5 -3q66 1 129 25t113.5 66t85.5 99q34 57 43 124q13 99 -27 181q-41 82 -114.5 141t-170.5 91q-97 33 -198 33zM962 522q-8 -59 -39 -107t-75 -82t-97 -53q-52 -19 -102 -20q-32 -1 -60 3.5t-50 9.5q-6 1 -11.5 2.5t-10.5 2.5l-35 6v-75
q-2 -143 -52 -178t-97 -35q-21 0 -43 5t-42 14q-3 1 -5.5 5.5t-2.5 25.5v13l1 14q10 -3 21 -5.5t23 -2.5q11 0 35.5 5.5t49.5 28.5t38 59t14 84v358h60v-182q1 -20 9 -37.5t23 -30.5q22 -20 57 -29.5t75 -6.5q45 4 86 20q40 17 71.5 46t49.5 68q19 40 19 89q0 55 -27 108
q-26 53 -74 94.5t-115 67.5t-149 26q-79 0 -144 -25q-66 -25 -113 -64.5t-74 -88.5q-27 -50 -30 -98q-2 -32 6.5 -65.5t27.5 -68.5l-72 -57q-28 41 -39.5 88t-7.5 103q8 116 62 184q53 68 123.5 103.5t143.5 45.5t121 10q86 0 171 -27t151 -76.5t103 -119.5t26 -155z" />
    <glyph glyph-name="uniEB8A" unicode="&#x698;" arabic-form="isolated" 
d="M525 887q-1 14 -9 39.5t-47 32.5q-19 3 -51 -2q-32 -4 -66 -13t-66 -21q-31 -11 -50 -22q-16 -9 -27 -22.5t-14 -28.5q-3 -11 -1 -22t8 -20q9 -12 40 -64q32 -51 69.5 -110.5t70.5 -110.5t44 -62q13 -14 31 -19.5t36 -1.5t31 17t18 32q5 15 3 66q-1 51 -5 113.5t-8 123.5
q-5 61 -7 95zM485 505q-1 -1 -2.5 -3.5t-3.5 -3.5q-2 0 -4.5 1t-5.5 4q-8 8 -39 57q-31 48 -67.5 105.5t-67.5 108.5q-32 51 -41 64q1 2 4 5t8 6q34 19 101.5 37t90.5 14q2 -1 5 -2q1 -2 1.5 -6.5t0.5 -8.5q1 -17 5 -73q5 -56 9 -119.5t6 -117.5q2 -55 0 -68zM165 506
q-10 -5 -21 -17.5t-17 -37.5q-9 -34 -11 -87.5t8 -93.5q7 -26 28.5 -40t47.5 -8q6 1 36 10t66 20.5t70 22.5q33 10 46 15q22 7 35 27t11 46q-1 22 -12.5 38t-30.5 24q-83 35 -129.5 54t-77.5 30q-13 4 -25.5 3.5t-23.5 -6.5zM193 453l1 -1q32 -11 80 -31t124 -51q2 -1 4 -3
t2 -8q1 -5 -0.5 -8t-4.5 -4q-57 -19 -130.5 -42t-81.5 -25q-2 0 -3 2t-2 3q-7 28 -6 73.5t9 77.5q2 8 4.5 12t3.5 5zM801 650q-14 12 -29 18.5t-30 5.5q-13 -1 -23.5 -6t-18.5 -15q-3 -3 -26.5 -34.5t-46.5 -61.5q-54 -74 -63.5 -90.5t-10.5 -23.5q-3 -17 3 -35t20 -31
q13 -13 31 -18t36 -1q3 1 36 9q34 9 72.5 18.5t71.5 18.5q32 8 33 8q17 4 26 13.5t13 17.5q8 14 7.5 31.5t-8.5 37.5q-13 34 -40 74t-53 64zM842 471v-1h-2q-4 -1 -35 -9q-32 -8 -69.5 -17.5t-68.5 -17.5l-36 -9h-7l-7 4q-2 2 -3.5 4.5t-1.5 5.5q6 10 26 38t42.5 58.5
t41.5 55.5t23 31q2 0 6 -1.5t9 -6.5q21 -20 44.5 -54t33.5 -62q3 -8 3.5 -13t0.5 -6zM848 269q-48 15 -95.5 31t-95.5 32q-24 8 -46 0t-37 -29q-12 -19 -12.5 -39t10.5 -38q37 -61 61 -99.5t33 -53.5q15 -24 31.5 -44t44.5 -20q17 0 31 8t24 16q27 23 55.5 59.5t43.5 67.5
q10 20 12 36.5t-4 30.5q-9 20 -26.5 28.5t-29.5 13.5zM842 186q-12 -25 -36.5 -56.5t-47.5 -50.5q-7 -5 -10.5 -7t-5.5 -3q-2 2 -18 25q-15 24 -34 54.5t-38 60.5q-18 31 -29 48q-1 2 -1.5 5t3.5 8q2 3 4 4.5t5 1.5q1 0 2 -0.5t2 -0.5q48 -16 95.5 -31.5t95.5 -31.5
q7 -3 12 -5t7 -3q0 -2 -1 -6t-5 -12zM490 289q-22 6 -40.5 0.5t-32.5 -22.5q-83 -98 -107 -127.5t-37 -46.5q-11 -15 -12.5 -27.5t0.5 -21.5q4 -16 16.5 -30t35.5 -27q20 -11 43.5 -21t50.5 -18q17 -5 34 -8.5t34 -3.5q33 0 51 18t18 48v221q0 24 -15 42t-39 24zM484 -3
q-3 -1 -15.5 -1t-44.5 10q-24 7 -44 15.5t-38 18.5q-11 6 -15.5 10t-6.5 6q5 6 25 31t43.5 53.5t45.5 54.5q22 25 29 33q2 3 4 4t8 -1q4 -1 6.5 -3t2.5 -5v-226z" />
    <glyph glyph-name="uniEB8B" unicode="&#x698;" arabic-form="final" 
d="M331 478q62 0 105.5 43.5t43.5 105.5t-43.5 105.5t-105.5 43.5q-61 0 -105 -43.5t-44 -105.5t44 -105.5t105 -43.5zM331 716q37 0 63 -26t26 -63t-26 -63t-63 -26t-63 26t-26 63t26 63t63 26zM694 478q61 0 104.5 43.5t43.5 104.5t-43.5 104.5t-104.5 43.5t-104.5 -43.5
t-43.5 -104.5t43.5 -104.5t104.5 -43.5zM694 714q36 0 62 -25.5t26 -62.5q0 -36 -26 -62t-62 -26q-37 0 -62.5 26t-25.5 62q0 37 25.5 62.5t62.5 25.5zM1006 476q-8 9 -19.5 13.5t-22.5 4.5v376q0 37 -26.5 63.5t-63.5 26.5h-724q-37 0 -63.5 -26.5t-26.5 -63.5v-376
q-12 0 -23 -4.5t-20 -13.5q-16 -17 -17 -39.5t14 -40.5l4 -5q29 -35 66 -71.5t97 -62.5q-16 -117 7.5 -180.5t45.5 -88.5q22 -24 49 -37.5t57 -14.5h52q37 0 63.5 26.5t26.5 63.5v177l60 -10v-167q0 -37 26.5 -63.5t63.5 -26.5h48q51 0 98.5 41.5t63.5 127.5q7 33 7 71.5
t-6 80.5q57 25 93.5 59.5t73.5 79.5q15 18 14 40.5t-18 39.5zM150 900h724q12 0 21 -9t9 -21v-400q-54 -28 -94 -38.5t-78 -13.5h-100q-26 0 -47 -13t-32 -34l-66 33q-14 7 -29 10.5t-30 3.5h-137q-37 3 -77.5 13.5t-93.5 38.5v400q0 12 9 21t21 9zM422 273v-247
q0 -12 -9 -21t-21 -9h-51q-57 2 -88 75.5t-9 199.5l4 25l-24 8q-60 22 -94.5 55t-65.5 71l-3 4l2 -2l2 -1q72 -40 123.5 -54.5t99.5 -18.5h140q8 0 16.5 -2t15.5 -6l82 -40v-57zM802 305l-26 -7l4 -27q23 -135 -11.5 -204t-86.5 -71h-50q-13 0 -21.5 9t-8.5 21v302
q0 12 8.5 21t21.5 9h104q48 4 99.5 18.5t123.5 54.5l2 1l3 2q-37 -44 -71 -76t-91 -53z" />
    <glyph glyph-name="uniEB8C" unicode="&#x691;" arabic-form="isolated" 
d="M512 960q-106 0 -199 -40t-162.5 -109.5t-110.5 -162.5q-40 -93 -40 -198q0 -106 40 -199q41 -94 110.5 -164t162.5 -110q93 -41 199 -41t199 41q93 40 162.5 110t110.5 164q40 93 40 199q0 105 -40 198q-41 93 -110.5 162.5t-162.5 109.5t-199 40zM300 236v321l182 185
l242 -232v-274h-424zM724 847v-254l-310 296q24 6 48.5 8.5t49.5 2.5q57 0 111 -13.5t101 -39.5zM348 869l90 -86l-375 -382q-2 12 -2.5 24.5t-0.5 24.5q0 71 21 137q22 65 60 119.5t91 96.5t116 66zM76 329l164 167v-408q-59 44 -101.5 106t-62.5 135zM512 -4
q-57 0 -111 14t-101 39v127h572q-31 -41 -70 -74q-40 -33 -86 -56.5t-97 -36.5q-52 -13 -107 -13zM911 236h-127v573q41 -31 74 -70t56.5 -85t36.5 -98q13 -51 13 -106q0 -58 -14 -112t-39 -102z" />
    <glyph glyph-name="uniEB8D" unicode="&#x691;" arabic-form="final" 
d="M964 780q0 36 -14 69t-40 58q-26 26 -59 39.5t-69 13.5q-74 0 -127 -53t-53 -127t53 -127t127 -53q36 0 69 13.5t59 39.5q26 25 40 58t14 69zM782 660q-50 0 -85 35t-35 85t35 85t85 35t86 -35t36 -85t-36 -85t-86 -35zM540 780q0 50 -35 85t-85 35t-85 -35t-35 -85
t35 -85t85 -35t85 35t35 85zM420 720q-25 0 -42.5 17.5t-17.5 42.5t17.5 42.5t42.5 17.5t42.5 -17.5t17.5 -42.5t-17.5 -42.5t-42.5 -17.5zM0 510v-272h240v-120h300v-182h484v424q0 50 -19 93q-19 44 -52 76.5t-77 51.5t-94 19q-56 0 -104 -23t-81 -63q-12 62 -61.5 104
t-115.5 42q-44 0 -81 -19t-62 -52q-20 32 -53.5 51.5t-73.5 19.5q-62 0 -106 -44t-44 -106zM782 540q75 0 128.5 -53t53.5 -127v-364h-364v364q0 74 53.5 127t128.5 53zM420 600q50 0 85 -35t35 -85v-302h-240v302q0 50 35 85t85 35zM60 510q0 37 26.5 63.5t63.5 26.5
t63.5 -26.5t26.5 -63.5v-212h-180v212zM240 750q0 37 -26.5 63.5t-63.5 26.5t-63.5 -26.5t-26.5 -63.5t26.5 -63.5t63.5 -26.5t63.5 26.5t26.5 63.5zM150 720q-12 0 -21 9t-9 21t9 21t21 9t21 -9t9 -21t-9 -21t-21 -9z" />
    <glyph glyph-name="uniEB8E" unicode="&#x6a9;" arabic-form="isolated" 
d="M242 208q50 0 93 19q44 19 76.5 51.5t51.5 76.5q19 43 19 93t-19 93q-19 44 -51.5 76.5t-76.5 51.5q-43 19 -93 19t-94 -19t-77 -51.5t-52 -76.5q-19 -43 -19 -93t19 -93q19 -44 52 -76.5t77 -51.5t94 -19zM242 628q74 0 127 -53t53 -127t-53 -127t-127 -53
q-75 0 -128.5 53t-53.5 127t53.5 127t128.5 53zM782 208q50 0 94 19t77 51.5t52 76.5q19 43 19 93t-19 93q-19 44 -52 76.5t-77 51.5t-94 19t-93 -19q-44 -19 -76.5 -51.5t-51.5 -76.5q-19 -43 -19 -93t19 -93q19 -44 51.5 -76.5t76.5 -51.5q43 -19 93 -19zM782 628
q75 0 128.5 -53t53.5 -127t-53.5 -127t-128.5 -53q-74 0 -127 53t-53 127t53 127t127 53z" />
    <glyph glyph-name="uniEB8F" unicode="&#x6a9;" arabic-form="final" 
d="M259 238l169 270l-169 270h-259l169 -270l-169 -270h259zM108 718h117l132 -210l-131 -210h-118l132 210zM773 960l-386 -632l242 -392h251l-243 392l387 632h-251zM772 -4h-109l-206 332l350 572h110l-350 -572z" />
    <glyph glyph-name="uniEB90" unicode="&#x6a9;" horiz-adv-x="1022" arabic-form="initial" 
d="M249 650q-2 18 -11 30.5t-24 16.5q-14 4 -28.5 -2t-23.5 -20q-31 -44 -53 -92t-34 -98t-12 -101q0 -52 12 -104q17 -73 57 -135q40 -63 97 -109t129 -72q71 -26 150 -26q91 0 147.5 25t67.5 30q73 41 122 106q48 64 76 141.5t37 163.5t2 169q-5 66 -19 128.5t-35 113.5
q-15 39 -42.5 81t-67.5 57q-47 18 -117.5 1.5t-140.5 -60.5q-62 -39 -111 -92q-49 -52 -85 -114t-59 -132q-24 -70 -33 -145q-6 17 -8.5 35t-3.5 36q-3 43 0.5 76.5t6.5 56.5q2 12 3 20.5t1 14.5zM272 311q9 2 21 11.5t11 34.5v2q9 112 42 196q32 83 73 141t82 94
q42 36 69 53q67 42 122.5 53t82.5 1q19 -7 39 -34.5t37 -69.5q19 -47 31.5 -105t17.5 -119q3 -34 2 -103t-20 -147t-63 -152q-43 -75 -126 -122q-42 -23 -89 -35t-96 -12q-68 0 -130 23q-61 22 -110.5 61.5t-84.5 93.5t-50 117q-12 54 -7.5 132t56.5 170q-3 -22 -4.5 -51.5
t0.5 -64.5q2 -34 10 -72t34 -71q1 -2 2 -2q4 -6 16 -17t32 -6z" />
    <glyph glyph-name="uniEB91" unicode="&#x6a9;" arabic-form="medial" 
d="M912 519q-62 50 -101 50.5t-60 -14.5q-37 -28 -39.5 -93t29.5 -147q22 -54 52.5 -96.5t70.5 -74.5q36 -27 78.5 -16.5t58.5 47.5q19 44 22 92t-8.5 93.5t-37.5 86.5q-26 40 -65 72zM946 199q-4 -10 -18 -13.5t-27 6.5q-34 26 -59.5 62t-44.5 83q-28 70 -25.5 115t15.5 54
q8 6 30 0.5t58 -34.5q62 -50 81.5 -126.5t-10.5 -146.5zM521 564l30 12l-15 30q-29 59 -69 104t-86 75t-96 45q-51 16 -100 16q-57 0 -110 -22t-70 -77q-14 -47 10 -97.5t78 -87.5q46 -31 100 -43q53 -12 109.5 -9t112.5 18q56 14 106 36zM127 611q-37 26 -55 58.5t-9 59.5
q8 27 40.5 42t81.5 15q33 0 71 -10q37 -9 74.5 -30.5t72.5 -55.5q36 -34 64 -83q-31 -11 -73 -23q-42 -11 -88 -14t-92 6q-47 8 -87 35zM661 523l18 58l-56 -20q-51 -18 -88 -48.5t-58 -72.5q-19 -36 -24.5 -79t2.5 -89q9 -52 33.5 -102.5t61.5 -89.5q39 -43 85.5 -66
t93.5 -23q33 0 65.5 9t64.5 27l52 28l-54 25q-48 23 -90 76q-43 53 -71.5 118t-39.5 132t5 117zM729 50q-35 0 -70 19t-64.5 51t-51.5 74q-21 42 -29 88q-5 33 3 94.5t76 104.5q-3 -51 8.5 -110t37.5 -119q27 -62 63.5 -112t77.5 -82q-13 -4 -25.5 -6t-25.5 -2zM615 878
q-56 -48 -62.5 -118.5t19.5 -140.5l11 -30l30 14q72 35 114 84.5t48 107.5q5 53 -14 76.5t-30 29.5q-26 13 -57 7t-59 -30zM715 801q-4 -45 -35 -76.5t-63 -50.5q-8 34 -5 79.5t42 78.5q10 9 24 15t25 1q7 -4 10.5 -16.5t1.5 -30.5zM406 285l-11 87l-44 -76
q-25 -42 -47 -87.5t-40 -92.5q-6 -18 1 -34t25 -23q46 -17 93.5 -31.5t96.5 -24.5l86 -18l-57 67q-43 51 -68.5 109t-34.5 124zM327 110q8 21 17.5 42.5t19.5 41.5q9 -30 21.5 -58t28.5 -55q-22 6 -44 13.5t-43 15.5z" />
    <glyph glyph-name="uniEB92" unicode="&#x6af;" arabic-form="isolated" 
d="M332 58h692v780h-240v-540h-152v540h-240v-540h-92q-25 0 -42.5 17.5t-17.5 42.5v480h-240v-450q0 -68 26 -128t71 -105t106 -71q60 -26 129 -26zM60 778h120v-420q0 -50 35 -85t85 -35h152v540h120v-540h272v540h120v-660h-632q-56 0 -106 21q-49 22 -86 58.5t-59 85.5
q-21 49 -21 105v390z" />
    <glyph glyph-name="uniEB93" unicode="&#x6af;" horiz-adv-x="1022" arabic-form="final" 
d="M149 -62l284 363h279l165 661h-728v-1024zM209 902h591l-60 -242h-351v-60h336l-60 -239h-261l-195 -249v790z" />
    <glyph glyph-name="uniEB94" unicode="&#x6af;" arabic-form="initial" 
d="M182 -64h228l113 210h319v240h-190l190 357v217h-228l-113 -210h-319v-240h190l-190 -357v-217zM242 139l230 431h-230v120h295l113 210h132v-143l-230 -431h230v-120h-295l-113 -210h-132v143z" />
    <glyph glyph-name="uniEB95" unicode="&#x6af;" arabic-form="medial" 
d="M270 960q-74 0 -127 -53t-53 -127v-664q0 -74 53 -127t127 -53t127 53t53 127v91l162 -201q45 -59 119 -68.5t133 35.5q59 46 68.5 120t-35.5 133l-180 221l180 223q45 59 35.5 133t-68.5 120q-59 45 -133 35.5t-119 -68.5l-162 -203v93q0 74 -53 127t-127 53zM659 853
q30 40 79.5 46t88.5 -24t45.5 -79.5t-23.5 -88.5l-209 -260l209 -258q30 -39 24 -88.5t-46 -79.5q-39 -30 -88.5 -24t-79.5 46l-269 335v-262q0 -50 -35 -85t-85 -35t-85 35t-35 85v664q0 50 35 85t85 35t85 -35t35 -85v-264z" />
    <glyph glyph-name="uniEB96" unicode="&#x6b3;" arabic-form="isolated" 
d="M1024 960h-1024v-1024h1024v1024zM964 478h-422v422h422v-422zM482 900v-422h-422v422h422zM60 418h422v-422h-422v422zM542 -4v422h422v-422h-422z" />
    <glyph glyph-name="uniEB97" unicode="&#x6b3;" horiz-adv-x="1022" arabic-form="final" 
d="M63 778q6 -94 32 -204t65.5 -215t90.5 -194t107 -142q33 -32 62.5 -55.5t64.5 -30.5q28 -5 58 10q31 15 59.5 39.5t53.5 52.5q26 29 43 51q44 55 81.5 112.5t55.5 94.5q35 2 52 4t52 11l23 5v179l-37 -10q-50 -13 -93 -8t-75 29q-35 25 -55.5 68.5t-25.5 102.5
q0 21 7.5 50t29.5 32q6 -1 10.5 -3.5t8.5 -7.5q15 -20 14.5 -62t-10.5 -75l-5 -15q5 -4 29 -31.5t91 -27.5q31 0 55 6l32 8q2 10 12 46.5t12 104.5q-1 56 -17 104q-16 47 -46 81t-74 53t-102 19q-69 -2 -123 -30t-88 -79q-21 -33 -33 -72t-14 -82t5 -89q8 -46 26 -92
q16 -40 47 -87t86 -80q-32 -58 -63 -102.5t-62 -77.5q-43 54 -78 116q-34 62 -61 136.5t-47 164.5q-21 89 -36 198l-4 26h-218zM227 750q14 -90 32 -176q19 -87 48.5 -168t71.5 -157t101 -144l21 -23l23 21q43 41 86 101t87 142l16 29l-29 13q-55 25 -86 68.5t-45 81.5
q-30 77 -27 152.5t37 127.5q26 38 67.5 59t94.5 23q59 0 94 -22q35 -23 53.5 -54.5t24.5 -64.5q6 -34 6 -56q-1 -29 -4 -53t-9 -48q-22 -5 -47.5 -4.5t-43.5 14.5q16 68 -0.5 137t-84.5 71h-3q-50 -4 -72 -48t-22 -95v-3q6 -73 33 -128t73 -88q37 -27 82.5 -36.5t97.5 -1.5
v-55q-22 -5 -39 -6t-67 -3l-31 -62l-114 -167q-64 -81 -102.5 -106.5t-51.5 -24.5q-28 5 -53 28.5t-45 42.5q-53 49 -99 132q-47 83 -83.5 179t-60.5 194t-31 178h101z" />
    <glyph glyph-name="uniEB98" unicode="&#x6b3;" arabic-form="initial" 
d="M302 718h-60v-120h-120v-300h180v420zM242 358h-60v180h60v-180zM362 598h60v-300h-60v300zM0 810v-724q0 -62 44 -106t106 -44h724q62 0 106 44t44 106v724q0 62 -44 106t-106 44h-724q-62 0 -106 -44t-44 -106zM60 810q0 37 26.5 63.5t63.5 26.5h724q37 0 63.5 -26.5
t26.5 -63.5v-724q0 -37 -26.5 -63.5t-63.5 -26.5h-724q-37 0 -63.5 26.5t-26.5 63.5v724zM362 718h60v-60h-60v60zM662 598h-180v-300h120v-60h-120v-60h180v420zM542 358v180h60v-180h-60zM902 598h-180v-300h120v-60h-120v-60h180v420zM782 358v180h60v-180h-60z" />
    <glyph glyph-name="uniEB99" unicode="&#x6b3;" arabic-form="medial" 
d="M542 716q-56 0 -92.5 -43.5t-25.5 -100.5q9 -43 44 -69t78 -27q65 -2 109.5 -52t35.5 -120q-8 -54 -53 -91t-104 -37h-52q-62 0 -106 44t-44 106v514q0 50 -35 85t-85 35t-85 -35t-35 -85v-514q0 -81 31 -152q30 -71 83 -124t124 -83q71 -31 152 -31h47q76 0 144 26
q68 25 122 70.5t89 107.5t45 135q11 89 -15 169q-27 80 -80.5 140.5t-129.5 96.5q-75 35 -162 35zM869 282q-8 -61 -37 -113q-30 -53 -75.5 -91t-104.5 -60q-58 -22 -123 -22h-47q-68 0 -128 26t-105 71t-71 105t-26 128v514q0 25 17.5 42.5t42.5 17.5t42.5 -17.5
t17.5 -42.5v-514q0 -43 17 -82q16 -38 44.5 -66.5t66.5 -44.5q39 -17 82 -17h52q41 0 78 14q36 13 65 37.5t48 57.5q20 33 25 71q7 48 -7 91t-42 76t-68 52q-40 20 -86 21q-20 0 -39.5 12.5t-24.5 35.5q-6 29 13 50.5t46 21.5q72 0 136 -29q64 -30 109.5 -81t68.5 -119
t13 -145z" />
    <glyph glyph-name="uniEB9A" unicode="&#x6b1;" arabic-form="isolated" 
d="M814 284q0 -12 -9 -21t-21 -9t-21 9t-9 21v173l-122 -40l-88 43v-176q0 -50 19 -93q19 -44 51.5 -76.5t76.5 -51.5q43 -19 93 -19t93 19q44 19 76.5 51.5t51.5 76.5q19 43 19 93v135h-210v-135zM874 284v75h90v-75q0 -74 -53 -127t-127 -53t-127 53t-53 127v79l23 -11
l67 22v-90q0 -37 26.5 -63.5t63.5 -26.5t63.5 26.5t26.5 63.5zM480 284v330q0 12 9.5 21t22.5 9t22.5 -9t9.5 -21v-86l92 -47l118 40v93q0 50 -19 93q-19 44 -52 76.5t-77 51.5t-94 19t-94 -19t-77 -51.5t-52 -76.5q-19 -43 -19 -93v-330q0 -12 -9 -21t-21 -9t-21 9t-9 21
v135h-210v-135q0 -50 19 -93q19 -44 51.5 -76.5t76.5 -51.5q43 -19 93 -19t93 19q44 19 76.5 51.5t51.5 76.5q19 43 19 93zM60 284v75h90v-75q0 -37 26.5 -63.5t63.5 -26.5t63.5 26.5t26.5 63.5v330q0 74 53.5 127t128.5 53t128.5 -53t53.5 -127v-50l-53 -18l-37 19v49
q0 37 -27.5 63.5t-64.5 26.5t-64.5 -26.5t-27.5 -63.5v-330q0 -74 -53 -127t-127 -53t-127 53t-53 127z" />
    <glyph glyph-name="uniEB9B" unicode="&#x6b1;" arabic-form="final" 
d="M-2 -64h481v421h60v-421h483l-513 1022zM925 -4h-326v79l170 171l-42 42l-128 -128v95l111 111l-43 42l-68 -69v78h-180v-197l-68 68l-43 -42l111 -111v-139h-324l414 828z" />
    <glyph glyph-name="uniEB9C" unicode="&#x6b1;" arabic-form="initial" 
d="M987 760q-5 24 -16.5 45.5t-28.5 38.5q-5 5 -11 10t-13 9l-1 1q0 1 -1 1t-2 1q-3 2 -5.5 3.5t-5.5 2.5q-18 9 -37.5 14t-40.5 5h-70v48q0 8 -6 14.5t-15 6.5q-8 0 -14.5 -6t-6.5 -15v-46h-401v46q0 8 -6.5 14.5t-14.5 6.5t-14.5 -6t-6.5 -15v-46h-70q-15 0 -31 -3t-30 -9
q-16 -7 -30 -16t-26 -21q-7 -7 -12.5 -14.5t-10.5 -14.5q-5 -9 -9.5 -17.5t-7.5 -17.5q-2 -5 -3.5 -10t-2.5 -10q-1 -8 -2 -16.5t-1 -16.5v-627q0 -34 13 -64t35 -52q23 -23 53 -35.5t63 -12.5h628q34 0 64 13t52 35q23 23 35.5 53t12.5 63v627q0 8 -1 16.5t-2 16.5zM78 728
q0 6 0.5 12t1.5 12t3 12l4 12q3 7 7 14t8 13l6 5l4 7q5 5 11 9.5t12 8.5q14 8 30 13t33 5h69v-46q0 -9 6 -15t16 -6q8 0 14.5 6t6.5 15v46h406v-46q0 -9 6 -15t16 -6q8 0 14.5 6t6.5 15v46h69q18 0 34 -5t30 -13q6 -4 11.5 -8.5t10.5 -9.5q13 -13 21.5 -28.5t12.5 -34.5
q0 -6 1 -12t1 -12v-92h-872v92zM951 101q0 -26 -9.5 -48.5t-26.5 -39.5t-39.5 -26.5t-47.5 -9.5h-628q-25 0 -47.5 9.5t-39.5 26.5q-16 17 -25.5 39.5t-9.5 47.5v495h873v-494z" />
    <glyph glyph-name="uniEB9D" unicode="&#x6b1;" horiz-adv-x="920" arabic-form="medial" 
d="M341 528q7 0 13.5 5.5t6.5 14.5q0 8 -5.5 14t-14.5 6q-8 0 -14.5 -5.5t-6.5 -14.5q2 -8 7.5 -14t13.5 -6zM461 787q8 0 14 5.5t6 14.5v133q0 7 -5.5 13.5t-14.5 6.5t-14.5 -5.5t-5.5 -14.5v-133q0 -8 6 -14t14 -6zM441 89v-133q0 -7 5.5 -13.5t14.5 -6.5t14.5 5.5
t5.5 14.5v133q0 8 -5.5 14t-14.5 6t-14.5 -6t-5.5 -14zM153 689q6 -6 14 -6t15 6q6 6 6 14t-6 14l-86 86q-6 6 -14.5 6t-14.5 -6t-6 -14.5t6 -14.5zM740 189q-6 -6 -6 -14t6 -15l86 -85q6 -6 14.5 -6t14.5 6t6 14t-6 14l-86 86q-6 5 -14 5t-15 -5zM769 689l86 85q6 6 6 14.5
t-6 14.5t-14.5 6t-14.5 -6l-86 -86q-6 -6 -6 -14t6 -14q7 -6 15 -6t14 6zM153 189l-86 -86q-6 -6 -6 -14t6 -14t14.5 -6t14.5 6l86 85q6 7 6 15t-6 14q-7 5 -15 5t-14 -5zM129 303q39 -33 79 -58q41 -25 83 -42t84 -26q43 -8 86 -8q42 0 85 8q42 9 84 26t83 42t80 58
q59 49 91 90.5t34 44.5q3 4 3 11t-3 11q-2 2 -34 43t-91 92q-39 33 -79 58q-41 25 -83 42t-84 26q-43 8 -86 8q-42 0 -85 -8q-42 -9 -84 -26t-83 -42t-80 -58q-59 -49 -91 -90.5t-34 -44.5q-3 -4 -3 -11t3 -11q3 -3 34.5 -44.5t90.5 -90.5zM155 562q25 22 58 44q32 22 71 40
t84 29q44 12 93 12t93 -12q45 -11 84 -29t71 -40q33 -22 58 -44q41 -35 69.5 -67t40.5 -47q-12 -15 -39.5 -47t-68.5 -67q-25 -22 -58 -44q-32 -22 -71 -40t-84 -29q-44 -12 -93 -12t-93 12q-45 11 -83.5 29t-71.5 40t-58 44q-41 35 -69.5 67t-40.5 47q11 15 39 47t69 67z
M461 268q75 0 127.5 53.5t52.5 126.5q0 75 -52.5 127.5t-127.5 52.5q-15 0 -31.5 -3.5t-33.5 -9.5q-8 -3 -12 -11t-1 -15q4 -8 11 -11.5t18 1.5q11 4 23.5 6t23.5 2q58 0 98.5 -41t40.5 -98q0 -58 -41 -98.5t-98 -40.5q-58 0 -98.5 41t-40.5 98q0 8 0.5 13t1.5 11
q2 8 -2.5 14.5t-13.5 8.5q-8 1 -14.5 -4t-7.5 -12q-2 -8 -2.5 -16.5t-0.5 -16.5q0 -73 52.5 -125.5t127.5 -52.5zM541 448q0 34 -24 57t-56 23t-56 -24t-24 -56t24 -56t56 -24q31 0 55.5 23t24.5 57zM420 448q0 17 12 29t29 12t29 -12t12 -29t-12 -29t-29 -12t-29 12t-12 29
z" />
    <glyph glyph-name="uniEB9E" unicode="&#x6ba;" horiz-adv-x="1020" arabic-form="isolated" 
d="M220 134q-4 3 -7.5 7t-8.5 7q30 29 58 61t50 68.5t36 78.5q14 41 14 89t-14 89q-14 42 -36 78.5t-50 68.5t-58 61q5 3 8.5 7t7.5 7q50 47 87.5 90.5t37.5 89.5v16h-32v-16q0 -8 -1.5 -16.5t-6.5 -16.5h-248q-3 8 -6 16.5t-3 16.5v16h-32v-16q0 -47 37.5 -90.5t87.5 -91.5
q5 -3 8.5 -7t8.5 -7q-30 -29 -58 -61q-29 -32 -51 -68.5t-35 -78.5q-14 -41 -14 -89t14 -89q13 -42 35 -78.5t51 -68.5q28 -32 58 -61q-5 -3 -8.5 -7t-8.5 -7q-50 -47 -87.5 -90.5t-37.5 -89.5v-16h32v16q0 8 2 16.5t7 15.5h248q3 -7 5.5 -15.5t2.5 -16.5v-16h32v16
q0 47 -36.5 90t-88.5 92zM77 873h208q-6 -7 -13.5 -16t-14.5 -16h-152q-8 7 -15 16t-13 16zM139 809h87q-6 -7 -13 -13t-13 -14q-5 -4 -8.5 -7.5t-7.5 -8.5q-5 5 -9 8.5t-7 7.5q-9 6 -16 12.5t-13 14.5zM182 720q15 -15 30 -30.5t28 -30.5h-115q12 17 27 32t30 29zM59 560
h155v32h-137q4 9 10 18t12 17v-2h164v2q6 -9 11.5 -17.5t10.5 -17.5h-39v-32h57q3 -7 6 -16t6 -16h-271q5 9 8.5 17t6.5 15zM38 495h287q2 -7 3 -15.5t1 -16.5h-295q2 8 2.5 16.5t1.5 15.5zM46 364h53v32h-61q-1 8 -2.5 16.5t-1.5 16.5h295q0 -9 -1 -17t-3 -16h-192v-32h184
q-3 -9 -6 -17t-6 -15h-244q-5 7 -8.5 15t-6.5 17zM99 263q-6 9 -12 17t-10 18h210q-5 -10 -10.5 -18.5t-11.5 -16.5v2zM123 233h115q-13 -17 -28 -32t-30 -29q-14 14 -28.5 29t-28.5 32zM166 110l16 16q4 -5 8.5 -8.5t7.5 -7.5q8 -6 14 -12.5t12 -14.5h-87l15 15zM77 19
q6 7 13 16t15 16h152q7 -9 14.5 -17t13.5 -15h-208zM937 67h-26q29 53 43.5 111.5t14.5 119.5q0 50 -10 98t-30 92.5t-48 84.5q-29 40 -65 74l44 44l-32 33l59 58l16 -16l73 73l-122 121l-72 -73l16 -16l-59 -58l-32 32l-230 -230l-33 32l-72 -73l220 -220l72 73l-32 32
l93 93q35 -32 61 -73t40 -87q-23 -4 -37.5 -22t-14.5 -42q0 -27 18.5 -46t45.5 -19q-1 -10 -2.5 -20.5t-3.5 -19.5q-9 3 -19.5 5.5t-20.5 2.5h-247q-33 0 -57.5 -24t-24.5 -59v-16h214q0 -5 -1 -8.5t-1 -7.5v-49h-231q-33 0 -57.5 -24t-24.5 -59v-48h658v48q0 35 -24 59
t-59 24zM856 916l75 -75l-26 -26l-75 74zM824 849l42 -42l-58 -59l-43 42zM594 403l-174 173l26 27l174 -174zM610 485l-109 109l206 206l109 -109zM747 578l47 47q34 -32 61 -70q26 -37 44.5 -78.5t28.5 -86.5q9 -44 9 -90q0 -44 -9 -86.5t-25 -83.5q-3 24 -14.5 44.5
t-28.5 34.5q5 16 7 33t4 33q15 9 24.5 24t9.5 33q0 21 -12.5 38t-32.5 24q-13 52 -42.5 99t-70.5 85zM806 332q0 13 9.5 22.5t22.5 9.5q14 0 23.5 -9.5t9.5 -22.5q0 -14 -9.5 -23t-23.5 -9q-12 -2 -22 8t-10 24zM497 166q4 14 17 23.5t29 9.5h166q-8 -8 -14 -16t-10 -17
h-188zM988 -32h-592v16q0 20 14.5 34.5t33.5 14.5h295v32h-32v49q0 33 24 58t59 25t59 -24t24 -59v-49h-99v-32h163q20 0 34.5 -14.5t14.5 -34.5z" />
    <glyph glyph-name="uniEB9F" unicode="&#x6ba;" arabic-form="final" 
d="M734 340q-6 3 -12.5 0.5t-9.5 -8.5v-2q-3 -6 -5 -12.5t-5 -12.5t-0.5 -12.5t8.5 -9.5t12.5 -0.5t9.5 8.5t6 13.5t7 14.5q1 5 -2 11.5t-9 9.5zM904 560q-25 72 -72 131.5t-110 101.5q-6 3 -12.5 1.5t-9.5 -7.5q-3 -7 -2 -12.5t6 -10.5q59 -38 102.5 -93t66.5 -121
q2 -6 8 -9.5t12 -0.5q7 1 9.5 7.5t1.5 12.5zM659 825q-8 3 -15.5 6.5t-15.5 6.5q-6 1 -12.5 -1.5t-7.5 -9.5q-2 -6 1 -11.5t9 -8.5q8 -3 14.5 -5.5t14.5 -6.5q6 -3 12.5 -0.5t9.5 8.5q2 8 -1 14.5t-9 7.5zM479 697q-58 0 -109 -22q-51 -23 -89.5 -61t-60.5 -89
q-22 -52 -22 -110t22 -109t60.5 -89.5t89.5 -60.5t109 -22t112.5 23.5t93.5 66.5q5 6 3.5 12.5t-7.5 9.5q-4 3 -10 3t-10 -3q-35 -37 -80 -57q-46 -20 -93.5 -22t-93.5 14t-84 51q-37 34 -57 80q-20 45 -21.5 93t14.5 95q17 47 52 85q35 37 80 57t93 22t94 -15
q46 -16 84 -50q38 -35 58.5 -82.5t20.5 -99.5v-18q0 -6 4.5 -11.5t12.5 -6.5q6 0 11 4t7 12v20q-1 58 -23 109q-23 50 -61.5 88.5t-89.5 60.5q-52 22 -110 22zM479 499q-33 0 -58 -24t-25 -60q0 -35 24 -59t59 -24q36 0 60 24t24 59q0 36 -24 60t-60 24zM479 362
q-23 0 -38 16t-15 37q0 23 16 38t37 15q22 0 37.5 -15.5t15.5 -37.5q2 -21 -14 -37t-39 -16zM512 564q0 -13 -9.5 -22.5t-23.5 -9.5q-13 0 -22.5 9.5t-9.5 22.5q0 14 9.5 23.5t22.5 9.5q14 0 23.5 -9.5t9.5 -23.5zM512 266q0 -13 -9.5 -22.5t-23.5 -9.5q-13 0 -22.5 9.5
t-9.5 22.5q0 14 9.5 23.5t22.5 9.5q14 0 23.5 -9.5t9.5 -23.5zM363 415q0 -13 -9.5 -22.5t-23.5 -9.5q-13 0 -22.5 9.5t-9.5 22.5q0 14 9.5 23.5t22.5 9.5q14 0 23.5 -9.5t9.5 -23.5zM661 415q0 -13 -9.5 -22.5t-23.5 -9.5q-13 0 -22.5 9.5t-9.5 22.5q0 14 9.5 23.5
t22.5 9.5q14 0 23.5 -9.5t9.5 -23.5zM1024 464q-8 99 -50 186q-41 86 -107.5 152.5t-152.5 107.5q-87 42 -186 50q-12 2 -22.5 -3.5t-20.5 -14.5q-7 -10 -10 -22.5t0 -22.5q-98 -1 -185 -40q-87 -38 -151.5 -104t-102.5 -153q-37 -88 -36 -187q1 -98 39 -186
q38 -87 104 -152t153 -102q88 -38 187 -37t186 38q86 38 151 102.5t102 151.5q38 87 39 185q12 -3 23.5 0t21.5 11q9 7 14.5 17.5t3.5 22.5zM926 415q0 -92 -35 -174q-35 -81 -95.5 -141.5t-142.5 -95.5q-81 -35 -174 -35q-92 0 -174 35q-81 35 -141.5 95.5t-95.5 141.5
q-35 82 -35 174q0 93 35 174q35 82 95.5 142.5t141.5 95.5q82 35 174 35h6l25 -88q6 -20 20.5 -35.5t34.5 -21.5q39 -11 73 -32q35 -20 62.5 -48t47.5 -62q21 -34 31 -72q6 -20 21.5 -34.5t35.5 -20.5l88 -24q2 -4 2 -6v-3zM985 448q-3 -3 -7 -3.5t-9 -0.5l-20 6h-3l-99 29
q-13 3 -22 11.5t-13 20.5q-12 43 -35 81q-22 38 -52.5 68.5t-68.5 53.5t-81 36q-12 3 -20.5 12.5t-11.5 22.5l-35 122q-2 5 -0.5 8.5t4.5 7.5q2 3 5.5 4.5t6.5 1.5h2q94 -7 175 -46q82 -39 143.5 -101t100.5 -144q39 -81 46 -174q0 -6 -1.5 -10t-4.5 -6zM133 448h-33
q-6 0 -11 -5t-5 -11t5 -11.5t11 -5.5h33q6 0 11 5.5t5 11.5q0 7 -5 11.5t-11 4.5zM479 101q-6 0 -11 -5t-5 -11v-33q0 -6 5 -11t11 -5t11.5 5t5.5 11v33q0 6 -4.5 11t-12.5 5zM406 772l-8 33q-2 6 -7.5 10t-13.5 2q-6 -1 -9.5 -7t-2.5 -13v-2l8 -33q2 -6 8.5 -9.5t12.5 -0.5
q7 1 10 7.5t2 12.5zM594 69l-9 32q-1 6 -7.5 9.5t-12.5 0.5q-6 -1 -9 -6.5t-3 -13.5l8 -33q3 -6 9 -8.5t13 0.5t9.5 7.5t1.5 11.5zM320 740l-16 30q-3 6 -9.5 7.5t-13.5 -3.5q-6 -3 -7.5 -9.5t1.5 -12.5l17 -29q3 -6 9.5 -8t12.5 2q6 5 7.5 11t-1.5 12zM685 109l-16 31
q-3 6 -9.5 7.5t-12.5 -3.5q-6 -3 -8 -9.5t2 -12.5l16 -29q3 -6 9.5 -8.5t12.5 2.5q6 3 7.5 9.5t-1.5 12.5zM245 691l-23 24q-4 5 -11 5t-13 -5q-6 -4 -5.5 -11t5.5 -13l24 -25q5 -4 12.5 -4t10.5 6q4 5 4 11t-4 12zM761 175l-25 24q-4 5 -11.5 4.5t-10.5 -6.5q-5 -4 -5 -11
t5 -11l22 -25q5 -4 12 -4t13 4q6 5 5 12.5t-5 12.5zM188 621l-29 17q-6 3 -12.5 1.5t-9.5 -5.5q-3 -6 -2 -13t6 -10h2l28 -18q6 -3 13 -1.5t10 7.5t0.5 12t-6.5 10zM149 538l-33 8q-6 3 -12.5 0.5t-9.5 -8.5t-0.5 -13t8.5 -10h2l2 -2l33 -8q6 -1 12.5 2.5t7.5 9.5
q2 8 -1 13.5t-9 7.5z" />
    <glyph glyph-name="uniEBA0" unicode="&#x6bb;" arabic-form="isolated" 
d="M1008 -30h-69q0 5 1 9.5t1 7.5q0 36 -19.5 64.5t-49.5 42.5v576q0 8 -4.5 12t-11.5 4h-258v258q0 7 -4 11.5t-12 4.5h-462q-8 0 -12.5 -4.5t-4.5 -11.5v-974h-85q-7 0 -11.5 -4t-4.5 -12q0 -7 4.5 -11.5t11.5 -4.5h992q7 0 11.5 4.5t4.5 11.5q0 8 -5.5 12t-12.5 4z
M835 106q-4 0 -8.5 1t-7.5 1q-9 0 -19 -1.5t-17 -4.5q-2 3 -6 4.5t-8 1.5q-8 0 -12.5 -4t-4.5 -12v-6q-4 -3 -8.5 -7.5t-9.5 -8.5l-2 -2q-11 13 -24.5 22.5t-28.5 13.5q-1 2 -4 3t-8 1h-18q-8 0 -16.5 -1.5t-16.5 -4.5h-2l-2 -2q-9 8 -19.5 12.5t-20.5 8.5h-35
q-12 -2 -23 -5.5t-21 -9.5v548h340zM136 926h426v-240h-85q-8 0 -12.5 -4t-4.5 -12v-531q-6 6 -13.5 12t-16.5 10l-2 2h-2q-9 5 -19.5 8t-19.5 4h-12q-20 0 -37 -5.5t-32 -16.5v6q0 8 -4 12t-12 4t-12 -4t-4 -12v-37l2 -4q-6 -10 -10.5 -21t-5.5 -25q-16 -2 -29.5 -7.5
t-23.5 -12.5v4q0 7 -4.5 11.5t-11.5 4.5q-8 0 -12.5 -4.5t-4.5 -11.5v-41q-9 -9 -13 -20.5t-7 -24.5h-18v956zM266 37h8q7 0 11.5 4.5t4.5 12.5q0 36 25 60.5t60 24.5q32 0 56 -20.5t27 -52.5q2 -3 3.5 -6t4.5 -4h8q5 0 8.5 1.5t6.5 6.5l2 2q10 12 24 19t30 7
q10 0 17.5 -2.5t15.5 -7.5q-15 -14 -24 -32.5t-9 -38.5v-6q0 -9 1.5 -17t5.5 -18h-363q6 28 27 47t50 20zM592 -30q-4 8 -7 18t-3 19q0 14 5.5 27t14.5 22q2 1 3.5 2.5t4.5 3.5h4l4 2q29 15 57 3.5t39 -40.5q1 -4 4.5 -7t11.5 -3q2 0 3.5 0.5t2.5 1.5q3 0 6 2.5t4 5.5
q5 11 12 19t17 14q1 0 2.5 1t3.5 3q9 4 18.5 6t19.5 2q37 0 61 -25t24 -60v-9l-2 -8h-310zM564 516q-8 0 -12.5 -4.5t-4.5 -11.5v-35q0 -7 4.5 -11.5t12.5 -4.5q7 0 11.5 4.5t4.5 11.5v35q0 7 -4.5 11.5t-11.5 4.5zM564 210q-8 0 -12.5 -4.5t-4.5 -11.5v-35q0 -8 4.5 -12
t12.5 -4q7 0 11.5 4t4.5 12v35q0 6 -4.5 11t-11.5 5zM564 415q-8 0 -12.5 -4.5t-4.5 -12.5v-34q0 -8 4.5 -12t12.5 -4q7 0 11.5 4t4.5 12v34q0 6 -4.5 11.5t-11.5 5.5zM564 311q-8 0 -12.5 -4t-4.5 -12v-35q0 -7 4.5 -11.5t12.5 -4.5q7 0 11.5 4.5t4.5 11.5v35q0 8 -4.5 12
t-11.5 4zM564 619q-8 0 -12.5 -4t-4.5 -12v-34q0 -8 4.5 -12.5t12.5 -4.5q7 0 11.5 4.5t4.5 12.5v34q0 6 -4.5 11t-11.5 5zM665 449q8 0 12 4.5t4 11.5v35q0 7 -4 11.5t-12 4.5t-12 -4.5t-4 -11.5v-35q0 -7 4 -11.5t12 -4.5zM665 550q8 0 12 4.5t4 12.5v34q0 8 -4 12t-12 4
t-12 -4t-4 -12v-34q0 -8 4 -12.5t12 -4.5zM665 346q8 0 12 4t4 12v34q0 8 -4 12.5t-12 4.5t-12 -4.5t-4 -12.5v-34q0 -8 4 -12t12 -4zM665 244q8 0 12 4.5t4 11.5v35q0 8 -4 12t-12 4t-12 -4t-4 -12v-35q0 -7 4 -11.5t12 -4.5zM665 141q8 0 12 4t4 12v34q0 8 -4 12.5
t-12 4.5t-12 -4.5t-4 -12.5v-34q0 -8 4 -12t12 -4zM769 346q7 0 11.5 4t4.5 12v34q0 8 -4.5 12.5t-11.5 4.5q-8 0 -12.5 -4.5t-4.5 -12.5v-34q-1 -8 4 -12t13 -4zM769 449q7 0 11.5 4.5t4.5 11.5v35q0 7 -4.5 11.5t-11.5 4.5q-8 0 -12.5 -4.5t-4.5 -11.5v-35q-1 -7 4 -11.5
t13 -4.5zM769 141q7 0 11.5 4t4.5 12v34q0 8 -4.5 12.5t-11.5 4.5q-8 0 -12.5 -4.5t-4.5 -12.5v-34q-1 -8 4 -12t13 -4zM769 244q7 0 11.5 4.5t4.5 11.5v35q0 8 -4.5 12t-11.5 4q-8 0 -12.5 -4t-4.5 -12v-35q-1 -7 4 -11.5t13 -4.5zM769 550q7 0 11.5 4.5t4.5 12.5v34
q0 8 -4.5 12t-11.5 4q-8 0 -12.5 -4t-4.5 -12v-34q-1 -8 4 -12.5t13 -4.5zM189 311q7 0 11.5 4.5t4.5 11.5v35q0 7 -4.5 11.5t-11.5 4.5q-8 0 -12.5 -4.5t-4.5 -11.5v-35q-1 -6 4 -11t13 -5zM189 210q7 0 11.5 4t4.5 12v34q0 8 -4.5 12.5t-11.5 4.5q-8 0 -12.5 -4.5
t-4.5 -12.5v-34q-1 -8 4 -12t13 -4zM189 106q7 0 11.5 4.5t4.5 12.5v34q0 8 -4.5 12t-11.5 4q-8 0 -12.5 -4t-4.5 -12v-34q-1 -7 4 -12t13 -5zM189 824q7 0 11.5 4.5t4.5 11.5v35q0 7 -4.5 11.5t-11.5 4.5q-8 0 -12.5 -4.5t-4.5 -11.5v-35q-1 -7 4 -11.5t13 -4.5zM189 721
q7 0 11.5 4t4.5 12v34q0 8 -4.5 12.5t-11.5 4.5q-8 0 -12.5 -4.5t-4.5 -12.5v-34q-1 -6 4 -11t13 -5zM189 619q7 0 11.5 4.5t4.5 12.5v34q0 8 -4.5 12t-11.5 4q-8 0 -12.5 -4t-4.5 -12v-34q-1 -8 4 -12.5t13 -4.5zM189 516q7 0 11.5 4.5t4.5 11.5v35q0 7 -4.5 11.5
t-11.5 4.5q-8 0 -12.5 -4.5t-4.5 -11.5v-33q-1 -7 4 -12.5t13 -5.5zM189 415q7 0 11.5 4t4.5 12v34q0 8 -4.5 12t-11.5 4q-8 0 -12.5 -4t-4.5 -12v-34q-1 -8 4 -12t13 -4zM290 721q8 0 12 4t4 12v34q0 8 -4 12.5t-12 4.5t-12 -4.5t-4 -12.5v-34q0 -6 4 -11t12 -5zM290 824
q8 0 12 4.5t4 11.5v35q0 7 -4 11.5t-12 4.5t-12 -4.5t-4 -11.5v-35q0 -7 4 -11.5t12 -4.5zM290 516q8 0 12 4.5t4 11.5v35q0 7 -4 11.5t-12 4.5t-12 -4.5t-4 -11.5v-33q0 -7 4 -12.5t12 -5.5zM290 619q8 0 12 4.5t4 12.5v34q0 8 -4 12t-12 4t-12 -4t-4 -12v-34q0 -8 4 -12.5
t12 -4.5zM290 415q8 0 12 4t4 12v34q0 8 -4 12t-12 4t-12 -4t-4 -12v-34q0 -8 4 -12t12 -4zM290 311q8 0 12 4.5t4 11.5v35q0 7 -4 11.5t-12 4.5t-12 -4.5t-4 -11.5v-35q0 -6 4 -11t12 -5zM290 210q8 0 12 4t4 12v34q0 8 -4 12.5t-12 4.5t-12 -4.5t-4 -12.5v-34q0 -8 4 -12
t12 -4zM393 619q8 0 12.5 4.5t4.5 12.5v34q0 8 -4.5 12t-12.5 4q-7 0 -11.5 -4t-4.5 -12v-34q-1 -8 4 -12.5t12 -4.5zM393 721q8 0 12.5 4t4.5 12v34q0 8 -4.5 12.5t-12.5 4.5q-7 0 -11.5 -4.5t-4.5 -12.5v-34q-1 -6 4 -11t12 -5zM393 824q8 0 12.5 4.5t4.5 11.5v35
q0 7 -4.5 11.5t-12.5 4.5q-7 0 -11.5 -4.5t-4.5 -11.5v-35q-1 -7 4 -11.5t12 -4.5zM393 210q8 0 12.5 4t4.5 12v34q0 8 -4.5 12.5t-12.5 4.5q-7 0 -11.5 -4.5t-4.5 -12.5v-34q-1 -8 4 -12t12 -4zM393 311q8 0 12.5 4.5t4.5 11.5v35q0 7 -4.5 11.5t-12.5 4.5q-7 0 -11.5 -4.5
t-4.5 -11.5v-35q-1 -6 4 -11t12 -5zM393 415q8 0 12.5 4t4.5 12v34q0 8 -4.5 12t-12.5 4q-7 0 -11.5 -4t-4.5 -12v-34q-1 -8 4 -12t12 -4zM393 516q8 0 12.5 4.5t4.5 11.5v35q0 7 -4.5 11.5t-12.5 4.5q-7 0 -11.5 -4.5t-4.5 -11.5v-33q-1 -7 4 -12.5t12 -5.5zM495 721
q7 0 11.5 4t4.5 12v34q0 8 -4.5 12.5t-11.5 4.5q-8 0 -12 -4.5t-4 -12.5v-34q0 -6 4 -11t12 -5zM495 824q7 0 11.5 4.5t4.5 11.5v35q0 7 -4.5 11.5t-11.5 4.5q-8 0 -12 -4.5t-4 -11.5v-35q0 -7 4 -11.5t12 -4.5z" />
    <glyph glyph-name="uniEBA1" unicode="&#x6bb;" horiz-adv-x="1103" arabic-form="final" 
d="M952 -64q-13 1 -24.5 6.5t-19.5 15.5l-318 381q-41 49 -41 113.5t41 113.5l307 372q9 10 21 16t25 6q13 1 25 -4t21 -15l89 -91q17 -17 17.5 -40.5t-14.5 -42.5l-233 -277q-14 -16 -14 -37.5t14 -37.5l242 -291q16 -18 14.5 -42t-18.5 -40l-87 -87q-9 -8 -22 -13.5
t-25 -5.5zM920 919l-308 -372q-34 -41 -34 -94.5t34 -94.5l318 -382q4 -4 10 -7t13 -4q6 0 13 3.5t11 6.5l87 87q9 8 9.5 20.5t-7.5 21.5l-241 290q-21 25 -21 57.5t21 57.5l232 277q8 9 7.5 21t-8.5 21l-89 93q-4 5 -10.5 7.5t-13.5 1.5q-6 0 -12.5 -3t-10.5 -8zM570 -39
h-518q-22 0 -37 15.5t-15 36.5v133q0 22 15 37t37 15h518q22 0 37 -15t15 -37v-133q1 -9 -3 -18.5t-11 -16.5q-7 -8 -17 -12.5t-21 -4.5zM52 168q-9 0 -15.5 -6.5t-6.5 -15.5v-133q0 -9 6.5 -15.5t15.5 -6.5h518q5 0 9 1.5t7 5.5q3 3 4.5 7t1.5 8v133q0 9 -6 15.5t-16 6.5
h-518zM570 698h-518q-22 0 -37 15t-15 37v133q0 21 15 36.5t37 15.5h518q22 0 37 -15.5t15 -36.5v-133q1 -9 -3 -18.5t-11 -17.5q-7 -7 -17 -11.5t-21 -4.5zM52 905q-9 0 -15.5 -6.5t-6.5 -15.5v-133q0 -9 6.5 -15.5t15.5 -6.5h518q5 0 9 1.5t7 5.5q3 3 4.5 6.5t1.5 7.5v134
q0 9 -6 15.5t-16 6.5h-518zM366 330h-314q-22 0 -37 15t-15 37v132q0 22 15 37t37 15h314q22 0 37 -15t15 -37v-132q0 -21 -15.5 -36.5t-36.5 -15.5zM52 537q-9 0 -15.5 -6.5t-6.5 -16.5v-132q0 -10 6.5 -16.5t15.5 -6.5h314q9 0 15.5 7t6.5 16v132q0 10 -6 16.5t-16 6.5
h-314z" />
    <glyph glyph-name="uniEBA2" unicode="&#x6bb;" horiz-adv-x="861" arabic-form="initial" 
d="M264 851q-7 0 -13.5 -5.5t-6.5 -14.5t5.5 -14.5t14.5 -5.5q8 0 14 5.5t6 14.5t-5.5 14.5t-14.5 5.5zM512 39q-8 0 -14 -5.5t-6 -14.5q0 -8 5.5 -14.5t14.5 -6.5q8 0 14 6t6 15t-5.5 14.5t-14.5 5.5zM248 646l-69 40q-10 6 -21.5 6t-20.5 -6q-11 -6 -16.5 -16t-5.5 -20
v-79q0 -12 5.5 -22t16.5 -14q5 -3 10.5 -4.5t11.5 -1.5t11 1.5t11 4.5l69 40q11 6 16.5 16t5.5 20q-1 9 -7 18.5t-17 16.5zM228 605l-69 -40h-2q-1 0 -1 1l-1 1v79l2 2h4l70 -41l1 -2h-4zM861 599v280q0 34 -24 57.5t-57 23.5h-536q-33 0 -57 -23.5t-24 -57.5v-108h-143
q-7 0 -13.5 -6t-6.5 -15v-288q0 -7 5.5 -13.5t14.5 -6.5h145v-427q0 -34 24 -57.5t57 -23.5h536q33 0 57 23.5t24 57.5v159zM40 732h297v-248h-297v248zM780 -24h-536q-17 0 -28.5 12t-11.5 29v48h616v-48q0 -19 -11.5 -30t-28.5 -11zM820 103h-616v341h151q7 0 13.5 5.5
t6.5 14.5v288q0 8 -5.5 14.5t-14.5 6.5h-151v106q0 17 11.5 29t28.5 12h536q17 0 28.5 -12t11.5 -29v-28h-475q-8 0 -14 -5.5t-6 -14.5t5.5 -14.5t14.5 -5.5h475v-708zM556 295h-268q-7 0 -13.5 -5.5t-6.5 -14.5t5.5 -15t14.5 -6h268q8 0 14.5 6t6.5 15t-6 14.5t-15 5.5z
M421 216h-135q-7 0 -13.5 -5.5t-6.5 -14.5t5.5 -14.5t14.5 -5.5h135q8 0 14 5.5t6 14.5q0 8 -5.5 14t-14.5 6zM502 216q-5 0 -8 -1.5t-6 -4.5t-4.5 -6t-1.5 -8t1.5 -8t4.5 -6t6 -4.5t8 -1.5q4 0 7.5 1.5t6.5 4.5t4.5 6t1.5 8t-1.5 8t-4.5 6t-6.5 4.5t-7.5 1.5zM464 732h268
q7 0 13.5 5.5t6.5 14.5t-5.5 15t-14.5 6h-268q-8 0 -14.5 -6t-6.5 -15t6.5 -14.5t14.5 -5.5zM619 672q0 7 -5.5 13.5t-14.5 6.5h-135q-8 0 -14.5 -5.5t-6.5 -14.5q0 -8 6 -14t15 -6h135q7 0 13.5 6t6.5 14z" />
    <glyph glyph-name="uniEBA3" unicode="&#x6bb;" horiz-adv-x="1073" arabic-form="medial" 
d="M988 578h-170l91 91q4 4 10 7t14 3q29 0 54 10t45 30q21 21 31.5 48t9.5 55q0 29 -12 55.5t-33 46.5q-41 38 -96 38t-96 -38q-23 -22 -35 -48.5t-12 -55.5q0 -6 -2.5 -12.5t-7.5 -11.5l-222 -218h-492q-28 0 -46.5 -19t-18.5 -46v-130q0 -41 9.5 -81.5t28.5 -78.5
q-3 -3 -3.5 -7t-0.5 -9q3 -41 23.5 -76t55.5 -57q8 -5 15.5 -9.5t15.5 -7.5q-11 -12 -17 -24.5t-6 -27.5q0 -29 20 -49t49 -20q2 0 14.5 2t72.5 14q14 -12 32.5 -15t36.5 3q6 -1 12 -2.5t12 -1.5h320q26 0 44.5 18.5t18.5 44.5v32q20 3 39.5 8t37.5 12q6 3 8.5 9t-0.5 12
t-8.5 8.5t-11.5 -0.5q-28 -11 -56.5 -17t-59.5 -6h-192q5 3 9.5 5.5t8.5 7.5q34 22 55 57t24 76q2 11 -3.5 18t-16.5 10q-40 13 -80.5 7t-73.5 -29q-15 -10 -27.5 -22.5t-23.5 -27.5q0 1 -1 2.5t-1 3.5q13 19 19 41.5t6 47.5q0 41 -17.5 77.5t-49.5 61.5q-8 6 -17.5 6
t-16.5 -6q-32 -25 -49.5 -61.5t-17.5 -77.5q0 -25 6 -47.5t18 -44.5l-2 -1q-9 15 -22 27.5t-29 22.5q-31 21 -68 28.5t-73 -1.5q-17 33 -26 69t-9 74v53h81q6 0 11.5 4t5.5 12q0 6 -4.5 11t-12.5 5h-81v47q0 13 10 23.5t25 10.5h923q13 0 23.5 -9.5t10.5 -24.5v-47h-840
q-6 0 -11 -4t-5 -12q0 -6 4.5 -11t11.5 -5h840v-53q0 -42 -10 -81q-11 -39 -30 -74t-47 -64q-28 -30 -63 -52q-6 -3 -7 -9.5t3 -12.5q2 -3 6 -5.5t8 -2.5h4l4 2q39 24 70 56q30 33 51 71.5t32 81.5q11 44 11 90v130q-1 27 -21 47t-47 20zM320 173q42 0 35.5 -40.5
t-11.5 -62.5q-12 4 -24 4t-25 -4q-4 21 -11 62t36 41zM427 128q18 -7 21 -26t-9 -32q-10 -13 -26.5 -21.5t-30.5 -17.5q-1 5 -4 9.5t-8 8.5q3 14 7 34.5t8 34.5q7 9 19 12t23 -2zM451 -32q-1 0 -14 2.5t-52 10.5q1 3 1.5 7t2.5 7q16 10 33 22t33 22q34 -1 32 -36t-36 -35z
M243 130q3 -1 5.5 -3t4.5 -5q3 -18 6.5 -37t7.5 -38q-3 -3 -5 -7t-5 -9q-14 9 -33 20t-28 25q-15 22 4 44t43 10zM152 5q0 13 11.5 25.5t26.5 10.5q11 -7 28.5 -19.5t34.5 -22.5q0 -5 1 -9t3 -7q-23 -7 -64 -14t-41 36zM291 -19q-21 24 2 48.5t49 3.5q29 -26 2 -53.5
t-53 1.5zM718 29v-30q0 -14 -9 -22.5t-21 -8.5h-180q5 8 7.5 18t2.5 19q0 6 -1 12t-3 12h204zM449 187q28 18 61 23.5t65 -3.5q-3 -33 -20.5 -61t-44.5 -46q-8 -5 -15.5 -9t-14.5 -7q1 9 0.5 19t-4.5 19l54 37q6 3 6.5 9.5t-2.5 12.5t-9.5 6.5t-12.5 -2.5l-55 -37
q-7 7 -16 11t-18 6q5 4 12 10zM318 369q26 -21 39 -50.5t13 -62.5q0 -17 -3 -33t-11 -30l-12 6l-12 4v105q0 6 -4.5 11.5t-11.5 5.5q-6 0 -11 -4.5t-5 -12.5v-105q-7 -1 -12.5 -4t-10.5 -6q-7 15 -10.5 31.5t-3.5 33.5q2 32 15.5 61t39.5 50zM190 187q8 -5 14 -10.5
t13 -11.5q-10 -2 -19.5 -6.5t-15.5 -12.5l-52 37q-7 3 -12.5 1.5t-10.5 -5.5q-4 -6 -3 -12.5t5 -9.5l53 -37q-3 -9 -4 -19t2 -19q-8 3 -16 7t-14 9q-28 18 -45 47t-20 62q32 8 65 3t60 -23zM603 578l200 196q10 9 14.5 21t4.5 25q0 23 8.5 43.5t25.5 35.5q32 29 75 29
t75 -29q16 -15 25 -35.5t9 -43.5q0 -22 -7.5 -42.5t-24.5 -36.5q-15 -15 -35.5 -23.5t-41.5 -8.5q-14 0 -26 -4.5t-21 -13.5l-113 -113h-168z" />
    <glyph glyph-name="uniEBA5" unicode="&#x6c0;" horiz-adv-x="991" arabic-form="final" 
d="M701 789h-136q-22 0 -36.5 -14.5t-14.5 -35.5v-752q0 -22 14.5 -36.5t36.5 -14.5h136q21 0 36 14.5t15 36.5v114q26 -39 67 -59.5t87 -20.5h85v17q0 54 -29.5 100.5t-79.5 69.5q50 23 79.5 69.5t29.5 101.5v16h-85q-46 0 -86.5 -21.5t-67.5 -59.5v425q0 21 -15 35.5
t-36 14.5zM717 259h-170v224h170v-224zM563 755h136q8 0 12 -5t4 -11v-222h-170v222q1 6 6.5 11t11.5 5zM717 -13q0 -8 -5 -12t-11 -4h-136q-8 0 -12 5t-4 11v240h170v-240h-2zM955 56h-51q-59 0 -102.5 39t-49.5 97h51q59 0 102.5 -39t49.5 -97zM904 363h51
q-6 -58 -50.5 -97t-101.5 -39h-51q7 57 50.5 96.5t101.5 39.5zM0 259v-16h85q46 0 86.5 21t68.5 58v-337q0 -22 14.5 -36.5t36.5 -14.5h136q21 0 35.5 14.5t14.5 36.5v924q0 22 -14.5 36.5t-35.5 14.5h-136q-22 0 -36.5 -14.5t-14.5 -36.5v-370q-26 39 -66.5 59.5
t-88.5 22.5h-85v-17q0 -54 29.5 -100.5t80.5 -69.5q-51 -26 -80.5 -72.5t-29.5 -102.5zM272 550h171v-291h-171v291zM427 -31h-136q-8 0 -12.5 5t-4.5 11v242h171v-240q0 -8 -5.5 -13t-12.5 -5zM291 925h136q7 0 11.5 -5t4.5 -11v-325h-171v325q0 6 5.5 11t13.5 5zM35 584
h50q60 0 103.5 -39t49.5 -97h-51q-58 0 -101.5 39t-50.5 97zM187 413h51q-6 -57 -50.5 -96.5t-102.5 -39.5h-50q7 58 50.5 97t101.5 39zM376 891h34v-272h-34v272zM376 123h34v-120h-34v120zM376 192h34v-35h-34v35zM581 328h35v-34h-35v34zM581 123h35v-120h-35v120z
M581 192h35v-35h-35v35z" />
    <glyph glyph-name="uniEBA6" unicode="&#x6c1;" horiz-adv-x="1140" arabic-form="isolated" 
d="M969 279q-38 0 -72 -15t-58 -44l-63 23q11 6 21.5 13.5t21.5 14.5l268 252q23 2 37 18t14 39q0 24 -16.5 40.5t-40.5 16.5h-61q-6 17 -18 30t-29 19q11 15 11.5 32t-7.5 33q-9 12 -25 20.5t-42 3.5q12 18 14.5 38t-8.5 35q-10 12 -27.5 15.5t-37.5 -3.5v6l-2 7
q-7 32 -32.5 51.5t-58.5 19.5q-11 0 -21.5 -3t-21.5 -9q-1 0 -3 1l-1 1q-11 12 -27.5 19t-33.5 7q-32 0 -54.5 -20t-28.5 -49q-9 0 -19.5 -3.5t-19.5 -12.5t-11.5 -21.5t-2.5 -27.5q-29 17 -50 12t-31 -20q-11 -12 -13 -31.5t3 -35.5q-10 0 -16.5 -3t-14.5 -7
q-18 -13 -28 -37.5t-10 -44.5q-2 -1 -6 -3.5t-7 -4.5q-4 -3 -9.5 -6t-8.5 -8h-26q-25 0 -41 -16.5t-16 -40.5q0 -20 11 -34.5t29 -20.5l9 -65q1 -10 4 -21t6 -21l-220 81q-20 10 -42 2.5t-31 -29.5q-6 -10 -6.5 -24t4.5 -24q5 -11 13.5 -20.5t21.5 -14.5l282 -102v-278
q0 -29 22.5 -51t52.5 -22q14 0 28 5.5t23 14.5l205 208l142 -51v-6q0 -72 49.5 -121.5t121.5 -49.5t122.5 50.5t50.5 122.5q1 71 -48 120.5t-121 49.5zM945 72q12 3 23 12t15 23q6 15 3.5 30.5t-13.5 28.5q22 -3 36.5 -18.5t14.5 -38.5q0 -25 -16.5 -41t-40.5 -16
q-12 0 -23.5 5t-19.5 13q7 -1 11.5 0t9.5 2zM398 657q0 14 7.5 31t15.5 24q4 3 6 2.5t4 -0.5q7 -3 22 -5t22 11q8 11 3.5 21t-9.5 16q-7 7 -7.5 19t5.5 19q8 10 18.5 6.5t18.5 -8.5l4 -4q8 -4 18 -8t21 2q10 8 11.5 20.5t0.5 26.5q0 8 0.5 12.5t3.5 7.5q3 6 9.5 7t10.5 1
q5 0 10 1t8 6l6 6v6q0 20 13.5 33t33.5 13q9 0 18 -4t17 -10l13 -10l29 -2q8 5 14.5 6.5t14.5 1.5q18 0 33 -11t20 -29q0 -2 1 -7t1 -10l8 -10l10 -10q5 -3 12 -6t16 2q11 4 18 3.5t9 -1.5q3 -3 2 -13t-10 -26q-11 -10 -9 -27t7 -23l10 -13l14 6q18 8 31 6t16 -8t0 -14.5
t-12 -17.5q-8 -6 -9 -13.5t3 -15.5l4 -12h12q9 -1 16.5 -6.5t13.5 -11.5h-585q3 6 4.5 11t1.5 9zM303 600h778q9 0 13.5 -5t4.5 -13t-5 -13t-13 -5h-778q-9 0 -14 5t-5 13t5 13t14 5zM354 403q-11 14 -17 30.5t-8 32.5l-6 59h711l-242 -223q-18 -16 -35 -25t-36 -12
l-365 137zM39 436q-3 6 -2.5 10.5t2.5 7.5q3 6 8.5 10t11.5 4h5l3 -2l868 -323q7 -3 10 -10t2 -14q0 -2 -1 -3l-3 -3q-5 -3 -9.5 -4.5t-9.5 0.5l-99 36q-3 2 -5 2t-5 -2l-151 55q-1 2 -2.5 2.5t-3.5 1.5l-79 29q-1 1 -3 1.5t-5 0.5l-142 50l-3 3l-3 2l-78 26h-4l-290 106
q-3 1 -7 5t-5 9zM435 245l101 -37l-101 -101v138zM423 -15q-6 -5 -11.5 -7.5t-13.5 -2.5q-13 0 -25.5 9.5t-12.5 24.5v262l8 -2l28 -12v-185q0 -7 4 -12t10 -8q7 -3 15 -1.5t14 7.5l136 136l41 -14zM967 -25q-55 0 -92.5 36t-39.5 90l41 -15q7 -32 32.5 -52.5t60.5 -20.5
q40 0 68 28t28 68q0 39 -28 67t-68 28q-11 0 -22.5 -3t-22.5 -9l-42 16q17 17 40 26t47 9q55 0 93.5 -38.5t38.5 -93.5q0 -58 -39 -97t-95 -39z" />
    <glyph glyph-name="uniEBA7" unicode="&#x6c1;" horiz-adv-x="548" arabic-form="final" 
d="M488 891h-111v69h-206v-69h-113q-24 0 -41 -17t-17 -41v-839q0 -24 17 -41t41 -17h430q24 0 41 17t17 41v839q2 24 -15 41t-43 17zM206 926h137v-35h-137v35zM512 -6q0 -10 -7.5 -17t-16.5 -7h-430q-10 0 -17 7.5t-7 16.5v839q0 11 7.5 17.5t16.5 6.5h430q10 0 17 -7.5
t7 -16.5v-839zM341 668q0 6 -3 10.5t-7 7.5l-15 4l-8 -10l-185 -301h99v-219q0 -6 2.5 -10.5t7.5 -7.5l14 -6l8 10l167 318h-80v204zM365 430l-109 -208v190h-73l123 197v-181h59v2z" />
    <glyph glyph-name="uniEBA8" unicode="&#x6c1;" arabic-form="initial" 
d="M1008 737h-51v86q0 8 -5.5 12t-11.5 4h-102q-8 0 -12 -5t-4 -11v-86h-68v137q0 35 -25 60.5t-61 25.5h-306q-35 0 -60.5 -25.5t-25.5 -60.5v-137h-72v86q0 8 -5 12t-11 4h-102q-8 0 -12.5 -5t-4.5 -11v-86h-53q-7 0 -11.5 -5t-4.5 -11v-102q0 -8 5 -12.5t11 -4.5h68v-529
h-49q-8 0 -12.5 -5t-4.5 -11v-103q0 -7 5.5 -11.5t11.5 -4.5h956q8 0 12.5 5t4.5 11v103q0 7 -5.5 11.5t-11.5 4.5h-51v529h68q7 0 11.5 5.5t4.5 11.5v102q0 8 -4.5 12t-11.5 4zM854 807h68v-68h-68v68zM307 874q0 22 14.5 36.5t36.5 14.5h306q22 0 36.5 -14.5t14.5 -36.5
v-137h-34v102q0 22 -15 37t-36 15h-238q-21 0 -36 -15t-15 -37v-102h-34v137zM376 737v102q0 8 5 12.5t11 4.5h240q7 0 11.5 -5t4.5 -12v-102h-272zM102 807h68v-68h-68v68zM973 -31h-922v67h922v-67zM119 73v529h784v-529h-784zM991 635h-956v67h956v-67zM360 304
q1 -5 5.5 -7.5t10.5 -2.5h76l-58 -129q-3 -6 -0.5 -11.5t7.5 -9.5q4 -3 10.5 -2.5t11.5 5.5l223 204q4 3 4.5 8.5t-0.5 9.5q-2 5 -6 8t-10 3h-94l57 128q3 6 0.5 12t-6.5 9q-5 3 -11.5 2.5t-11.5 -4.5l-204 -205q-3 -3 -4.5 -8t0.5 -10zM527 439l-30 -70q-2 -4 -1.5 -8.5
t3.5 -7.5t6 -5.5t8 -2.5h76l-129 -119l35 78q1 5 1 9t-3 7t-6.5 5.5t-8.5 2.5h-61zM255 447h35v-35q0 -7 5 -11.5t12 -4.5q6 0 11 5t5 11v35h35q7 0 11.5 5t4.5 11q0 8 -5 12.5t-11 4.5h-35v34q0 8 -5 12.5t-11 4.5q-7 0 -12 -5t-5 -12v-34h-35q-7 0 -11.5 -5.5t-4.5 -11.5
t5 -11t11 -5zM683 447h86q7 0 11.5 5t4.5 11q0 8 -5 12.5t-11 4.5h-86q-8 0 -12.5 -5.5t-4.5 -11.5t5.5 -11t11.5 -5zM153 140h68v-34h-68v34zM255 140h35v-34h-35v34zM734 277h67v-34h-67v34zM836 277h35v-34h-35v34zM734 106h137v102h-137v-102zM769 175h67v-35h-67v35z
" />
    <glyph glyph-name="uniEBA9" unicode="&#x6c1;" horiz-adv-x="1229" arabic-form="medial" 
d="M573 163q9 0 14 6t5 13v122q0 9 -6 14.5t-13 5.5h-122q-9 0 -14 -6.5t-5 -13.5v-122q0 -9 6 -14t13 -5h122zM471 285h82v-83h-82v83zM656 163h122q9 0 14 6t5 13v122q0 9 -6 14.5t-13 5.5h-122q-9 0 -14.5 -6.5t-5.5 -13.5v-122q-1 -9 5 -14t15 -5zM675 285h83v-83h-83
v83zM573 387q9 0 14 6t5 14v121q0 10 -6 15t-13 5h-122q-9 0 -14 -6t-5 -14v-121q0 -10 6 -15t13 -5h122zM471 509h82v-83h-82v83zM656 387h122q9 0 14 6t5 14v121q0 10 -6 15t-13 5h-122q-9 0 -14.5 -6t-5.5 -14v-121q-1 -8 5 -14t15 -6zM675 509h83v-83h-83v83zM1085 304
h-163q-10 0 -15 -6t-5 -13v-83q0 -9 6 -14.5t14 -5.5h163q9 0 14 6t5 14v83q0 9 -5 14t-14 5zM1065 224h-121v41h121v-41zM1085 141h-163q-10 0 -15 -6t-5 -14v-83q0 -9 6 -14t14 -5h163q9 0 14 6t5 13v83q0 8 -5 14t-14 6zM1065 60h-121v42h121v-42zM307 304h-163
q-9 0 -14.5 -6t-5.5 -13v-83q0 -9 6.5 -14.5t13.5 -5.5h163q9 0 14.5 6t5.5 14v83q0 9 -5.5 14t-14.5 5zM288 224h-122v41h122v-41zM307 141h-163q-9 0 -15.5 -6t-6.5 -14v-83q0 -9 6 -14t13 -5h164q9 0 14 6t5 13v83q2 8 -3 14t-14 6zM288 60h-122v42h122v-42zM1168 -23
v369h41q6 0 12 3t8 9q2 5 0.5 11.5t-5.5 10.5l-205 185q-5 6 -13 6t-14 -6l-109 -97v165h41q6 0 12 3.5t8 8.5q1 6 -0.5 12.5t-4.5 9.5l-56 52v219q0 9 -6.5 14.5t-13.5 5.5h-102q-9 0 -14.5 -6.5t-5.5 -13.5v-88l-110 103q-5 5 -13 5t-13 -5l-312 -286q-6 -3 -6.5 -9.5
t1.5 -12.5q2 -5 7 -8.5t12 -3.5h42v-165l-110 97q-6 6 -13.5 6t-13.5 -6l-205 -185q-5 -4 -6.5 -9t1.5 -11q4 -5 8.5 -8.5t11.5 -3.5h41v-368h-63v-44h1229v41h-61zM1002 524l151 -137h-302zM778 919h61v-161l-61 56v105zM614 911l256 -239h-512zM224 524l151 -137h-302z
M102 346h247v-369h-247v369zM390 346h42q5 0 11 3t8 9q2 5 0.5 11.5t-5.5 10.5l-53 48v203h451v-203l-54 -48q-6 -4 -6.5 -10.5t1.5 -11.5q2 -6 7 -9t13 -3h41v-369h-122v61q0 42 -30 72.5t-72 30.5t-76 -30.5t-34 -72.5v-61h-122v369zM553 -23v61q0 26 18 43.5t43 17.5
q26 0 43.5 -17.5t17.5 -43.5v-61h-122zM880 -23v369h246v-369h-246z" />
    <glyph glyph-name="uniEBAA" unicode="&#x6be;" arabic-form="isolated" 
d="M1010 688q-20 0 -34 14.5t-14 33.5q0 6 -4.5 10t-10.5 4t-10 -4t-4 -10q0 -19 -14 -33.5t-34 -14.5q-6 0 -10 -4t-4 -10t4 -10t10 -4q20 0 34 -14.5t14 -34.5q0 -6 4 -10t10 -4t10.5 4t4.5 10q0 20 14 34.5t34 14.5q6 0 10 4t4 10t-4 10t-10 4zM945 654q-3 4 -7.5 8.5
t-10.5 9.5q5 3 9.5 7.5t8.5 10.5q3 -5 7.5 -9.5t11.5 -8.5q-7 -3 -11.5 -7.5t-7.5 -10.5zM143 688q-20 0 -34 14.5t-14 33.5q0 6 -4 10t-10 4t-10 -4t-4 -10q0 -19 -14.5 -33.5t-34.5 -14.5q-6 0 -10 -4t-4 -10t2 -11t8 -5q20 0 34 -14.5t14 -34.5q0 -6 4.5 -10t10.5 -4
t10 4t4 10q0 20 14 34.5t34 14.5q6 0 10 4t4 10t-2 11t-8 5zM79 654q-3 4 -7.5 8.5t-11.5 9.5q5 3 9.5 7.5t9.5 10.5q3 -5 7.5 -9.5t10.5 -8.5q-5 -3 -9.5 -7.5t-8.5 -10.5zM593 879q-28 0 -46.5 19.5t-18.5 45.5q0 6 -4 10t-10 4t-10 -4t-4 -10q0 -27 -19.5 -46t-45.5 -19
q-6 0 -10 -4t-4 -10t4 -10t10 -4q28 0 46.5 -19.5t18.5 -44.5q0 -6 4 -10t10 -4t10 4t4 10q0 27 19.5 45.5t45.5 18.5q6 0 10 4t4 10t-4 10t-10 4zM512 835q-6 9 -12.5 16.5t-15.5 13.5q9 6 16 13.5t12 14.5q6 -9 13.5 -16t14.5 -12q-7 -6 -14.5 -13.5t-13.5 -16.5zM824 452
l-58 167q-3 9 -11.5 14.5t-18.5 5.5h-454q-10 0 -17.5 -5.5t-12.5 -14.5l-58 -165q-4 -8 1 -14t13 -6h602q3 0 7 1.5t5 4.5q3 3 3.5 6t-1.5 6zM230 462l52 145h456l52 -145h-560zM798 254q-39 0 -67 -18t-28 -44t28 -44t67 -18q40 0 67.5 18t27.5 44t-27 44t-68 18zM798 158
q-28 0 -46 10.5t-18 21.5q0 12 18.5 22t45.5 10q29 0 47 -10.5t18 -21.5q1 -11 -17.5 -21.5t-47.5 -10.5zM222 254q-40 0 -67.5 -18t-27.5 -44t27.5 -44t67.5 -18q39 0 66.5 18t27.5 44t-27.5 44t-66.5 18zM222 158q-29 0 -47 10.5t-18 21.5q0 12 19 22t46 10t45.5 -10.5
t18.5 -21.5t-18.5 -21.5t-45.5 -10.5zM992 478h-81q-4 0 -8 -3t-6 -9l-10 -40l-75 209q-9 25 -29 39t-45 14h-456q-25 0 -46 -15t-28 -38l-73 -209l-10 42q-2 5 -6 8.5t-8 3.5h-81q-6 0 -10 -4t-4 -10v-64q0 -6 4 -10t10 -4h83l-53 -75q-7 -11 -10.5 -22.5t-3.5 -23.5v-188
q0 -20 8.5 -36t24.5 -28v-49q0 -13 9 -21.5t21 -8.5h97q13 0 21.5 9t8.5 21v32h548v-32q0 -13 9 -21.5t21 -8.5h97q14 0 22 9t8 21v49q15 10 24 27t9 37v188q0 12 -4 23.5t-11 22.5l-50 73h83q6 0 10 4t4 10v64q0 6 -4 10t-10 4zM44 414v34h55l8 -34h-63zM206 -34h-97v32h97
v-32zM913 -34h-97v32h97v-32zM895 29h-770q-17 0 -29.5 9.5t-16.5 24.5h862q-4 -14 -16.5 -24t-29.5 -10zM639 192v-34h-258v34h258zM383 222q5 15 17.5 25t28.5 10h162q16 0 28.5 -10t17.5 -25h-254zM639 127v-34h-258v34h258zM935 295q5 -6 7.5 -13.5t2.5 -14.5v-174h-276
v113q0 33 -23.5 56t-54.5 23h-162q-33 0 -55.5 -23.5t-22.5 -55.5v-113h-274v174q0 7 2.5 14.5t7.5 13.5l64 88h555q6 0 10 4.5t4 10.5t-4 10t-10 4h-543l75 209q4 15 17.5 24t28.5 9h456q15 0 28.5 -9.5t17.5 -23.5l75 -209h-91q-6 0 -10 -4t-4 -10t4 -10.5t10 -4.5h105z
M976 414h-63l8 34h55v-34zM270 303h-97q-6 0 -10 -4t-4 -10t4 -10t10 -4h97q6 0 10 4t4 10q0 4 -4 9t-10 5zM847 303h-97q-6 0 -10 -4t-4 -10t4 -10t10 -4h97q6 0 10 4t4 10q1 4 -3.5 9t-10.5 5z" />
    <glyph glyph-name="uniEBAB" unicode="&#x6be;" horiz-adv-x="1189" arabic-form="final" 
d="M258 184q-52 0 -88 -36t-36 -88t36 -88t88 -36t88 36t36 88t-36 88t-88 36zM258 -29q-37 0 -63 26t-26 63t26 63t63 26t63 -26t26 -63t-26 -63t-63 -26zM258 123q-26 0 -44.5 -18.5t-18.5 -44.5t18.5 -44.5t44.5 -18.5t44.5 18.5t18.5 44.5t-18.5 44.5t-44.5 18.5z
M258 31q-12 0 -20 8.5t-8 20.5t8 20t20 8t20 -8t8 -20t-8 -20.5t-20 -8.5zM1187 450l-80 207q-13 37 -45.5 59.5t-72.5 22.5h-308q-8 0 -13.5 -5.5t-5.5 -13.5v-404h-36v459q0 8 -5.5 13t-13.5 5h-38q11 14 17.5 30.5t6.5 34.5q0 42 -29.5 72t-71.5 30q-43 0 -72.5 -29.5
t-29.5 -72.5v-16q-11 8 -23 12t-26 4q-13 0 -25.5 -4t-22.5 -12v16q0 42 -29.5 72t-72.5 30t-72.5 -29.5t-29.5 -72.5q0 -18 7 -35t18 -30h-37q-7 0 -12.5 -5t-5.5 -13v-459h-41q-7 0 -12.5 -5.5t-5.5 -12.5v-238q0 -8 5.5 -13t12.5 -5h65q8 0 13.5 5t5.5 13q0 65 46 110.5
t110 45.5q66 0 111 -46t45 -110q0 -8 5.5 -13t13.5 -5h313q7 0 12.5 5t5.5 13q0 65 46 110.5t110 45.5q26 0 49.5 -7.5t44.5 -22.5q6 -5 13 -3.5t11 7.5q5 6 3.5 13t-7.5 11q-24 19 -53.5 28t-60.5 9q-74 0 -129.5 -51t-61.5 -124h-32v626h292q28 0 51.5 -16.5t34.5 -42.5
l79 -203v-362h-39q-3 26 -11 50t-23 44q-5 6 -11.5 7t-12.5 -3q-7 -5 -8 -12t3 -13q14 -19 21.5 -43t7.5 -48q0 -8 5.5 -13t12.5 -5h73q8 0 13.5 5t5.5 13v384q-2 1 -2.5 3t-1.5 3zM425 621h164v-305h-164v305zM589 655h-164v102h164v-102zM425 858q0 28 19.5 46.5
t45.5 18.5t45.5 -19.5t19.5 -45.5q0 -25 -18 -45t-45 -20h-65v65h-2zM341 824q16 0 28 -8.5t17 -22.5h-89q6 14 17.5 22.5t26.5 8.5zM126 858q0 28 19.5 46.5t45.5 18.5t45.5 -19.5t19.5 -45.5v-65h-63q-27 0 -47 19t-20 46zM258 757v-102h-165v102h165zM93 621h165v-96
q0 -7 5.5 -12.5t12.5 -5.5q8 0 13.5 5.5t5.5 12.5v232h97v-443h-97v148q0 8 -5.5 13.5t-13.5 5.5q-7 0 -12.5 -5.5t-5.5 -13.5v-148h-165v307zM258 253q-75 0 -130 -51t-61 -124h-32v203h627v-203h-211q-8 73 -63 124t-130 51zM1107 434q3 3 3.5 7t-1.5 9l-69 181
q-6 15 -20 24.5t-31 9.5h-235q-8 0 -13.5 -5t-5.5 -13v-203q0 -8 5.5 -13t13.5 -5h339q5 0 8 2.5t6 5.5zM770 462v169h219q7 0 11 -3t6 -9l61 -157h-297zM922 184q-51 0 -87.5 -36t-36.5 -88t36.5 -88t87.5 -36q52 0 88 36t36 88t-36.5 88t-87.5 36zM922 -29q-36 0 -62.5 26
t-26.5 63t26.5 63t62.5 26q37 0 63.5 -26t26.5 -63q-2 -37 -27.5 -63t-62.5 -26zM922 123q-25 0 -44 -18.5t-19 -44.5t19 -44.5t44 -18.5q26 0 44.5 18.5t18.5 44.5t-18.5 44.5t-44.5 18.5zM922 31q-12 0 -20 8.5t-8 20.5t8 20t20 8q13 0 21 -8t8 -20t-9 -20.5t-20 -8.5z
M614 229h-124q-8 0 -13.5 -5.5t-5.5 -13.5q0 -7 5.5 -12.5t13.5 -5.5h124q7 0 12.5 5.5t5.5 12.5q0 8 -6 13.5t-12 5.5zM614 166h-124q-8 0 -13.5 -5.5t-5.5 -13.5q0 -7 5.5 -12.5t13.5 -5.5h124q7 0 12.5 5.5t5.5 12.5q0 8 -6 13.5t-12 5.5zM754 391q-8 0 -13.5 -5.5
t-5.5 -12.5q0 -8 5.5 -13t13.5 -5h75q8 0 13 5t5 13q0 7 -6 12.5t-14 5.5h-73z" />
    <glyph glyph-name="uniEBAC" unicode="&#x6be;" arabic-form="initial" 
d="M690 518q-11 0 -17.5 -7t-6.5 -17q0 -11 6.5 -18t17.5 -7t18 7t7 18q0 9 -7 16.5t-18 7.5zM829 518q-11 0 -18 -7t-7 -17q0 -11 7 -18t18 -7q10 0 17 7t7 18q0 9 -7 16.5t-17 7.5zM193 518q-10 0 -17 -7t-7 -17q0 -11 7 -18t17 -7q11 0 18 7t7 18q0 9 -7 16.5t-18 7.5z
M334 518q-11 0 -18 -7t-7 -17q0 -11 7 -18t18 -7t17.5 7t6.5 18q0 9 -7.5 16.5t-16.5 7.5zM1014 172q-2 6 -7 9t-12 1q-6 -1 -8.5 -6.5t-1.5 -11.5q3 -11 4.5 -22t1.5 -23h-283q-3 2 -6 2.5t-6 1.5v2q0 51 -24 93t-63 66q16 15 36 26t41 17q8 -23 28.5 -37t44.5 -14
q25 0 45.5 14t28.5 37q41 -14 76 -42t56 -68q3 -6 9.5 -7.5t12.5 1.5q5 3 6 8.5t-2 11.5q-9 17 -19.5 31t-22.5 28q10 8 19.5 20t16.5 27q15 31 22 74q8 43 9 87.5t-4 85.5t-14 69q-14 36 -38 66t-56 52q-32 21 -68 32.5t-75 11.5q-45 0 -88 -16t-79 -47q-4 -4 -4.5 -9.5
t2.5 -10.5q5 -5 10.5 -5t10.5 3q30 27 68.5 41t77.5 14q34 0 66.5 -10t60.5 -29q27 -20 48 -46t33 -58q9 -24 14 -62q4 -38 3 -79.5t-8 -81.5q-6 -39 -19 -68q-6 -13 -14.5 -23.5t-16.5 -14.5q-20 15 -41.5 27t-45.5 19q46 23 75 67.5t29 97.5v31q0 6 -4 10t-9 4
q-55 9 -90.5 48.5t-35.5 41.5q-4 7 -13.5 6t-12.5 -8l-38 -43l-150 -43q-6 0 -10 -4t-4 -10v-31q0 -55 29 -99t75 -66q-23 -7 -45.5 -19t-42.5 -27q-9 4 -16.5 14.5t-13.5 23.5q-14 29 -21 68q-7 40 -8 81.5t4 79.5t15 62q4 13 10 24t14 21q3 5 2 11.5t-6 9.5t-11 1.5
t-9 -5.5q-8 -13 -15 -25.5t-12 -25.5q-10 -27 -16 -68q-5 -41 -3.5 -85.5t8.5 -87.5q8 -44 23 -75q4 -8 8 -15t9 -13q-9 3 -19.5 4.5t-21.5 1.5q-2 9 -2 20t2 20q2 7 -2 12t-10 7q-6 1 -11.5 -2.5t-7.5 -9.5q-1 -10 -1.5 -20t-0.5 -19q-18 11 -23 25l-5 14q-2 6 -6 9.5
t-10 2.5q-6 -2 -10 -6t-3 -11q0 -1 6.5 -17.5t24.5 -32.5q-3 -2 -7 -2.5t-7 -2.5q-22 19 -46 33.5t-50 21.5q23 11 42.5 28.5t34.5 39.5q7 -3 13 -4.5t12 -1.5q23 0 39 16t16 38q0 10 -3 17.5t-7 13.5q29 86 22.5 138t-22.5 78q-17 27 -43 43.5t-59 21.5q-23 3 -42 -1.5
t-29 -8.5q-16 18 -36.5 28t-57.5 10q-43 0 -95 -22t-84 -71q-35 -54 -30 -112t24 -104q-5 -6 -7.5 -13.5t-2.5 -17.5q0 -22 16 -38t38 -16q7 0 13.5 1.5t11.5 4.5q14 -22 33 -39.5t42 -28.5q-30 -9 -58.5 -26.5t-51.5 -42.5q-4 -4 -4 -10t4 -10q5 -5 11.5 -5.5t11.5 5.5
q20 21 44 36.5t51 24.5q8 -23 28.5 -37t45.5 -14q24 0 44.5 14t28.5 37q20 -6 38 -16.5t35 -24.5q-41 -24 -66 -67.5t-25 -95.5v-2q-3 0 -6.5 -1t-6.5 -3h-276q1 28 8.5 53.5t21.5 48.5q3 6 1.5 11.5t-7.5 8.5t-11.5 1.5t-8.5 -7.5q-17 -30 -26 -63.5t-9 -68.5q0 -6 4 -10
t10 -4h261q-2 -5 -3 -10t-1 -11q0 -23 16 -39t39 -16q6 0 12 1l10 3q26 -38 67.5 -61.5t91.5 -23.5q49 0 91 23.5t68 61.5q4 -3 10 -3.5t12 -0.5q23 0 39 16t16 39q0 6 -1 11t-3 10h271q6 0 10 4t4 10q0 18 -3 35t-7 32zM444 449q-3 0 -6 0.5t-4 1.5q4 11 7 23t5 24
q9 0 15.5 -7.5t6.5 -17.5q0 -9 -7 -16.5t-17 -7.5zM67 706q28 41 73 60t82 19q35 0 50 -10t27 -27q3 -4 9.5 -5.5t11.5 1.5l18 8l45 4q26 -3 46.5 -16t32.5 -34q18 -33 18 -78.5t-18 -103.5q-4 2 -8 3t-8 1v25q0 6 -4 10t-8 4q-55 9 -91 48.5t-36 41.5q-4 7 -13.5 6
t-12.5 -8l-9 -14l-28 -29q-27 -21 -66 -32t-84 -11q-6 0 -10.5 -4t-4.5 -10v-25q-4 0 -8.5 -1t-9.5 -3q-20 54 -18.5 98.5t24.5 81.5zM83 449q-10 0 -17 7t-7 17t6.5 17.5t15.5 7.5q2 -12 5 -24t8 -23q-3 0 -5 -1t-6 -1zM110 514v27q85 3 128.5 32.5t58.5 50.5
q15 -18 46.5 -44.5t73.5 -36.5v-29q-4 -59 -47.5 -100.5t-104.5 -41.5q-63 -2 -106.5 39.5t-48.5 102.5zM263 307q-16 0 -27.5 8t-17.5 20q11 2 21.5 3t23.5 1q10 0 22 -1t22 -3q-6 -12 -17.5 -20t-26.5 -8zM759 307q-15 0 -26.5 8t-17.5 20q10 2 21 3t23 1q11 0 22.5 -1
t22.5 -3q-6 -12 -17.5 -20t-27.5 -8zM607 524v17q85 3 128.5 32.5t58.5 50.5q15 -18 46 -44.5t74 -36.5v-19q0 -64 -45.5 -109t-109.5 -45t-108 45t-44 109zM326 46q-11 0 -18 7t-7 17t5.5 16t13.5 9q1 -12 5 -24t9 -23q-2 -2 -4 -2h-4zM507 -33q-66 0 -112.5 46.5
t-46.5 111.5q0 66 46.5 112.5t112.5 46.5t112.5 -46.5t46.5 -112.5q0 -65 -46.5 -111.5t-112.5 -46.5zM688 46h-4l-4 2q5 11 9 23t5 24q8 -2 13.5 -8.5t5.5 -16.5t-8 -17t-17 -7zM438 131q-11 0 -18 -6.5t-7 -17.5t7 -17.5t18 -6.5q10 0 17 6.5t7 17.5t-7.5 17.5t-16.5 6.5z
M576 131q-11 0 -17.5 -6.5t-6.5 -17.5t6.5 -17.5t17.5 -6.5t18 6.5t7 17.5t-7 17.5t-18 6.5zM472 815q17 -15 32.5 -23.5t16.5 -8.5q3 -2 6 -2t6 2q2 0 16.5 8.5t32.5 23.5q25 22 36.5 44.5t8.5 45.5q-3 28 -20 40.5t-35 12.5q-12 1 -24.5 -3t-20.5 -11q-9 7 -20.5 11
t-24.5 3q-16 -2 -33 -13.5t-21 -39.5q-4 -23 8 -45.5t36 -44.5zM458 901q3 17 11.5 22t15.5 6h2q9 0 16 -4t10 -10q2 -4 6 -7t8 -3q5 0 9 3t6 7q1 8 10 12t18 2q6 0 15.5 -5.5t10.5 -22.5q5 -29 -22 -53t-47 -35q-20 11 -47 35t-22 53z" />
    </font>
</defs>
</svg>
